# Blender 4.0.2
# www.blender.org
mtllib Camera.mtl
o Cube
v 0.500000 0.500000 -0.500000
v 0.500000 -0.500000 -0.500000
v -0.500000 0.500000 -0.500000
v -0.500000 -0.500000 -0.500000
v 0.500000 0.500000 0.401910
v 0.401910 0.401910 0.500000
v 0.401910 -0.401910 0.500000
v 0.500000 -0.500000 0.401910
v -0.401910 0.401910 0.500000
v -0.500000 0.500000 0.401910
v -0.401910 -0.401910 0.500000
v -0.500000 -0.500000 0.401910
v 0.401910 0.401910 0.500000
v 0.401910 -0.401910 0.500000
v -0.401910 0.401910 0.500000
v -0.401910 -0.401910 0.500000
v 0.329685 0.329685 0.500000
v 0.329685 -0.329685 0.500000
v -0.329685 -0.329685 0.500000
v -0.329685 0.329685 0.500000
v 0.275267 0.275267 0.398925
v 0.275267 -0.275267 0.398925
v -0.275267 -0.275267 0.398925
v -0.275267 0.275267 0.398925
v 0.329685 0.329685 0.448980
v 0.329685 -0.329685 0.448980
v -0.329685 -0.329685 0.448980
v -0.329685 0.329685 0.448980
v 0.210338 0.210338 0.452342
v 0.210338 -0.210338 0.452342
v -0.210338 -0.210338 0.452342
v -0.210338 0.210338 0.452342
v 0.275267 0.275267 0.452342
v 0.275267 -0.275267 0.452342
v -0.275267 -0.275267 0.452342
v -0.275267 0.275267 0.452342
v 0.179869 0.179869 0.462183
v 0.179869 -0.179869 0.462183
v -0.179869 -0.179869 0.462183
v -0.179869 0.179869 0.462183
v 0.179869 0.000000 0.462183
v -0.179869 0.000000 0.462183
v -0.000000 0.179869 0.462183
v -0.000000 -0.179869 0.462183
v -0.000000 0.000000 0.497305
v 0.179869 -0.089935 0.462183
v -0.179869 0.089935 0.462183
v 0.089935 0.179869 0.462183
v -0.089935 -0.179869 0.462183
v 0.179869 0.089935 0.462183
v -0.179869 -0.089935 0.462183
v -0.089935 0.179869 0.462183
v 0.089935 -0.179869 0.462183
v -0.105169 0.000000 0.486942
v 0.105169 0.000000 0.486942
v -0.000000 -0.105169 0.486942
v -0.000000 0.105169 0.486942
v 0.105169 0.105169 0.486942
v 0.105169 -0.105169 0.486942
v -0.105169 -0.105169 0.486942
v -0.105169 0.105169 0.486942
v -0.500000 0.500000 -0.500000
v -0.500000 -0.500000 -0.500000
v -0.500000 0.500000 0.401910
v -0.500000 -0.500000 0.401910
v -0.500000 -0.166667 -0.500000
v -0.500000 0.166667 -0.500000
v -0.500000 0.166667 0.401910
v -0.500000 -0.166667 0.401910
v -0.500000 0.500000 -0.199363
v -0.500000 0.500000 0.101273
v -0.500000 -0.500000 0.101273
v -0.500000 -0.500000 -0.199363
v -0.500000 0.127663 0.229899
v -0.500000 0.127663 0.061917
v -0.500000 0.328343 0.229899
v -0.500000 0.328343 0.061917
v -0.500000 0.061336 0.296226
v -0.500000 0.061336 -0.004410
v -0.500000 0.394670 0.296226
v -0.500000 0.394670 -0.004410
v -0.465760 0.148607 0.208956
v -0.465760 0.148607 0.082860
v -0.465760 0.307399 0.208956
v -0.465760 0.307399 0.082860
v -0.465760 0.127663 0.229899
v -0.465760 0.127663 0.061917
v -0.465760 0.328343 0.229899
v -0.465760 0.328343 0.061917
v -0.484763 0.148607 0.208956
v -0.484763 0.148607 0.082860
v -0.484763 0.307399 0.208956
v -0.484763 0.307399 0.082860
vn -0.0000 -1.0000 -0.0000
vn -0.0000 -0.0000 -1.0000
vn -1.0000 -0.0000 -0.0000
vn -0.0000 1.0000 -0.0000
vn 0.7071 -0.0000 0.7071
vn -0.7071 -0.0000 0.7071
vn -0.0000 0.7071 0.7071
vn -0.0000 -0.7071 0.7071
vn 1.0000 -0.0000 -0.0000
vn -0.0000 -0.0000 1.0000
vn -0.6770 -0.0000 0.7360
vn 0.6770 -0.0000 0.7360
vn -0.0000 -0.6770 0.7360
vn -0.0000 0.6770 0.7360
vn -0.3074 -0.0000 0.9516
vn -0.1614 0.1614 0.9736
vn -0.0000 0.3074 0.9516
vn 0.3074 -0.0000 0.9516
vn -0.0000 -0.3074 0.9516
vn -0.3146 -0.0000 0.9492
vn 0.0491 -0.0491 0.9976
vn -0.0000 0.3146 0.9492
vn 0.0491 0.0491 0.9976
vn 0.3146 -0.0000 0.9492
vn 0.1614 0.1614 0.9736
vn -0.0000 -0.3146 0.9492
vn 0.1614 -0.1614 0.9736
vn -0.1614 -0.1614 0.9736
vn -0.0491 -0.0491 0.9976
vn -0.0491 0.0491 0.9976
vt 0.344601 0.344601
vt 0.033802 0.344601
vt 0.033802 0.000000
vt 0.344601 0.000000
vt 0.000000 0.689201
vt 0.000000 0.344601
vt 0.344601 0.689201
vt 0.896400 0.344601
vt 0.829219 0.151164
vt 1.000000 0.229734
vt 1.000000 0.344601
vt 0.655399 0.344601
vt 0.655399 0.000000
vt 0.689201 0.378402
vt 0.689201 0.655399
vt 0.655399 0.689201
vt 0.723003 0.344601
vt 0.723003 0.689201
vt 0.689201 0.033802
vt 0.689201 0.310799
vt 0.000000 0.310799
vt 0.000000 0.033802
vt 0.723003 0.571820
vt 0.740585 0.344601
vt 0.740585 0.571820
vt 0.024889 0.941309
vt 0.252108 0.941309
vt 0.276997 0.966198
vt 0.000000 0.966198
vt 0.252108 0.714090
vt 0.024889 0.714090
vt 0.276997 0.689201
vt 0.741411 0.571820
vt 0.741411 0.761534
vt 0.723003 0.761534
vt 0.758166 0.344601
vt 0.758166 0.571820
vt 0.775748 0.344601
vt 0.775748 0.571820
vt 0.793330 0.344601
vt 0.793330 0.571820
vt 0.295750 0.897668
vt 0.485464 0.897668
vt 0.504216 0.916421
vt 0.276997 0.916421
vt 0.485464 0.707954
vt 0.295750 0.707954
vt 0.504216 0.689201
vt 0.526591 0.711576
vt 0.671556 0.711576
vt 0.661056 0.722075
vt 0.630065 0.722075
vt 0.599073 0.722075
vt 0.568082 0.722075
vt 0.537090 0.722075
vt 0.759818 0.571820
vt 0.759818 0.761534
vt 0.778226 0.571820
vt 0.778226 0.761534
vt 0.796633 0.571820
vt 0.796633 0.761534
vt 0.526591 0.856541
vt 0.671556 0.856541
vt 0.693931 0.878915
vt 0.504216 0.878915
vt 0.693931 0.689201
vt 0.562832 0.747817
vt 0.537090 0.753067
vt 0.537090 0.784058
vt 0.537090 0.815050
vt 0.537090 0.846041
vt 0.568082 0.846041
vt 0.599073 0.846041
vt 0.630065 0.846041
vt 0.661056 0.846041
vt 0.661056 0.815050
vt 0.661056 0.784058
vt 0.661056 0.753067
vt 0.635315 0.747817
vt 0.599073 0.747817
vt 0.635315 0.820300
vt 0.599073 0.820300
vt 0.599073 0.784058
vt 0.635315 0.784058
vt 0.562832 0.820300
vt 0.562832 0.784058
vt 0.829219 0.036297
vt 0.896400 0.000000
vt 1.000000 0.000000
vt 1.000000 0.114867
vt 0.689201 0.229734
vt 0.689201 0.114867
vt 0.725620 0.036297
vt 0.725620 0.151164
vt 0.693931 0.758355
vt 0.705730 0.689201
vt 0.705730 0.758355
vt 0.689201 0.000000
vt 0.792801 0.000000
vt 0.689201 0.344601
vt 0.792801 0.344601
vt 0.748476 0.128307
vt 0.806363 0.128307
vt 0.806363 0.059153
vt 0.748476 0.059153
vt 0.793330 0.569815
vt 0.793330 0.515095
vt 0.799878 0.515095
vt 0.799878 0.569815
vt 0.793330 0.402488
vt 0.805129 0.344601
vt 0.805129 0.402488
vt 0.717529 0.689201
vt 0.717529 0.758355
vt 0.793330 0.460374
vt 0.805129 0.460374
vt 0.730220 0.823471
vt 0.773673 0.823471
vt 0.780890 0.830688
vt 0.723003 0.830688
vt 0.773673 0.768751
vt 0.730220 0.768751
vt 0.780890 0.761534
vt 0.780890 0.816254
vt 0.824343 0.761534
vt 0.824343 0.816254
vt 0.707028 0.758355
vt 0.707028 0.801808
vt 0.700479 0.801808
vt 0.700479 0.758355
vt 0.799878 0.460374
vt 0.799878 0.515094
vt 0.793330 0.515094
vt 0.693931 0.801808
s 0
usemtl Material.001
f 2/1/1 8/2/1 12/3/1 4/4/1
f 4/5/2 3/6/2 1/1/2 2/7/2
f 73/8/3 79/9/3 66/10/3 63/11/3
f 5/12/4 1/1/4 3/4/4 10/13/4
f 6/14/5 7/15/5 8/16/5 5/12/5
f 10/17/6 12/18/6 11/15/6 9/14/6
f 5/12/7 10/13/7 9/19/7 6/20/7
f 12/3/8 8/2/8 7/21/8 11/22/8
f 2/7/9 1/1/9 5/12/9 8/16/9
f 17/23/1 20/17/1 28/24/1 25/25/1
f 17/26/10 18/27/10 14/28/10 13/29/10
f 19/30/10 20/31/10 15/5/10 16/32/10
f 20/31/10 17/26/10 13/29/10 15/5/10
f 18/27/10 19/30/10 16/32/10 14/28/10
f 23/33/1 22/34/1 34/35/1 35/23/1
f 18/25/3 17/24/3 25/36/3 26/37/3
f 19/38/4 18/39/4 26/37/4 27/36/4
f 20/40/9 19/41/9 27/39/9 28/38/9
f 21/42/11 22/43/11 26/44/11 25/45/11
f 23/46/12 24/47/12 28/32/12 27/48/12
f 24/47/13 21/42/13 25/45/13 28/32/13
f 22/43/14 23/46/14 27/48/14 26/44/14
f 32/49/15 31/50/15 39/51/15 51/52/15 42/53/15 47/54/15 40/55/15
f 24/56/3 23/57/3 35/34/3 36/33/3
f 21/57/4 24/56/4 36/58/4 33/59/4
f 22/59/9 21/58/9 33/60/9 34/61/9
f 29/62/10 30/63/10 34/64/10 33/65/10
f 31/50/10 32/49/10 36/48/10 35/66/10
f 32/49/10 29/62/10 33/65/10 36/48/10
f 30/63/10 31/50/10 35/66/10 34/64/10
f 61/67/16 52/68/16 40/55/16 47/54/16
f 29/62/17 32/49/17 40/55/17 52/68/17 43/69/17 48/70/17 37/71/17
f 30/63/18 29/62/18 37/71/18 50/72/18 41/73/18 46/74/18 38/75/18
f 31/50/19 30/63/19 38/75/19 53/76/19 44/77/19 49/78/19 39/51/19
f 60/79/20 54/80/20 42/53/20 51/52/20
f 59/81/21 55/82/21 45/83/21 56/84/21
f 58/85/22 48/70/22 43/69/22 57/86/22
f 55/82/23 58/85/23 57/86/23 45/83/23
f 41/73/24 50/72/24 58/85/24 55/82/24
f 50/72/25 37/71/25 48/70/25 58/85/25
f 53/76/26 59/81/26 56/84/26 44/77/26
f 38/75/27 46/74/27 59/81/27 53/76/27
f 46/74/24 41/73/24 55/82/24 59/81/24
f 49/78/28 60/79/28 51/52/28 39/51/28
f 44/77/26 56/84/26 60/79/26 49/78/26
f 56/84/29 45/83/29 54/80/29 60/79/29
f 54/80/20 61/67/20 47/54/20 42/53/20
f 45/83/30 57/86/30 61/67/30 54/80/30
f 57/86/22 43/69/22 52/68/22 61/67/22
f 81/87/3 70/88/3 62/89/3 67/90/3
f 79/9/3 81/87/3 67/90/3 66/10/3
f 69/91/3 68/92/3 80/93/3 78/94/3
f 74/95/2 76/66/2 88/96/2 86/97/2
f 68/92/3 64/98/3 71/99/3 80/93/3
f 80/93/3 71/99/3 70/88/3 81/87/3
f 65/100/3 69/91/3 78/94/3 72/101/3
f 72/101/3 78/94/3 79/9/3 73/8/3
f 74/102/3 75/103/3 79/9/3 78/94/3
f 77/104/3 76/105/3 80/93/3 81/87/3
f 76/105/3 74/102/3 78/94/3 80/93/3
f 75/103/3 77/104/3 81/87/3 79/9/3
f 82/106/10 84/107/10 92/108/10 90/109/10
f 75/110/4 74/40/4 86/111/4 87/112/4
f 77/113/10 75/114/10 87/97/10 89/96/10
f 76/115/1 77/110/1 89/112/1 88/116/1
f 82/117/3 83/118/3 87/119/3 86/120/3
f 85/121/3 84/122/3 88/35/3 89/123/3
f 84/122/3 82/117/3 86/120/3 88/35/3
f 83/118/3 85/121/3 89/123/3 87/119/3
f 90/124/3 92/123/3 93/125/3 91/126/3
f 83/127/1 82/128/1 90/129/1 91/130/1
f 85/131/2 83/132/2 91/133/2 93/115/2
f 84/130/4 85/129/4 93/134/4 92/95/4
