# Blender 4.0.1
# www.blender.org
mtllib Computer.mtl
o Cube
v -0.500000 -0.500000 0.500000
v -0.500000 0.500000 0.500000
v -0.500000 -0.500000 -0.500000
v -0.500000 0.500000 -0.500000
v 0.500000 -0.500000 0.500000
v 0.500000 0.500000 0.500000
v 0.500000 -0.500000 -0.500000
v 0.500000 0.500000 -0.500000
v -0.463096 -0.400558 0.400558
v -0.500000 -0.443986 0.443986
v -0.500000 0.443986 0.443986
v -0.463096 0.400558 0.400558
v -0.500000 0.443986 -0.443986
v -0.463096 0.400558 -0.400558
v -0.463096 -0.400558 -0.400558
v -0.500000 -0.443986 -0.443986
v -0.400558 -0.400558 -0.451299
v -0.443986 -0.443986 -0.500000
v -0.443986 0.443986 -0.500000
v -0.400558 0.400558 -0.451299
v 0.443986 0.443986 -0.500000
v 0.400558 0.400558 -0.451299
v 0.400558 -0.400558 -0.451299
v 0.443986 -0.443986 -0.500000
v 0.457213 -0.400558 -0.400558
v 0.500000 -0.443986 -0.443986
v 0.500000 0.443986 -0.443986
v 0.457213 0.400558 -0.400558
v 0.500000 0.443986 0.443986
v 0.457213 0.400558 0.400558
v 0.457213 -0.400558 0.400558
v 0.500000 -0.443986 0.443986
v 0.400558 -0.400558 0.460243
v 0.443986 -0.443986 0.500000
v 0.443986 0.443986 0.500000
v 0.400558 0.400558 0.460243
v -0.443986 0.443986 0.500000
v -0.400558 0.400558 0.460243
v -0.400558 -0.400558 0.460243
v -0.443986 -0.443986 0.500000
v -0.400558 -0.442063 -0.400558
v -0.443986 -0.500000 -0.443986
v 0.443986 -0.500000 -0.443986
v 0.400558 -0.442063 -0.400558
v 0.443986 -0.500000 0.443986
v 0.400558 -0.442063 0.400558
v -0.400558 -0.442063 0.400558
v -0.443986 -0.500000 0.443986
v 0.400558 0.450050 -0.400558
v 0.443986 0.500000 -0.443986
v -0.443986 0.500000 -0.443986
v -0.400558 0.450050 -0.400558
v -0.443986 0.500000 0.443986
v -0.400558 0.450050 0.400558
v 0.400558 0.450050 0.400558
v 0.443986 0.500000 0.443986
v 0.331176 0.450050 -0.331176
v -0.331176 0.450050 -0.331176
v -0.331176 0.450050 0.331176
v 0.331176 0.450050 0.331176
v 0.331176 0.450050 -0.331176
v -0.331176 0.450050 -0.331176
v -0.331176 0.450050 0.331176
v 0.331176 0.450050 0.331176
v -0.331176 0.464936 -0.331176
v -0.322178 0.473934 -0.322178
v 0.322178 0.473934 -0.322178
v 0.331176 0.464936 -0.331176
v 0.322178 0.473934 0.322178
v 0.331176 0.464936 0.331176
v -0.331176 0.464936 0.331176
v -0.322178 0.473934 0.322178
vn -1.0000 -0.0000 -0.0000
vn -0.0000 -0.0000 -1.0000
vn 1.0000 -0.0000 -0.0000
vn -0.0000 -0.0000 1.0000
vn -0.0000 -1.0000 -0.0000
vn -0.0000 1.0000 -0.0000
vn -0.7620 -0.0000 -0.6476
vn -0.7620 0.6476 -0.0000
vn -0.7620 -0.6476 -0.0000
vn -0.7620 -0.0000 0.6476
vn 0.7464 -0.0000 -0.6655
vn -0.0000 0.7464 -0.6655
vn -0.0000 -0.7464 -0.6655
vn -0.7464 -0.0000 -0.6655
vn 0.7123 -0.0000 0.7018
vn 0.7123 0.7018 -0.0000
vn 0.7123 -0.7018 -0.0000
vn 0.7123 -0.0000 -0.7018
vn -0.6752 -0.0000 0.7376
vn -0.0000 0.6752 0.7376
vn -0.0000 -0.6752 0.7376
vn 0.6752 -0.0000 0.7376
vn -0.0000 -0.5998 0.8002
vn 0.8002 -0.5998 -0.0000
vn -0.8002 -0.5998 -0.0000
vn -0.0000 -0.5998 -0.8002
vn -0.0000 0.6561 0.7547
vn -0.7547 0.6561 -0.0000
vn 0.7547 0.6561 -0.0000
vn -0.0000 0.6561 -0.7547
vn -0.0000 0.7071 -0.7071
vn 0.7071 0.7071 -0.0000
vn -0.7071 0.7071 -0.0000
vn -0.0000 0.7071 0.7071
vt 0.375000 0.250000
vt 0.375000 0.000000
vt 0.389003 0.014004
vt 0.389004 0.235996
vt 0.375000 0.500000
vt 0.389003 0.264004
vt 0.389004 0.485996
vt 0.375000 0.750000
vt 0.389003 0.514004
vt 0.389004 0.735996
vt 0.375000 1.000000
vt 0.389003 0.764003
vt 0.389004 0.985996
vt 0.125000 0.750000
vt 0.125000 0.500000
vt 0.139004 0.514004
vt 0.139004 0.735996
vt 0.625000 0.750000
vt 0.625000 0.500000
vt 0.639004 0.514004
vt 0.639004 0.735996
vt 0.399860 0.024860
vt 0.600140 0.024860
vt 0.600140 0.225140
vt 0.399860 0.225140
vt 0.625000 0.250000
vt 0.389003 0.235996
vt 0.610996 0.235996
vt 0.610996 0.264004
vt 0.389004 0.264004
vt 0.625000 0.000000
vt 0.610996 0.014004
vt 0.399860 0.274860
vt 0.600140 0.274860
vt 0.600140 0.475140
vt 0.399860 0.475140
vt 0.389003 0.485996
vt 0.610996 0.485996
vt 0.610996 0.514004
vt 0.389004 0.514004
vt 0.399860 0.524860
vt 0.600140 0.524860
vt 0.600140 0.725139
vt 0.399860 0.725139
vt 0.389003 0.735996
vt 0.610996 0.735996
vt 0.610996 0.764003
vt 0.389004 0.764004
vt 0.610996 0.735996
vt 0.399860 0.774860
vt 0.600140 0.774860
vt 0.600140 0.975140
vt 0.399860 0.975139
vt 0.625000 1.000000
vt 0.389003 0.985996
vt 0.610996 0.985996
vt 0.360996 0.514004
vt 0.610996 0.764004
vt 0.149860 0.524860
vt 0.350140 0.524860
vt 0.350140 0.725139
vt 0.149860 0.725139
vt 0.139004 0.735996
vt 0.360996 0.735996
vt 0.875000 0.500000
vt 0.860996 0.514004
vt 0.360996 0.735996
vt 0.875000 0.750000
vt 0.639004 0.735996
vt 0.860996 0.735996
vt 0.860996 0.735996
vt 0.389004 0.014004
vt 0.610996 0.014004
vt 0.850140 0.524860
vt 0.649860 0.524860
vt 0.649860 0.725139
vt 0.850140 0.725139
vt 0.832794 0.542206
vt 0.667206 0.542206
vt 0.832794 0.707794
vt 0.667206 0.707794
vt 0.832794 0.707794
vt 0.832794 0.542206
vt 0.669455 0.544455
vt 0.830544 0.544456
vt 0.830544 0.705544
vt 0.669455 0.705544
vt 0.832794 0.707794
s 0
usemtl Material.001
f 3/1/1 1/2/1 10/3/1 16/4/1
f 7/5/2 3/1/2 18/6/2 24/7/2
f 5/8/3 7/5/3 26/9/3 32/10/3
f 1/11/4 5/8/4 34/12/4 40/13/4
f 1/14/5 3/15/5 42/16/5 48/17/5
f 6/18/6 8/19/6 50/20/6 56/21/6
f 9/22/1 12/23/1 14/24/1 15/25/1
f 4/26/1 3/1/1 16/27/1 13/28/1
f 3/1/2 4/26/2 19/29/2 18/30/2
f 2/31/1 4/26/1 13/28/1 11/32/1
f 17/33/2 20/34/2 22/35/2 23/36/2
f 8/19/2 7/5/2 24/37/2 21/38/2
f 7/5/3 8/19/3 27/39/3 26/40/3
f 4/26/2 8/19/2 21/38/2 19/29/2
f 25/41/3 28/42/3 30/43/3 31/44/3
f 6/18/3 5/8/3 32/45/3 29/46/3
f 5/8/4 6/18/4 35/47/4 34/48/4
f 8/19/3 6/18/3 29/49/3 27/39/3
f 33/50/4 36/51/4 38/52/4 39/53/4
f 2/54/4 1/11/4 40/55/4 37/56/4
f 3/15/5 7/5/5 43/57/5 42/16/5
f 6/18/4 2/54/4 37/56/4 35/58/4
f 41/59/5 44/60/5 46/61/5 47/62/5
f 5/8/5 1/14/5 48/63/5 45/64/5
f 8/19/6 4/65/6 51/66/6 50/20/6
f 7/5/5 5/8/5 45/67/5 43/57/5
f 2/68/6 6/18/6 56/69/6 53/70/6
f 4/65/6 2/68/6 53/71/6 51/66/6
f 10/72/7 11/73/7 12/23/7 9/22/7
f 16/4/8 10/3/8 9/22/8 15/25/8
f 11/32/9 13/28/9 14/24/9 12/23/9
f 13/28/10 16/27/10 15/25/10 14/24/10
f 20/34/11 17/33/11 18/30/11 19/29/11
f 24/7/12 18/6/12 17/33/12 23/36/12
f 19/29/13 21/38/13 22/35/13 20/34/13
f 21/38/14 24/37/14 23/36/14 22/35/14
f 28/42/15 25/41/15 26/40/15 27/39/15
f 32/10/16 26/9/16 25/41/16 31/44/16
f 27/39/17 29/49/17 30/43/17 28/42/17
f 29/46/18 32/45/18 31/44/18 30/43/18
f 36/51/19 33/50/19 34/48/19 35/47/19
f 40/13/20 34/12/20 33/50/20 39/53/20
f 35/58/21 37/56/21 38/52/21 36/51/21
f 39/53/22 38/52/22 37/56/22 40/55/22
f 44/60/23 41/59/23 42/16/23 43/57/23
f 41/59/24 47/62/24 48/17/24 42/16/24
f 46/61/25 44/60/25 43/57/25 45/67/25
f 47/62/26 46/61/26 45/64/26 48/63/26
f 52/74/27 49/75/27 50/20/27 51/66/27
f 49/75/28 55/76/28 56/21/28 50/20/28
f 54/77/29 52/74/29 51/66/29 53/71/29
f 55/76/30 54/77/30 53/70/30 56/69/30
f 1/2/1 2/31/1 11/73/1 10/72/1
f 49/75/6 52/74/6 58/78/6 57/79/6
f 52/74/6 54/77/6 59/80/6 58/78/6
f 54/77/6 55/76/6 60/81/6 59/80/6
f 55/76/6 49/75/6 57/79/6 60/81/6
f 61/79/5 64/81/5 63/80/5 62/78/5
f 62/78/1 63/80/1 71/82/1 65/83/1
f 64/81/3 61/79/3 68/79/3 70/81/3
f 67/84/6 66/85/6 72/86/6 69/87/6
f 63/80/4 64/81/4 70/81/4 71/88/4
f 66/85/31 67/84/31 68/79/31 65/83/31
f 67/84/32 69/87/32 70/81/32 68/79/32
f 72/86/33 66/85/33 65/83/33 71/82/33
f 69/87/34 72/86/34 71/88/34 70/81/34
f 61/79/2 62/78/2 65/83/2 68/79/2
