# Blender 4.0.2
# www.blender.org
o Cube
v 0.500000 0.500000 -0.500000
v 0.500000 -0.500000 -0.500000
v 0.500000 0.500000 0.500000
v 0.500000 -0.500000 0.500000
v -0.500000 0.500000 -0.500000
v -0.500000 -0.500000 -0.500000
v -0.500000 0.500000 0.500000
v -0.500000 -0.500000 0.500000
v 0.469634 0.500000 -0.469634
v -0.469634 0.500000 -0.469634
v -0.469634 0.500000 0.469634
v 0.469634 0.500000 0.469634
v 0.469634 -0.469634 0.500000
v 0.469634 0.469634 0.500000
v -0.469634 0.469634 0.500000
v -0.469634 -0.469634 0.500000
v -0.500000 -0.469634 0.469634
v -0.500000 0.469634 0.469634
v -0.500000 0.469634 -0.469634
v -0.500000 -0.469634 -0.469634
v -0.469634 -0.500000 -0.469634
v 0.469634 -0.500000 -0.469634
v 0.469634 -0.500000 0.469634
v -0.469634 -0.500000 0.469634
v 0.500000 -0.469634 -0.469634
v 0.500000 0.469634 -0.469634
v 0.500000 0.469634 0.469634
v 0.500000 -0.469634 0.469634
v -0.469634 -0.469634 -0.500000
v -0.469634 0.469634 -0.500000
v 0.469634 0.469634 -0.500000
v 0.469634 -0.469634 -0.500000
v -0.469634 0.478130 -0.469634
v 0.469634 0.478130 -0.469634
v 0.469634 0.478130 0.469634
v -0.469634 0.478130 0.469634
v 0.469634 0.469634 0.478130
v 0.469634 -0.469634 0.478130
v -0.469634 -0.469634 0.478130
v -0.469634 0.469634 0.478130
v -0.478130 -0.469634 0.469634
v -0.478130 0.469634 0.469634
v -0.478130 -0.469634 -0.469634
v -0.478130 0.469634 -0.469634
v 0.469634 -0.478130 -0.469634
v -0.469634 -0.478130 -0.469634
v -0.469634 -0.478130 0.469634
v 0.469634 -0.478130 0.469634
v 0.478130 0.469634 -0.469634
v 0.478130 -0.469634 -0.469634
v 0.478130 -0.469634 0.469634
v 0.478130 0.469634 0.469634
v -0.469634 0.469634 -0.478130
v -0.469634 -0.469634 -0.478130
v 0.469634 -0.469634 -0.478130
v 0.469634 0.469634 -0.478130
v 0.421199 0.478130 -0.421199
v -0.421199 0.478130 -0.421199
v -0.421199 0.478130 0.421199
v 0.421199 0.478130 0.421199
v 0.421199 -0.421199 0.478130
v 0.421199 0.421199 0.478130
v -0.421199 0.421199 0.478130
v -0.421199 -0.421199 0.478130
v -0.478130 -0.421199 0.421199
v -0.478130 0.421199 0.421199
v -0.478130 0.421199 -0.421199
v -0.478130 -0.421199 -0.421199
v -0.421199 -0.478130 -0.421199
v 0.421199 -0.478130 -0.421199
v 0.421199 -0.478130 0.421199
v -0.421199 -0.478130 0.421199
v 0.478130 -0.421199 -0.421199
v 0.478130 0.421199 -0.421199
v 0.478130 0.421199 0.421199
v 0.478130 -0.421199 0.421199
v -0.421199 -0.421199 -0.478130
v -0.421199 0.421199 -0.478130
v 0.421199 0.421199 -0.478130
v 0.421199 -0.421199 -0.478130
v -0.421199 0.497266 -0.421199
v 0.421199 0.497266 -0.421199
v 0.421199 0.497266 0.421199
v -0.421199 0.497266 0.421199
v 0.421199 0.421199 0.497266
v 0.421199 -0.421199 0.497266
v -0.421199 -0.421199 0.497266
v -0.421199 0.421199 0.497266
v -0.497266 -0.421199 0.421199
v -0.497266 0.421199 0.421199
v -0.497266 -0.421199 -0.421199
v -0.497266 0.421199 -0.421199
v 0.421199 -0.497266 -0.421199
v -0.421199 -0.497266 -0.421199
v -0.421199 -0.497266 0.421199
v 0.421199 -0.497266 0.421199
v 0.497266 0.421199 -0.421199
v 0.497266 -0.421199 -0.421199
v 0.497266 -0.421199 0.421199
v 0.497266 0.421199 0.421199
v -0.421199 0.421199 -0.497266
v -0.421199 -0.421199 -0.497266
v 0.421199 -0.421199 -0.497266
v 0.421199 0.421199 -0.497266
v 0.347912 0.497266 -0.347912
v -0.347912 0.497266 -0.347912
v -0.347912 0.497266 0.347912
v 0.347912 0.497266 0.347912
v 0.347912 -0.347912 0.497266
v 0.347912 0.347912 0.497266
v -0.347912 0.347912 0.497266
v -0.347912 -0.347912 0.497266
v -0.497266 -0.347912 0.347912
v -0.497266 0.347912 0.347912
v -0.497266 0.347912 -0.347912
v -0.497266 -0.347912 -0.347912
v -0.347912 -0.497266 -0.347912
v 0.347912 -0.497266 -0.347912
v 0.347912 -0.497266 0.347912
v -0.347912 -0.497266 0.347912
v 0.497266 -0.347912 -0.347912
v 0.497266 0.347912 -0.347912
v 0.497266 0.347912 0.347912
v 0.497266 -0.347912 0.347912
v -0.347912 -0.347912 -0.497266
v -0.347912 0.347912 -0.497266
v 0.347912 0.347912 -0.497266
v 0.347912 -0.347912 -0.497266
v 0.296619 0.452727 -0.296619
v -0.296619 0.452727 -0.296619
v -0.296619 0.452727 0.296619
v 0.296619 0.452727 0.296619
v 0.250422 -0.250422 0.452727
v 0.250422 0.250422 0.452727
v -0.250422 0.250422 0.452727
v -0.250422 -0.250422 0.452727
v -0.452727 -0.250422 0.250422
v -0.452727 0.250422 0.250422
v -0.452727 0.250422 -0.250422
v -0.452727 -0.250422 -0.250422
v -0.250422 -0.452727 -0.250422
v 0.250422 -0.452727 -0.250422
v 0.250422 -0.452727 0.250422
v -0.250422 -0.452727 0.250422
v 0.452727 -0.250422 -0.250422
v 0.452727 0.250422 -0.250422
v 0.452727 0.250422 0.250422
v 0.452727 -0.250422 0.250422
v -0.250422 -0.250422 -0.452727
v -0.250422 0.250422 -0.452727
v 0.250422 0.250422 -0.452727
v 0.250422 -0.250422 -0.452727
v 0.266501 0.452727 -0.266501
v -0.266501 0.452727 -0.266501
v -0.266501 0.452727 0.266501
v 0.266501 0.452727 0.266501
v 0.215171 0.483074 -0.215171
v -0.215171 0.483074 -0.215171
v -0.215171 0.483074 0.215171
v 0.215171 0.483074 0.215171
vn -0.0000 -0.0000 1.0000
vn -0.0000 1.0000 -0.0000
vn -0.0000 -0.0000 -1.0000
vn -1.0000 -0.0000 -0.0000
vn -0.0000 -1.0000 -0.0000
vn 1.0000 -0.0000 -0.0000
vn -0.0000 0.7551 0.6556
vn 0.6556 0.7551 -0.0000
vn -0.0000 0.7551 -0.6556
vn -0.6556 0.7551 -0.0000
vn -0.4155 -0.0000 0.9096
vn -0.0000 -0.4155 0.9096
vn 0.4155 -0.0000 0.9096
vn -0.0000 0.4155 0.9096
vn -0.9096 -0.0000 -0.4155
vn -0.9096 -0.4155 -0.0000
vn -0.9096 -0.0000 0.4155
vn -0.9096 0.4155 -0.0000
vn -0.0000 -0.9096 0.4155
vn -0.4155 -0.9096 -0.0000
vn -0.0000 -0.9096 -0.4155
vn 0.4155 -0.9096 -0.0000
vn 0.9096 -0.0000 0.4155
vn 0.9096 -0.4155 -0.0000
vn 0.9096 -0.0000 -0.4155
vn 0.9096 0.4155 -0.0000
vn 0.4155 -0.0000 -0.9096
vn -0.0000 -0.4155 -0.9096
vn -0.4155 -0.0000 -0.9096
vn -0.0000 0.4155 -0.9096
vn -0.0000 0.8608 -0.5089
vn -0.5089 0.8608 -0.0000
vn -0.0000 0.8608 0.5089
vn 0.5089 0.8608 -0.0000
vt 0.654647 0.002445
vt 0.654647 0.200605
vt 0.650032 0.200605
vt 0.650032 0.002445
vt 0.659536 0.200605
vt 0.659536 0.002445
vt 0.664150 0.002445
vt 0.664150 0.200605
vt 0.764077 0.200605
vt 0.764077 0.002445
vt 0.768692 0.002445
vt 0.768692 0.200605
vt 0.669040 0.200605
vt 0.669040 0.002445
vt 0.673654 0.002445
vt 0.673654 0.200605
vt 0.773581 0.200605
vt 0.773581 0.002445
vt 0.778195 0.002445
vt 0.778195 0.200605
vt 0.678544 0.200605
vt 0.678544 0.002445
vt 0.683158 0.002445
vt 0.683158 0.200605
vt 0.213418 0.213418
vt 0.002445 0.213418
vt 0.008851 0.207011
vt 0.207011 0.207011
vt 0.002445 0.002445
vt 0.008851 0.008851
vt 0.213418 0.002445
vt 0.207011 0.008851
vt 0.002445 0.429280
vt 0.002445 0.218307
vt 0.008851 0.224714
vt 0.008851 0.422874
vt 0.213418 0.218307
vt 0.207011 0.224714
vt 0.213418 0.429280
vt 0.207011 0.422874
vt 0.218307 0.213418
vt 0.218307 0.002445
vt 0.224714 0.008851
vt 0.224714 0.207011
vt 0.429280 0.002445
vt 0.422874 0.008851
vt 0.429280 0.213418
vt 0.422874 0.207011
vt 0.429280 0.429280
vt 0.218307 0.429280
vt 0.224714 0.422874
vt 0.422874 0.422874
vt 0.218307 0.218307
vt 0.224714 0.224714
vt 0.429280 0.218307
vt 0.422874 0.224714
vt 0.002445 0.645143
vt 0.002445 0.434170
vt 0.008851 0.440576
vt 0.008851 0.638736
vt 0.213418 0.434170
vt 0.207011 0.440576
vt 0.213418 0.645143
vt 0.207011 0.638736
vt 0.434170 0.213418
vt 0.434170 0.002445
vt 0.440576 0.008851
vt 0.440576 0.207011
vt 0.645143 0.002445
vt 0.638736 0.008851
vt 0.645143 0.213418
vt 0.638736 0.207011
vt 0.185057 0.827755
vt 0.185057 0.650032
vt 0.189095 0.650032
vt 0.189095 0.827755
vt 0.198021 0.650032
vt 0.198021 0.827755
vt 0.193984 0.827755
vt 0.193984 0.650032
vt 0.863741 0.611893
vt 0.863741 0.434170
vt 0.867778 0.434170
vt 0.867778 0.611893
vt 0.206948 0.650032
vt 0.206948 0.827755
vt 0.202911 0.827755
vt 0.202911 0.650032
vt 0.866888 0.180168
vt 0.866888 0.002445
vt 0.870925 0.002445
vt 0.870925 0.180168
vt 0.840997 0.434170
vt 0.840997 0.611893
vt 0.836960 0.611893
vt 0.836960 0.434170
vt 0.688048 0.200605
vt 0.688048 0.002445
vt 0.692662 0.002445
vt 0.692662 0.200605
vt 0.783085 0.200605
vt 0.783085 0.002445
vt 0.787699 0.002445
vt 0.787699 0.200605
vt 0.792589 0.200605
vt 0.792589 0.002445
vt 0.797203 0.002445
vt 0.797203 0.200605
vt 0.697551 0.200605
vt 0.697551 0.002445
vt 0.702165 0.002445
vt 0.702165 0.200605
vt 0.711669 0.002445
vt 0.711669 0.200605
vt 0.707055 0.200605
vt 0.707055 0.002445
vt 0.802092 0.200605
vt 0.802092 0.002445
vt 0.806707 0.002445
vt 0.806707 0.200605
vt 0.716559 0.200605
vt 0.716559 0.002445
vt 0.721173 0.002445
vt 0.721173 0.200605
vt 0.816210 0.002445
vt 0.816210 0.200605
vt 0.811596 0.200605
vt 0.811596 0.002445
vt 0.825714 0.002445
vt 0.825714 0.200605
vt 0.821100 0.200605
vt 0.821100 0.002445
vt 0.832070 0.434170
vt 0.832070 0.632330
vt 0.827456 0.632330
vt 0.827456 0.434170
vt 0.730677 0.002445
vt 0.730677 0.200605
vt 0.726063 0.200605
vt 0.726063 0.002445
vt 0.740180 0.002445
vt 0.740180 0.200605
vt 0.735566 0.200605
vt 0.735566 0.002445
vt 0.835218 0.002445
vt 0.835218 0.200605
vt 0.830604 0.200605
vt 0.830604 0.002445
vt 0.421357 0.835380
vt 0.421357 0.637220
vt 0.425971 0.637220
vt 0.425971 0.835380
vt 0.749684 0.002445
vt 0.749684 0.200605
vt 0.745070 0.200605
vt 0.745070 0.002445
vt 0.759188 0.002445
vt 0.759188 0.200605
vt 0.754574 0.200605
vt 0.754574 0.002445
vt 0.435475 0.637220
vt 0.435475 0.835380
vt 0.430861 0.835380
vt 0.430861 0.637220
vt 0.444979 0.637220
vt 0.444979 0.835380
vt 0.440365 0.835380
vt 0.440365 0.637220
vt 0.632330 0.416467
vt 0.434170 0.416467
vt 0.444388 0.406249
vt 0.622111 0.406249
vt 0.434170 0.218307
vt 0.444388 0.228526
vt 0.632330 0.218307
vt 0.622111 0.228526
vt 0.218307 0.632330
vt 0.218307 0.434170
vt 0.228526 0.444388
vt 0.228526 0.622111
vt 0.416467 0.434170
vt 0.406249 0.444388
vt 0.416467 0.632330
vt 0.406249 0.622111
vt 0.421357 0.632330
vt 0.421357 0.434170
vt 0.431576 0.444388
vt 0.431576 0.622111
vt 0.619517 0.434170
vt 0.609298 0.444388
vt 0.619517 0.632330
vt 0.609298 0.622111
vt 0.822567 0.632330
vt 0.624407 0.632330
vt 0.634625 0.622111
vt 0.812348 0.622111
vt 0.624407 0.434170
vt 0.634625 0.444388
vt 0.822567 0.434170
vt 0.812348 0.444388
vt 0.637220 0.416467
vt 0.637220 0.218307
vt 0.647438 0.228526
vt 0.647438 0.406249
vt 0.835380 0.218307
vt 0.825161 0.228526
vt 0.835380 0.416467
vt 0.825161 0.406249
vt 0.218307 0.835380
vt 0.218307 0.637220
vt 0.228526 0.647438
vt 0.228526 0.825161
vt 0.416467 0.637220
vt 0.406249 0.647438
vt 0.416467 0.835380
vt 0.406249 0.825161
vt 0.584125 0.771476
vt 0.493334 0.771476
vt 0.493334 0.680686
vt 0.584125 0.680686
vt 0.668510 0.778913
vt 0.668510 0.673249
vt 0.774175 0.673249
vt 0.774175 0.778913
vt 0.038474 0.791726
vt 0.038474 0.686062
vt 0.144139 0.686062
vt 0.144139 0.791726
vt 0.956787 0.778913
vt 0.851123 0.778913
vt 0.851123 0.673249
vt 0.956787 0.673249
vt 0.485898 0.961526
vt 0.485898 0.855861
vt 0.591562 0.855861
vt 0.591562 0.961526
vt 0.668510 0.961526
vt 0.668510 0.855861
vt 0.774175 0.855861
vt 0.774175 0.961526
vt 0.844145 0.002445
vt 0.844145 0.180168
vt 0.840108 0.180168
vt 0.840108 0.002445
vt 0.867050 0.396030
vt 0.867050 0.218307
vt 0.871087 0.218307
vt 0.871087 0.396030
vt 0.872668 0.611893
vt 0.872668 0.434170
vt 0.876705 0.434170
vt 0.876705 0.611893
vt 0.844306 0.218307
vt 0.844306 0.396030
vt 0.840269 0.396030
vt 0.840269 0.218307
vt 0.845887 0.611893
vt 0.845887 0.434170
vt 0.849924 0.434170
vt 0.849924 0.611893
vt 0.875815 0.180168
vt 0.875815 0.002445
vt 0.879852 0.002445
vt 0.879852 0.180168
vt 0.853072 0.002445
vt 0.853072 0.180168
vt 0.849034 0.180168
vt 0.849034 0.002445
vt 0.880014 0.218307
vt 0.880014 0.396030
vt 0.875977 0.396030
vt 0.875977 0.218307
vt 0.885632 0.434170
vt 0.885632 0.611893
vt 0.881594 0.611893
vt 0.881594 0.434170
vt 0.888779 0.002445
vt 0.888779 0.180168
vt 0.884742 0.180168
vt 0.884742 0.002445
vt 0.849196 0.396030
vt 0.849196 0.218307
vt 0.853233 0.218307
vt 0.853233 0.396030
vt 0.854814 0.611893
vt 0.854814 0.434170
vt 0.858851 0.434170
vt 0.858851 0.611893
vt 0.888940 0.218307
vt 0.888940 0.396030
vt 0.884903 0.396030
vt 0.884903 0.218307
vt 0.890521 0.611893
vt 0.890521 0.434170
vt 0.894558 0.434170
vt 0.894558 0.611893
vt 0.857961 0.180168
vt 0.857961 0.002445
vt 0.861998 0.002445
vt 0.861998 0.180168
vt 0.858123 0.396030
vt 0.858123 0.218307
vt 0.862160 0.218307
vt 0.862160 0.396030
vt 0.897706 0.002445
vt 0.897706 0.180168
vt 0.893669 0.180168
vt 0.893669 0.002445
vt 0.897867 0.218307
vt 0.897867 0.396030
vt 0.893830 0.396030
vt 0.893830 0.218307
vt 0.627591 0.814942
vt 0.449868 0.814942
vt 0.465330 0.799481
vt 0.612130 0.799481
vt 0.449868 0.637220
vt 0.465330 0.652681
vt 0.627591 0.637220
vt 0.612130 0.652681
vt 0.632481 0.814942
vt 0.632481 0.637220
vt 0.647942 0.652681
vt 0.647942 0.799481
vt 0.810204 0.637220
vt 0.794742 0.652681
vt 0.810204 0.814942
vt 0.794742 0.799481
vt 0.002445 0.827755
vt 0.002445 0.650032
vt 0.017906 0.665494
vt 0.017906 0.812294
vt 0.180168 0.650032
vt 0.164706 0.665494
vt 0.180168 0.827755
vt 0.164706 0.812294
vt 0.992816 0.814942
vt 0.815093 0.814942
vt 0.830555 0.799481
vt 0.977355 0.799481
vt 0.815093 0.637220
vt 0.830555 0.652681
vt 0.992816 0.637220
vt 0.977355 0.652681
vt 0.449868 0.997555
vt 0.449868 0.819832
vt 0.465330 0.835294
vt 0.465330 0.982094
vt 0.627591 0.819832
vt 0.612130 0.835294
vt 0.627591 0.997555
vt 0.612130 0.982094
vt 0.632481 0.997555
vt 0.632481 0.819832
vt 0.647942 0.835294
vt 0.647942 0.982094
vt 0.810204 0.819832
vt 0.794742 0.835294
vt 0.810204 0.997555
vt 0.794742 0.982094
vt 0.476151 0.788660
vt 0.601308 0.788660
vt 0.476151 0.663503
vt 0.601308 0.663503
vt 0.482505 0.782306
vt 0.594954 0.782306
vt 0.482505 0.669856
vt 0.594954 0.669856
s 0
usemtl Material
f 21/1/1 22/2/1 45/3/1 46/4/1
f 16/5/2 13/6/2 38/7/2 39/8/2
f 17/9/3 18/10/3 42/11/3 41/12/3
f 12/13/4 9/14/4 34/15/4 35/16/4
f 13/17/4 14/18/4 37/19/4 38/20/4
f 9/21/1 10/22/1 33/23/1 34/24/1
f 1/25/2 5/26/2 10/27/2 9/28/2
f 5/26/2 7/29/2 11/30/2 10/27/2
f 7/29/2 3/31/2 12/32/2 11/30/2
f 3/31/2 1/25/2 9/28/2 12/32/2
f 4/33/1 3/34/1 14/35/1 13/36/1
f 3/34/1 7/37/1 15/38/1 14/35/1
f 7/37/1 8/39/1 16/40/1 15/38/1
f 8/39/1 4/33/1 13/36/1 16/40/1
f 8/41/4 7/42/4 18/43/4 17/44/4
f 7/42/4 5/45/4 19/46/4 18/43/4
f 5/45/4 6/47/4 20/48/4 19/46/4
f 6/47/4 8/41/4 17/44/4 20/48/4
f 6/49/5 2/50/5 22/51/5 21/52/5
f 2/50/5 4/53/5 23/54/5 22/51/5
f 4/53/5 8/55/5 24/56/5 23/54/5
f 8/55/5 6/49/5 21/52/5 24/56/5
f 2/57/6 1/58/6 26/59/6 25/60/6
f 1/58/6 3/61/6 27/62/6 26/59/6
f 3/61/6 4/63/6 28/64/6 27/62/6
f 4/63/6 2/57/6 25/60/6 28/64/6
f 6/65/3 5/66/3 30/67/3 29/68/3
f 5/66/3 1/69/3 31/70/3 30/67/3
f 1/69/3 2/71/3 32/72/3 31/70/3
f 2/71/3 6/65/3 29/68/3 32/72/3
f 69/73/3 70/74/3 93/75/3 94/76/3
f 64/77/5 61/78/5 86/79/5 87/80/5
f 65/81/1 66/82/1 90/83/1 89/84/1
f 60/85/6 57/86/6 82/87/6 83/88/6
f 61/89/6 62/90/6 85/91/6 86/92/6
f 57/93/3 58/94/3 81/95/3 82/96/3
f 10/97/6 11/98/6 36/99/6 33/100/6
f 20/101/2 17/102/2 41/103/2 43/104/2
f 25/105/1 26/106/1 49/107/1 50/108/1
f 14/109/5 15/110/5 40/111/5 37/112/5
f 24/113/6 21/114/6 46/115/6 47/116/6
f 29/117/6 30/118/6 53/119/6 54/120/6
f 11/121/3 12/122/3 35/123/3 36/124/3
f 18/125/5 19/126/5 44/127/5 42/128/5
f 28/129/2 25/130/2 50/131/2 51/132/2
f 15/133/6 16/134/6 39/135/6 40/136/6
f 22/137/4 23/138/4 48/139/4 45/140/4
f 32/141/2 29/142/2 54/143/2 55/144/2
f 19/145/1 20/146/1 43/147/1 44/148/1
f 26/149/5 27/150/5 52/151/5 49/152/5
f 23/153/3 24/154/3 47/155/3 48/156/3
f 30/157/5 31/158/5 56/159/5 53/160/5
f 27/161/3 28/162/3 51/163/3 52/164/3
f 31/165/4 32/166/4 55/167/4 56/168/4
f 34/169/2 33/170/2 58/171/2 57/172/2
f 33/170/2 36/173/2 59/174/2 58/171/2
f 36/173/2 35/175/2 60/176/2 59/174/2
f 35/175/2 34/169/2 57/172/2 60/176/2
f 38/177/1 37/178/1 62/179/1 61/180/1
f 37/178/1 40/181/1 63/182/1 62/179/1
f 40/181/1 39/183/1 64/184/1 63/182/1
f 39/183/1 38/177/1 61/180/1 64/184/1
f 41/185/4 42/186/4 66/187/4 65/188/4
f 42/186/4 44/189/4 67/190/4 66/187/4
f 44/189/4 43/191/4 68/192/4 67/190/4
f 43/191/4 41/185/4 65/188/4 68/192/4
f 46/193/5 45/194/5 70/195/5 69/196/5
f 45/194/5 48/197/5 71/198/5 70/195/5
f 48/197/5 47/199/5 72/200/5 71/198/5
f 47/199/5 46/193/5 69/196/5 72/200/5
f 50/201/6 49/202/6 74/203/6 73/204/6
f 49/202/6 52/205/6 75/206/6 74/203/6
f 52/205/6 51/207/6 76/208/6 75/206/6
f 51/207/6 50/201/6 73/204/6 76/208/6
f 54/209/3 53/210/3 78/211/3 77/212/3
f 53/210/3 56/213/3 79/214/3 78/211/3
f 56/213/3 55/215/3 80/216/3 79/214/3
f 55/215/3 54/209/3 77/212/3 80/216/3
f 157/217/2 158/218/2 159/219/2 160/220/2
f 133/221/1 134/222/1 135/223/1 136/224/1
f 137/225/4 138/226/4 139/227/4 140/228/4
f 141/229/5 142/230/5 143/231/5 144/232/5
f 145/233/6 146/234/6 147/235/6 148/236/6
f 149/237/3 150/238/3 151/239/3 152/240/3
f 58/241/4 59/242/4 84/243/4 81/244/4
f 68/245/5 65/246/5 89/247/5 91/248/5
f 73/249/3 74/250/3 97/251/3 98/252/3
f 62/253/2 63/254/2 88/255/2 85/256/2
f 72/257/4 69/258/4 94/259/4 95/260/4
f 77/261/4 78/262/4 101/263/4 102/264/4
f 59/265/1 60/266/1 83/267/1 84/268/1
f 66/269/2 67/270/2 92/271/2 90/272/2
f 76/273/5 73/274/5 98/275/5 99/276/5
f 63/277/4 64/278/4 87/279/4 88/280/4
f 70/281/6 71/282/6 96/283/6 93/284/6
f 80/285/5 77/286/5 102/287/5 103/288/5
f 67/289/3 68/290/3 91/291/3 92/292/3
f 74/293/2 75/294/2 100/295/2 97/296/2
f 71/297/1 72/298/1 95/299/1 96/300/1
f 78/301/2 79/302/2 104/303/2 101/304/2
f 75/305/1 76/306/1 99/307/1 100/308/1
f 79/309/6 80/310/6 103/311/6 104/312/6
f 82/313/2 81/314/2 106/315/2 105/316/2
f 81/314/2 84/317/2 107/318/2 106/315/2
f 84/317/2 83/319/2 108/320/2 107/318/2
f 83/319/2 82/313/2 105/316/2 108/320/2
f 86/321/1 85/322/1 110/323/1 109/324/1
f 85/322/1 88/325/1 111/326/1 110/323/1
f 88/325/1 87/327/1 112/328/1 111/326/1
f 87/327/1 86/321/1 109/324/1 112/328/1
f 89/329/4 90/330/4 114/331/4 113/332/4
f 90/330/4 92/333/4 115/334/4 114/331/4
f 92/333/4 91/335/4 116/336/4 115/334/4
f 91/335/4 89/329/4 113/332/4 116/336/4
f 94/337/5 93/338/5 118/339/5 117/340/5
f 93/338/5 96/341/5 119/342/5 118/339/5
f 96/341/5 95/343/5 120/344/5 119/342/5
f 95/343/5 94/337/5 117/340/5 120/344/5
f 98/345/6 97/346/6 122/347/6 121/348/6
f 97/346/6 100/349/6 123/350/6 122/347/6
f 100/349/6 99/351/6 124/352/6 123/350/6
f 99/351/6 98/345/6 121/348/6 124/352/6
f 102/353/3 101/354/3 126/355/3 125/356/3
f 101/354/3 104/357/3 127/358/3 126/355/3
f 104/357/3 103/359/3 128/360/3 127/358/3
f 103/359/3 102/353/3 125/356/3 128/360/3
f 105/316/7 106/315/7 130/361/7 129/362/7
f 106/315/8 107/318/8 131/363/8 130/361/8
f 107/318/9 108/320/9 132/364/9 131/363/9
f 108/320/10 105/316/10 129/362/10 132/364/10
f 109/324/11 110/323/11 134/222/11 133/221/11
f 110/323/12 111/326/12 135/223/12 134/222/12
f 111/326/13 112/328/13 136/224/13 135/223/13
f 112/328/14 109/324/14 133/221/14 136/224/14
f 113/332/15 114/331/15 138/226/15 137/225/15
f 114/331/16 115/334/16 139/227/16 138/226/16
f 115/334/17 116/336/17 140/228/17 139/227/17
f 116/336/18 113/332/18 137/225/18 140/228/18
f 117/340/19 118/339/19 142/230/19 141/229/19
f 118/339/20 119/342/20 143/231/20 142/230/20
f 119/342/21 120/344/21 144/232/21 143/231/21
f 120/344/22 117/340/22 141/229/22 144/232/22
f 121/348/23 122/347/23 146/234/23 145/233/23
f 122/347/24 123/350/24 147/235/24 146/234/24
f 123/350/25 124/352/25 148/236/25 147/235/25
f 124/352/26 121/348/26 145/233/26 148/236/26
f 125/356/27 126/355/27 150/238/27 149/237/27
f 126/355/28 127/358/28 151/239/28 150/238/28
f 127/358/29 128/360/29 152/240/29 151/239/29
f 128/360/30 125/356/30 149/237/30 152/240/30
f 129/362/2 130/361/2 154/365/2 153/366/2
f 130/361/2 131/363/2 155/367/2 154/365/2
f 131/363/2 132/364/2 156/368/2 155/367/2
f 132/364/2 129/362/2 153/366/2 156/368/2
f 153/366/31 154/365/31 158/218/31 157/217/31
f 154/365/32 155/367/32 159/219/32 158/218/32
f 155/367/33 156/368/33 160/220/33 159/219/33
f 156/368/34 153/366/34 157/217/34 160/220/34
