# Blender 4.0.2
# www.blender.org
mtllib Configurator.mtl
o Cube
v 0.500000 0.500000 -0.500000
v 0.500000 -0.500000 -0.500000
v 0.500000 0.500000 0.500000
v 0.500000 -0.500000 0.500000
v -0.500000 0.500000 -0.500000
v -0.500000 -0.500000 -0.500000
v -0.500000 0.500000 0.500000
v -0.500000 -0.500000 0.500000
v 0.381812 0.500000 -0.381812
v -0.381812 0.500000 -0.381812
v -0.381812 0.500000 0.381812
v 0.381812 0.500000 0.381812
v 0.381812 -0.381812 0.500000
v 0.381812 0.381812 0.500000
v -0.381812 0.381812 0.500000
v -0.381812 -0.381812 0.500000
v -0.500000 -0.381812 0.381812
v -0.500000 0.381812 0.381812
v -0.500000 0.381812 -0.381812
v -0.500000 -0.381812 -0.381812
v -0.381812 -0.500000 -0.381812
v 0.381812 -0.500000 -0.381812
v 0.381812 -0.500000 0.381812
v -0.381812 -0.500000 0.381812
v 0.500000 -0.381812 -0.381812
v 0.500000 0.381812 -0.381812
v 0.500000 0.381812 0.381812
v 0.500000 -0.381812 0.381812
v -0.381812 -0.381812 -0.500000
v -0.381812 0.381812 -0.500000
v 0.381812 0.381812 -0.500000
v 0.381812 -0.381812 -0.500000
v -0.381812 0.471492 -0.381812
v -0.362779 0.452459 -0.362779
v 0.362779 0.452459 -0.362779
v 0.381812 0.471492 -0.381812
v 0.362779 0.452459 0.362779
v 0.381812 0.471492 0.381812
v -0.381812 0.471492 0.381812
v -0.362779 0.452459 0.362779
v 0.381812 0.381812 0.471492
v 0.362779 0.362779 0.452459
v 0.362779 -0.362779 0.452459
v 0.381812 -0.381812 0.471492
v -0.362779 -0.362779 0.452459
v -0.381812 -0.381812 0.471492
v -0.381812 0.381812 0.471492
v -0.362779 0.362779 0.452459
v -0.452459 -0.362779 0.362779
v -0.471492 -0.381812 0.381812
v -0.471492 0.381812 0.381812
v -0.452459 0.362779 0.362779
v -0.452459 -0.362779 -0.362779
v -0.471492 -0.381812 -0.381812
v -0.471492 0.381812 -0.381812
v -0.452459 0.362779 -0.362779
v 0.381812 -0.471492 -0.381812
v 0.362779 -0.452459 -0.362779
v -0.362779 -0.452459 -0.362779
v -0.381812 -0.471492 -0.381812
v -0.362779 -0.452459 0.362779
v -0.381812 -0.471492 0.381812
v 0.381812 -0.471492 0.381812
v 0.362779 -0.452459 0.362779
v 0.471492 0.381812 -0.381812
v 0.452459 0.362779 -0.362779
v 0.452459 -0.362779 -0.362779
v 0.471492 -0.381812 -0.381812
v 0.452459 -0.362779 0.362779
v 0.471492 -0.381812 0.381812
v 0.471492 0.381812 0.381812
v 0.452459 0.362779 0.362779
v -0.381812 0.381812 -0.471492
v -0.362779 0.362779 -0.452459
v -0.362779 -0.362779 -0.452459
v -0.381812 -0.381812 -0.471492
v 0.362779 -0.362779 -0.452459
v 0.381812 -0.381812 -0.471492
v 0.381812 0.381812 -0.471492
v 0.362779 0.362779 -0.452459
vn -1.0000 -0.0000 -0.0000
vn 1.0000 -0.0000 -0.0000
vn -0.0000 -1.0000 -0.0000
vn -0.0000 -0.0000 -1.0000
vn -0.0000 1.0000 -0.0000
vn -0.0000 -0.0000 1.0000
vn -0.0000 0.7071 0.7071
vn -0.7071 0.7071 -0.0000
vn 0.7071 0.7071 -0.0000
vn -0.0000 0.7071 -0.7071
vn -0.7071 -0.0000 0.7071
vn -0.0000 -0.7071 0.7071
vn 0.7071 -0.0000 0.7071
vn -0.7071 -0.0000 -0.7071
vn -0.7071 -0.7071 -0.0000
vn 0.7071 -0.7071 -0.0000
vn -0.0000 -0.7071 -0.7071
vn 0.7071 -0.0000 -0.7071
vt 0.654547 0.720453
vt 0.654547 0.529547
vt 0.154547 0.720453
vt 0.154547 0.529547
vt 0.595453 0.970453
vt 0.404547 0.970453
vt 0.404547 0.970453
vt 0.595453 0.029547
vt 0.595453 0.220453
vt 0.595453 0.220453
vt 0.595453 0.029547
vt 0.845453 0.720453
vt 0.404547 0.779547
vt 0.625000 0.500000
vt 0.875000 0.500000
vt 0.845453 0.529547
vt 0.875000 0.750000
vt 0.625000 0.750000
vt 0.375000 0.750000
vt 0.595453 0.779547
vt 0.625000 1.000000
vt 0.375000 1.000000
vt 0.375000 0.000000
vt 0.625000 0.000000
vt 0.404547 0.029547
vt 0.625000 0.250000
vt 0.375000 0.250000
vt 0.404547 0.220453
vt 0.125000 0.500000
vt 0.375000 0.500000
vt 0.345453 0.529547
vt 0.345453 0.720453
vt 0.125000 0.750000
vt 0.595453 0.529547
vt 0.404547 0.529547
vt 0.595453 0.720453
vt 0.404547 0.720453
vt 0.595453 0.279547
vt 0.404547 0.279547
vt 0.595453 0.470453
vt 0.404547 0.470453
vt 0.845453 0.529547
vt 0.595453 0.779547
vt 0.345453 0.529547
vt 0.595453 0.529547
vt 0.595453 0.279547
vt 0.409305 0.534305
vt 0.590695 0.534305
vt 0.590695 0.715695
vt 0.409305 0.715695
vt 0.345453 0.720453
vt 0.409305 0.284305
vt 0.590695 0.284305
vt 0.590695 0.465695
vt 0.409305 0.465695
vt 0.409305 0.784305
vt 0.590695 0.784305
vt 0.590695 0.965695
vt 0.409305 0.965695
vt 0.409305 0.034305
vt 0.590695 0.034305
vt 0.590695 0.215695
vt 0.409305 0.215695
vt 0.159305 0.534305
vt 0.340695 0.534305
vt 0.340695 0.715695
vt 0.159305 0.715695
vt 0.659305 0.534305
vt 0.840695 0.534305
vt 0.840695 0.715695
vt 0.659305 0.715695
s 0
usemtl Material
f 12/1/1 9/2/1 36/2/1 38/1/1
f 24/3/2 21/4/2 60/4/2 62/3/2
f 15/5/2 16/6/2 46/7/2 47/5/2
f 18/8/3 19/9/3 55/10/3 51/11/3
f 11/12/4 12/1/4 38/1/4 39/12/4
f 16/6/5 13/13/5 44/13/5 46/7/5
f 1/14/5 5/15/5 10/16/5 9/2/5
f 5/15/5 7/17/5 11/12/5 10/16/5
f 7/17/5 3/18/5 12/1/5 11/12/5
f 3/18/5 1/14/5 9/2/5 12/1/5
f 4/19/6 3/18/6 14/20/6 13/13/6
f 3/18/6 7/21/6 15/5/6 14/20/6
f 7/21/6 8/22/6 16/6/6 15/5/6
f 8/22/6 4/19/6 13/13/6 16/6/6
f 8/23/1 7/24/1 18/8/1 17/25/1
f 7/24/1 5/26/1 19/9/1 18/8/1
f 5/26/1 6/27/1 20/28/1 19/9/1
f 6/27/1 8/23/1 17/25/1 20/28/1
f 6/29/3 2/30/3 22/31/3 21/4/3
f 2/30/3 4/19/3 23/32/3 22/31/3
f 4/19/3 8/33/3 24/3/3 23/32/3
f 8/33/3 6/29/3 21/4/3 24/3/3
f 2/30/2 1/14/2 26/34/2 25/35/2
f 1/14/2 3/18/2 27/36/2 26/34/2
f 3/18/2 4/19/2 28/37/2 27/36/2
f 4/19/2 2/30/2 25/35/2 28/37/2
f 6/27/4 5/26/4 30/38/4 29/39/4
f 5/26/4 1/14/4 31/40/4 30/38/4
f 1/14/4 2/30/4 32/41/4 31/40/4
f 2/30/4 6/27/4 29/39/4 32/41/4
f 10/16/2 11/12/2 39/12/2 33/42/2
f 14/20/3 15/5/3 47/5/3 41/43/3
f 20/28/5 17/25/5 50/25/5 54/28/5
f 22/31/1 23/32/1 63/32/1 57/44/1
f 26/34/3 27/36/3 71/36/3 65/45/3
f 30/38/3 31/40/3 79/40/3 73/46/3
f 17/25/4 18/8/4 51/8/4 50/25/4
f 67/47/2 66/48/2 72/49/2 69/50/2
f 13/13/1 14/20/1 41/20/1 44/13/1
f 23/32/4 24/3/4 62/3/4 63/51/4
f 75/52/4 74/53/4 80/54/4 77/55/4
f 43/56/6 42/57/6 48/58/6 45/59/6
f 19/9/6 20/28/6 54/28/6 55/9/6
f 27/36/4 28/37/4 70/37/4 71/36/4
f 49/60/1 52/61/1 56/62/1 53/63/1
f 21/4/6 22/31/6 57/31/6 60/4/6
f 31/40/1 32/41/1 78/41/1 79/40/1
f 59/64/3 58/65/3 64/66/3 61/67/3
f 28/37/5 25/35/5 68/35/5 70/37/5
f 25/35/6 26/34/6 65/34/6 68/35/6
f 32/41/5 29/39/5 76/39/5 78/41/5
f 29/39/2 30/38/2 73/38/2 76/39/2
f 35/68/5 34/69/5 40/70/5 37/71/5
f 34/69/7 35/68/7 36/2/7 33/16/7
f 35/68/8 37/71/8 38/1/8 36/2/8
f 40/70/9 34/69/9 33/42/9 39/12/9
f 37/71/10 40/70/10 39/12/10 38/1/10
f 42/57/11 43/56/11 44/13/11 41/20/11
f 46/7/7 44/13/7 43/56/7 45/59/7
f 41/43/12 47/5/12 48/58/12 42/57/12
f 45/59/13 48/58/13 47/5/13 46/7/13
f 50/25/14 51/8/14 52/61/14 49/60/14
f 54/28/8 50/25/8 49/60/8 53/63/8
f 51/11/15 55/10/15 56/62/15 52/61/15
f 55/9/11 54/28/11 53/63/11 56/62/11
f 58/65/12 59/64/12 60/4/12 57/31/12
f 59/64/16 61/67/16 62/3/16 60/4/16
f 64/66/15 58/65/15 57/44/15 63/32/15
f 61/67/17 64/66/17 63/51/17 62/3/17
f 66/48/13 67/47/13 68/35/13 65/34/13
f 70/37/9 68/35/9 67/47/9 69/50/9
f 65/45/16 71/36/16 72/49/16 66/48/16
f 71/36/18 70/37/18 69/50/18 72/49/18
f 74/53/18 75/52/18 76/39/18 73/38/18
f 78/41/10 76/39/10 75/52/10 77/55/10
f 73/46/17 79/40/17 80/54/17 74/53/17
f 79/40/14 78/41/14 77/55/14 80/54/14
f 9/2/6 10/16/6 33/16/6 36/2/6
