# Blender 4.0.2
# www.blender.org
o Cylinder
v -0.230950 -0.325963 0.304618
v -0.229545 -0.326229 0.305945
v -0.231541 -0.325866 0.302806
v -0.227704 -0.326591 0.306430
v -0.220455 -0.326229 0.305945
v -0.219050 -0.325963 0.304618
v -0.222296 -0.326591 0.306430
v -0.218459 -0.325866 0.302806
v -0.229545 -0.348528 0.305945
v -0.230950 -0.348793 0.304618
v -0.227704 -0.348165 0.306430
v -0.231541 -0.348890 0.302806
v -0.219050 -0.348793 0.304618
v -0.220455 -0.348528 0.305945
v -0.218459 -0.348890 0.302806
v -0.222296 -0.348165 0.306430
v -0.274314 -0.315160 -0.243991
v -0.175686 -0.315160 -0.243991
v -0.274314 -0.359596 -0.243991
v -0.175686 -0.359596 -0.243991
v -0.274314 -0.315160 -0.324314
v -0.263361 -0.325866 -0.243991
v -0.175686 -0.315160 -0.324314
v -0.186639 -0.325866 -0.243991
v -0.300000 -0.359596 -0.350000
v -0.300000 -0.359596 0.350000
v -0.150000 -0.359596 -0.350000
v -0.150000 -0.359596 0.350000
v -0.030000 -0.300000 -0.005833
v -0.030000 -0.300000 0.350000
v 0.030000 -0.300000 0.350000
v -0.150000 -0.300000 -0.350000
v -0.150000 -0.300000 0.005833
v 0.267413 -0.300000 0.005833
v 0.328379 -0.300000 -0.002917
v 0.328379 -0.300000 -0.175000
v 0.090966 -0.300000 -0.350000
v 0.090966 -0.300000 0.350000
v 0.150966 -0.300000 0.350000
v 0.030000 -0.300000 -0.350000
v -0.030000 -0.300000 -0.350000
v -0.300000 -0.300000 -0.350000
v -0.150000 -0.300000 0.350000
v -0.300000 -0.300000 0.350000
v 0.388379 -0.300000 0.175000
v 0.328379 -0.300000 0.175000
v 0.267413 -0.300000 0.236167
v 0.267413 -0.300000 0.350000
v 0.207413 -0.300000 0.350000
v 0.388379 -0.300000 -0.175000
v 0.267413 -0.300000 -0.350000
v 0.150966 -0.300000 -0.350000
v 0.207413 -0.300000 -0.350000
v -0.097545 -0.500000 -0.490393
v -0.097545 -0.300000 -0.490393
v -0.191342 -0.500000 -0.461940
v -0.191342 -0.300000 -0.461940
v -0.277785 -0.500000 -0.415735
v -0.277785 -0.300000 -0.415735
v -0.353553 -0.500000 -0.353553
v -0.353553 -0.300000 -0.353553
v -0.415735 -0.500000 -0.277785
v -0.415735 -0.300000 -0.277785
v -0.461940 -0.500000 -0.191342
v -0.461940 -0.300000 -0.191342
v -0.490393 -0.500000 -0.097545
v -0.490393 -0.300000 -0.097545
v -0.500000 -0.500000 0.000000
v -0.500000 -0.300000 0.000000
v -0.490393 -0.500000 0.097545
v -0.490393 -0.300000 0.097545
v -0.461940 -0.500000 0.191342
v -0.461940 -0.300000 0.191342
v -0.415735 -0.500000 0.277785
v -0.415735 -0.300000 0.277785
v -0.353553 -0.500000 0.353553
v -0.353553 -0.300000 0.353553
v -0.277785 -0.500000 0.415735
v 0.207413 -0.359596 -0.350000
v -0.277785 -0.300000 0.415735
v 0.207413 -0.359596 0.350000
v -0.191342 -0.500000 0.461940
v -0.191342 -0.300000 0.461940
v 0.267413 -0.359596 -0.350000
v -0.097545 -0.500000 0.490393
v -0.097545 -0.300000 0.490393
v 0.267413 -0.359596 0.350000
v 0.000000 -0.500000 0.500000
v 0.000000 -0.300000 0.500000
v 0.097545 -0.500000 0.490393
v 0.328379 -0.359596 -0.175000
v 0.097545 -0.300000 0.490393
v 0.191342 -0.500000 0.461940
v 0.328379 -0.359596 0.175000
v 0.191342 -0.300000 0.461940
v 0.388379 -0.359596 -0.175000
v 0.277785 -0.500000 0.415735
v 0.277785 -0.300000 0.415735
v 0.353553 -0.500000 0.353553
v 0.388379 -0.359596 0.175000
v 0.353553 -0.300000 0.353553
v 0.415735 -0.500000 0.277785
v 0.090966 -0.359596 -0.350000
v 0.415735 -0.300000 0.277785
v 0.461940 -0.500000 0.191342
v 0.090966 -0.359596 0.350000
v 0.461940 -0.300000 0.191342
v 0.150966 -0.359596 -0.350000
v 0.490393 -0.500000 0.097545
v 0.490393 -0.300000 0.097545
v 0.150966 -0.359596 0.350000
v 0.500000 -0.500000 0.000000
v 0.500000 -0.300000 0.000000
v -0.030000 -0.359596 -0.350000
v 0.490393 -0.500000 -0.097545
v 0.490393 -0.300000 -0.097545
v -0.030000 -0.359596 0.350000
v 0.461940 -0.500000 -0.191342
v 0.461940 -0.300000 -0.191342
v 0.030000 -0.359596 -0.350000
v 0.415735 -0.500000 -0.277785
v 0.415735 -0.300000 -0.277785
v 0.030000 -0.359596 0.350000
v 0.353553 -0.500000 -0.353553
v 0.353553 -0.300000 -0.353553
v -0.274314 -0.359596 -0.324314
v 0.277785 -0.500000 -0.415735
v 0.277785 -0.300000 -0.415735
v -0.263361 -0.348890 -0.243991
v 0.191342 -0.500000 -0.461940
v 0.191342 -0.300000 -0.461940
v -0.175686 -0.359596 -0.324314
v 0.097545 -0.500000 -0.490393
v 0.097545 -0.300000 -0.490393
v -0.186639 -0.348890 -0.243991
v 0.000000 -0.500000 -0.500000
v 0.000000 -0.300000 -0.500000
vn -0.0000 -1.0000 -0.0000
vn 0.2549 -0.0000 0.9670
vn 0.6865 -0.0000 0.7271
vn 0.9507 -0.0000 0.3103
vn -0.2549 -0.0000 0.9670
vn -0.6865 -0.0000 0.7271
vn -0.9507 -0.0000 0.3103
vn -0.0000 0.9986 0.0536
vn -0.0000 0.9805 0.1963
vn -0.0000 0.8012 0.5985
vn -0.0000 -0.8012 0.5985
vn -0.0000 -0.9805 0.1963
vn -0.0000 -0.9986 0.0536
vn -0.9983 -0.0000 0.0581
vn -0.0000 -0.0000 1.0000
vn 0.9983 -0.0000 0.0581
vn -0.0000 -0.0000 -1.0000
vn 1.0000 -0.0000 -0.0000
vn -1.0000 -0.0000 -0.0000
vn -0.0000 1.0000 -0.0000
vn -0.0980 -0.0000 -0.9952
vn -0.2903 -0.0000 -0.9569
vn -0.4714 -0.0000 -0.8819
vn -0.6344 -0.0000 -0.7730
vn -0.7730 -0.0000 -0.6344
vn -0.8819 -0.0000 -0.4714
vn -0.9569 -0.0000 -0.2903
vn -0.9952 -0.0000 -0.0980
vn -0.9952 -0.0000 0.0980
vn -0.9569 -0.0000 0.2903
vn -0.8819 -0.0000 0.4714
vn -0.7730 -0.0000 0.6344
vn -0.6344 -0.0000 0.7730
vn -0.4714 -0.0000 0.8819
vn -0.2903 -0.0000 0.9569
vn -0.0980 -0.0000 0.9952
vn 0.0980 -0.0000 0.9952
vn 0.2903 -0.0000 0.9569
vn 0.4714 -0.0000 0.8819
vn 0.6344 -0.0000 0.7730
vn 0.7730 -0.0000 0.6344
vn 0.8819 -0.0000 0.4714
vn 0.9569 -0.0000 0.2903
vn 0.9952 -0.0000 0.0980
vn 0.9952 -0.0000 -0.0980
vn 0.9569 -0.0000 -0.2903
vn 0.8819 -0.0000 -0.4714
vn 0.7730 -0.0000 -0.6344
vn 0.6344 -0.0000 -0.7730
vn 0.4714 -0.0000 -0.8819
vn 0.2903 -0.0000 -0.9569
vn 0.0980 -0.0000 -0.9952
vt 0.890369 0.668427
vt 0.915635 0.668427
vt 0.905156 0.847809
vt 0.900848 0.847809
vt 0.318412 0.371706
vt 0.318412 0.334990
vt 0.319019 0.335587
vt 0.319019 0.371109
vt 0.317950 0.372143
vt 0.317950 0.334553
vt 0.885815 0.669029
vt 0.847905 0.669029
vt 0.848065 0.668427
vt 0.885655 0.668427
vt 0.321406 0.334990
vt 0.321406 0.371706
vt 0.320800 0.371109
vt 0.320800 0.335587
vt 0.321869 0.334553
vt 0.321869 0.372143
vt 0.288312 0.749865
vt 0.326223 0.749865
vt 0.326063 0.750467
vt 0.288472 0.750467
vt 0.881580 0.002722
vt 0.885499 0.002722
vt 0.885693 0.003321
vt 0.881385 0.003321
vt 0.882042 0.002277
vt 0.885036 0.002277
vt 0.901043 0.848418
vt 0.904961 0.848418
vt 0.904499 0.848891
vt 0.901505 0.848891
vt 0.288312 0.569583
vt 0.326223 0.569583
vt 0.885815 0.849311
vt 0.847905 0.849311
vt 0.669151 0.254890
vt 0.669151 0.292800
vt 0.665544 0.310427
vt 0.665544 0.237262
vt 0.694416 0.292800
vt 0.694416 0.254890
vt 0.698023 0.237262
vt 0.698023 0.310427
vt 0.702577 0.237262
vt 0.735056 0.237262
vt 0.735056 0.310427
vt 0.702577 0.310427
vt 0.739610 0.237262
vt 0.766051 0.237262
vt 0.766051 0.310427
vt 0.739610 0.310427
vt 0.770605 0.237262
vt 0.797046 0.237262
vt 0.797046 0.310427
vt 0.770605 0.310427
vt 0.828047 0.269741
vt 0.801600 0.269741
vt 0.801600 0.237262
vt 0.828047 0.237262
vt 0.248146 0.556572
vt 0.280624 0.556572
vt 0.289083 0.565029
vt 0.239687 0.565029
vt 0.280624 0.530125
vt 0.289083 0.334553
vt 0.248146 0.530125
vt 0.239687 0.334553
vt 0.313396 0.334553
vt 0.313396 0.565029
vt 0.293637 0.565029
vt 0.293637 0.334553
vt 0.239687 0.902740
vt 0.239687 0.804613
vt 0.259445 0.804613
vt 0.259445 0.902740
vt 0.763671 0.232708
vt 0.665544 0.232708
vt 0.665544 0.002277
vt 0.763671 0.002277
vt 0.264000 0.902740
vt 0.264000 0.804613
vt 0.283758 0.804613
vt 0.283758 0.902740
vt 0.768225 0.232708
vt 0.768225 0.002277
vt 0.866352 0.002277
vt 0.866352 0.119413
vt 0.866352 0.195236
vt 0.866352 0.232708
vt 0.308071 0.755021
vt 0.308071 0.870259
vt 0.288312 0.870259
vt 0.288312 0.755021
vt 0.920189 0.766554
vt 0.920189 0.668427
vt 0.939947 0.668427
vt 0.939947 0.766554
vt 0.969034 0.303125
vt 0.870906 0.303125
vt 0.870906 0.187909
vt 0.969034 0.187909
vt 0.969034 0.246477
vt 0.936227 0.535374
vt 0.936227 0.437247
vt 0.955986 0.437247
vt 0.955986 0.535374
vt 0.847905 0.969081
vt 0.847905 0.853865
vt 0.946032 0.853865
vt 0.946032 0.969081
vt 0.283758 0.569583
vt 0.283758 0.800059
vt 0.264000 0.800059
vt 0.264000 0.569583
vt 0.936227 0.638055
vt 0.936227 0.539928
vt 0.955986 0.539928
vt 0.955986 0.638055
vt 0.432626 0.898859
vt 0.334499 0.898859
vt 0.334499 0.668427
vt 0.432626 0.668427
vt 0.944501 0.766554
vt 0.944501 0.668427
vt 0.964260 0.668427
vt 0.964260 0.766554
vt 0.535307 0.898859
vt 0.437180 0.898859
vt 0.437180 0.668427
vt 0.535307 0.668427
vt 0.259445 0.569583
vt 0.259445 0.800059
vt 0.239687 0.800059
vt 0.239687 0.569583
vt 0.911915 0.535374
vt 0.911915 0.437247
vt 0.931673 0.437247
vt 0.931673 0.535374
vt 0.637988 0.898859
vt 0.539861 0.898859
vt 0.539861 0.668427
vt 0.637988 0.668427
vt 0.637988 0.785563
vt 0.911915 0.638055
vt 0.911915 0.539928
vt 0.931673 0.539928
vt 0.931673 0.638055
vt 0.642542 0.898859
vt 0.642542 0.668427
vt 0.740670 0.668427
vt 0.740670 0.898859
vt 0.896172 0.183355
vt 0.870907 0.183355
vt 0.900726 0.100404
vt 0.900726 0.002277
vt 0.950122 0.002277
vt 0.950122 0.100404
vt 0.843351 0.898859
vt 0.745224 0.898859
vt 0.745224 0.668427
vt 0.843351 0.668427
vt 0.911915 0.432692
vt 0.911915 0.334565
vt 0.961311 0.334565
vt 0.961311 0.432692
vt 0.809233 0.564997
vt 0.809233 0.334565
vt 0.907361 0.334565
vt 0.907361 0.451701
vt 0.907361 0.564997
vt 0.044732 0.222815
vt 0.042795 0.242478
vt 0.080094 0.246152
vt 0.098168 0.268106
vt 0.096231 0.287770
vt 0.210914 0.299067
vt 0.212851 0.279404
vt 0.156465 0.273849
vt 0.155566 0.253587
vt 0.272161 0.265072
vt 0.293365 0.270593
vt 0.270544 0.293417
vt 0.243710 0.311350
vt 0.213894 0.323702
vt 0.182241 0.329999
vt 0.149969 0.329999
vt 0.118317 0.323702
vt 0.088502 0.311350
vt 0.061669 0.293417
vt 0.038850 0.270593
vt 0.020921 0.243755
vt 0.008572 0.213934
vt 0.002277 0.182277
vt 0.002278 0.149999
vt 0.008575 0.118341
vt 0.020926 0.088521
vt 0.038857 0.061683
vt 0.061113 0.056524
vt 0.056270 0.105682
vt 0.169042 0.116791
vt 0.168991 0.156495
vt 0.052396 0.145009
vt 0.050459 0.164672
vt 0.279825 0.187267
vt 0.277857 0.207247
vt 0.048491 0.184652
vt 0.046554 0.204315
vt 0.275920 0.226910
vt 0.274098 0.245409
vt 0.061677 0.038859
vt 0.088512 0.020926
vt 0.118328 0.008574
vt 0.149980 0.002277
vt 0.182252 0.002277
vt 0.213904 0.008574
vt 0.243720 0.020926
vt 0.270553 0.038859
vt 0.293372 0.061683
vt 0.311301 0.088521
vt 0.323650 0.118341
vt 0.329945 0.149999
vt 0.329943 0.182277
vt 0.323646 0.213934
vt 0.311295 0.243755
vt 0.281762 0.167603
vt 0.285636 0.128277
vt 0.290479 0.079119
vt 0.086583 0.663861
vt 0.086583 0.334553
vt 0.118705 0.334553
vt 0.118705 0.663861
vt 0.055695 0.663861
vt 0.055695 0.334553
vt 0.370943 0.270690
vt 0.353078 0.243866
vt 0.340772 0.214055
vt 0.334499 0.182403
vt 0.334499 0.150127
vt 0.340772 0.118466
vt 0.353078 0.088637
vt 0.370943 0.061786
vt 0.393681 0.038947
vt 0.420419 0.020995
vt 0.450127 0.008621
vt 0.481666 0.002301
vt 0.513823 0.002277
vt 0.545361 0.008551
vt 0.575070 0.020880
vt 0.601807 0.038792
vt 0.624546 0.061599
vt 0.642411 0.088422
vt 0.654717 0.118233
vt 0.660990 0.149885
vt 0.660990 0.182162
vt 0.654717 0.213823
vt 0.642411 0.243651
vt 0.624545 0.270502
vt 0.601807 0.293342
vt 0.575070 0.311293
vt 0.545361 0.323667
vt 0.513822 0.329987
vt 0.481666 0.330011
vt 0.450127 0.323738
vt 0.420418 0.311408
vt 0.393681 0.293496
vt 0.027228 0.663861
vt 0.027228 0.334553
vt 0.002277 0.663861
vt 0.002277 0.334553
vt 0.780291 0.663873
vt 0.780291 0.334565
vt 0.804679 0.334565
vt 0.804679 0.663873
vt 0.752246 0.663873
vt 0.752246 0.334565
vt 0.721623 0.663873
vt 0.721623 0.334565
vt 0.689598 0.663873
vt 0.689598 0.334565
vt 0.657402 0.663873
vt 0.657402 0.334565
vt 0.626272 0.663873
vt 0.626272 0.334565
vt 0.597404 0.663873
vt 0.597404 0.334565
vt 0.571909 0.663873
vt 0.571909 0.334565
vt 0.542403 0.663873
vt 0.542403 0.334565
vt 0.567355 0.334565
vt 0.567355 0.663873
vt 0.513937 0.663873
vt 0.513937 0.334565
vt 0.483049 0.663873
vt 0.483049 0.334565
vt 0.450927 0.663873
vt 0.450927 0.334565
vt 0.418804 0.663873
vt 0.418804 0.334565
vt 0.387916 0.663873
vt 0.387916 0.334565
vt 0.359450 0.663873
vt 0.359450 0.334565
vt 0.334499 0.663873
vt 0.334499 0.334565
vt 0.209552 0.997723
vt 0.209552 0.668415
vt 0.235048 0.668415
vt 0.235048 0.997723
vt 0.180685 0.997723
vt 0.180685 0.668415
vt 0.149555 0.997723
vt 0.149555 0.668415
vt 0.117358 0.997723
vt 0.117358 0.668415
vt 0.085333 0.997723
vt 0.085333 0.668415
vt 0.054710 0.997723
vt 0.054710 0.668415
vt 0.026665 0.997723
vt 0.026665 0.668415
vt 0.002277 0.997723
vt 0.002277 0.668415
vt 0.210182 0.663861
vt 0.210182 0.334553
vt 0.235133 0.334553
vt 0.235133 0.663861
vt 0.181715 0.663861
vt 0.181715 0.334553
vt 0.150827 0.663861
vt 0.150827 0.334553
s 0
f 135/1/1 15/4/1 12/3/1 129/2/1
f 5/5/2 7/8/2 16/7/2 14/6/2
f 6/9/3 5/5/3 14/6/3 13/10/3
f 8/11/4 6/14/4 13/13/4 15/12/4
f 9/15/5 11/18/5 4/17/5 2/16/5
f 10/19/6 9/15/6 2/16/6 1/20/6
f 12/21/7 10/24/7 1/23/7 3/22/7
f 6/25/8 8/28/8 3/27/8 1/26/8
f 5/29/9 6/25/9 1/26/9 2/30/9
f 7/8/10 5/5/10 2/16/10 4/17/10
f 14/6/11 16/7/11 11/18/11 9/15/11
f 13/31/12 14/34/12 9/33/12 10/32/12
f 15/4/13 13/31/13 10/32/13 12/3/13
f 129/35/14 12/21/14 3/22/14 22/36/14
f 16/7/15 7/8/15 4/17/15 11/18/15
f 24/37/16 8/11/16 15/12/16 135/38/16
f 135/39/15 20/42/15 18/41/15 24/40/15
f 22/43/15 17/46/15 19/45/15 129/44/15
f 24/40/15 18/41/15 17/46/15 22/43/15
f 129/44/15 19/45/15 20/42/15 135/39/15
f 126/47/17 21/50/17 23/49/17 132/48/17
f 132/51/18 23/54/18 18/53/18 20/52/18
f 19/55/19 17/58/19 21/57/19 126/56/19
f 17/59/20 18/62/20 23/61/20 21/60/20
f 132/63/20 27/66/20 25/65/20 126/64/20
f 126/64/20 25/65/20 26/68/20 19/67/20
f 19/67/20 26/68/20 28/70/20 20/69/20
f 20/69/20 28/70/20 27/66/20 132/63/20
f 81/71/20 87/74/20 84/73/20 79/72/20
f 49/75/17 48/78/17 87/77/17 81/76/17
f 53/79/18 49/82/18 81/81/18 79/80/18
f 51/83/15 53/86/15 79/85/15 84/84/15
f 87/87/19 48/92/19 47/91/19 34/90/19 51/89/19 84/88/19
f 94/93/20 100/96/20 96/95/20 91/94/20
f 46/97/17 45/100/17 100/99/17 94/98/17
f 36/101/18 35/105/18 46/104/18 94/103/18 91/102/18
f 50/106/15 36/109/15 91/108/15 96/107/15
f 100/110/19 45/113/19 50/112/19 96/111/19
f 106/114/20 111/117/20 108/116/20 103/115/20
f 38/118/17 39/121/17 111/120/17 106/119/17
f 37/122/18 38/125/18 106/124/18 103/123/18
f 52/126/15 37/129/15 103/128/15 108/127/15
f 39/130/19 52/133/19 108/132/19 111/131/19
f 117/134/20 123/137/20 120/136/20 114/135/20
f 30/138/17 31/141/17 123/140/17 117/139/17
f 41/142/18 29/146/18 30/145/18 117/144/18 114/143/18
f 40/147/15 41/150/15 114/149/15 120/148/15
f 123/151/19 31/154/19 40/153/19 120/152/19
f 22/155/20 3/27/20 8/28/20 24/156/20
f 44/157/17 43/160/17 28/159/17 26/158/17
f 42/161/18 44/164/18 26/163/18 25/162/18
f 32/165/15 42/168/15 25/167/15 27/166/15
f 28/169/19 43/173/19 33/172/19 32/171/19 27/170/19
f 49/174/20 53/212/20 52/211/20 39/210/20 38/209/20 37/208/20 40/207/20 31/206/20 30/205/20 29/204/20 33/203/20 43/202/20 44/201/20 80/200/20 83/199/20 86/198/20 89/197/20 92/196/20 95/195/20 98/194/20 101/193/20 104/192/20 107/191/20 110/190/20 113/189/20 116/188/20 119/187/20 122/186/20 125/185/20 128/184/20 51/183/20 34/182/20 35/181/20 36/180/20 50/179/20 45/178/20 46/177/20 47/176/20 48/175/20
f 44/201/20 42/230/20 32/229/20 33/203/20 29/204/20 41/228/20 40/207/20 37/208/20 52/211/20 53/212/20 51/183/20 128/184/20 131/227/20 134/226/20 137/225/20 55/224/20 57/223/20 59/222/20 61/221/20 63/220/20 65/219/20 67/218/20 69/217/20 71/216/20 73/215/20 75/214/20 77/213/20 80/200/20
f 46/177/20 35/181/20 34/182/20 47/176/20
f 55/231/21 137/234/21 136/233/21 54/232/21
f 57/235/22 55/231/22 54/232/22 56/236/22
f 124/237/1 121/268/1 118/267/1 115/266/1 112/265/1 109/264/1 105/263/1 102/262/1 99/261/1 97/260/1 93/259/1 90/258/1 88/257/1 85/256/1 82/255/1 78/254/1 76/253/1 74/252/1 72/251/1 70/250/1 68/249/1 66/248/1 64/247/1 62/246/1 60/245/1 58/244/1 56/243/1 54/242/1 136/241/1 133/240/1 130/239/1 127/238/1
f 59/269/23 57/235/23 56/236/23 58/270/23
f 61/271/24 59/269/24 58/270/24 60/272/24
f 63/273/25 61/276/25 60/275/25 62/274/25
f 65/277/26 63/273/26 62/274/26 64/278/26
f 67/279/27 65/277/27 64/278/27 66/280/27
f 69/281/28 67/279/28 66/280/28 68/282/28
f 71/283/29 69/281/29 68/282/29 70/284/29
f 73/285/30 71/283/30 70/284/30 72/286/30
f 75/287/31 73/285/31 72/286/31 74/288/31
f 77/289/32 75/287/32 74/288/32 76/290/32
f 80/291/33 77/294/33 76/293/33 78/292/33
f 83/295/34 80/291/34 78/292/34 82/296/34
f 86/297/35 83/295/35 82/296/35 85/298/35
f 89/299/36 86/297/36 85/298/36 88/300/36
f 92/301/37 89/299/37 88/300/37 90/302/37
f 95/303/38 92/301/38 90/302/38 93/304/38
f 98/305/39 95/303/39 93/304/39 97/306/39
f 101/307/40 98/305/40 97/306/40 99/308/40
f 104/309/41 101/312/41 99/311/41 102/310/41
f 107/313/42 104/309/42 102/310/42 105/314/42
f 110/315/43 107/313/43 105/314/43 109/316/43
f 113/317/44 110/315/44 109/316/44 112/318/44
f 116/319/45 113/317/45 112/318/45 115/320/45
f 119/321/46 116/319/46 115/320/46 118/322/46
f 122/323/47 119/321/47 118/322/47 121/324/47
f 125/325/48 122/323/48 121/324/48 124/326/48
f 128/327/49 125/330/49 124/329/49 127/328/49
f 131/331/50 128/327/50 127/328/50 130/332/50
f 134/333/51 131/331/51 130/332/51 133/334/51
f 137/234/52 134/333/52 133/334/52 136/233/52
