# Blender 4.5.1 LTS
# www.blender.org
o Cube
v -0.900000 0.400000 1.500000
v -0.900000 -0.300000 1.500000
v -1.000000 0.405000 -1.401000
v -1.000000 -0.405000 -1.401000
v 0.900000 0.400000 1.500000
v 0.900000 -0.300000 1.500000
v 1.000000 0.405000 -1.401000
v 1.000000 -0.405000 -1.401000
v 1.000000 -0.405000 -0.699000
v -1.000000 0.405000 -0.699000
v 1.000000 0.405000 -0.699000
v -1.000000 -0.405000 -0.699000
v 0.900000 0.400000 -0.495000
v -0.900000 -0.500000 -0.495000
v 0.900000 -0.500000 -0.495000
v -0.900000 0.400000 -0.495000
v 0.900000 0.400000 0.502500
v -0.900000 -0.500000 0.502500
v 0.900000 -0.500000 0.502500
v -0.900000 0.400000 0.502500
v 0.900000 0.400000 0.602250
v -0.900000 -0.300000 0.602250
v 0.900000 -0.300000 0.602250
v -0.900000 0.400000 0.602250
v 1.000000 -0.500000 -0.600000
v 1.000000 -0.500000 -1.500000
v 1.000000 0.500000 -1.500000
v -1.000000 0.500000 -1.500000
v -1.000000 -0.500000 -1.500000
v -1.000000 0.500000 -0.600000
v 1.000000 0.500000 -0.600000
v -1.000000 -0.500000 -0.600000
v 0.950000 -0.405000 -0.699000
v 0.950000 -0.405000 -1.401000
v 0.950000 0.405000 -1.401000
v -0.950000 0.405000 -1.401000
v -0.950000 -0.405000 -1.401000
v -0.950000 0.405000 -0.699000
v 0.950000 0.405000 -0.699000
v -0.950000 -0.405000 -0.699000
v 0.950000 -0.405000 -0.699000
v 0.950000 -0.405000 -1.401000
v 0.950000 0.405000 -1.401000
v -0.950000 0.405000 -1.401000
v -0.950000 -0.405000 -1.401000
v -0.950000 0.405000 -0.699000
v 0.950000 0.405000 -0.699000
v -0.950000 -0.405000 -0.699000
v -0.950000 0.405000 -0.816000
v -0.950000 0.405000 -0.933000
v -0.950000 0.405000 -1.050000
v -0.950000 0.405000 -1.167000
v -0.950000 0.405000 -1.284000
v -0.950000 -0.405000 -1.284000
v -0.950000 -0.405000 -1.167000
v -0.950000 -0.405000 -1.050000
v -0.950000 -0.405000 -0.933000
v -0.950000 -0.405000 -0.816000
v 0.950000 -0.405000 -0.816000
v 0.950000 -0.405000 -0.933000
v 0.950000 -0.405000 -1.050000
v 0.950000 -0.405000 -1.167000
v 0.950000 -0.405000 -1.284000
v 0.950000 0.405000 -1.284000
v 0.950000 0.405000 -1.167000
v 0.950000 0.405000 -1.050000
v 0.950000 0.405000 -0.933000
v 0.950000 0.405000 -0.816000
v 0.900000 -0.405000 -1.284000
v 0.900000 -0.405000 -1.401000
v 0.900000 0.405000 -1.401000
v -0.900000 0.405000 -1.401000
v -0.900000 -0.405000 -1.401000
v -0.900000 0.405000 -1.284000
v -0.900000 0.405000 -0.816000
v -0.900000 0.405000 -0.933000
v -0.900000 0.405000 -1.050000
v -0.900000 0.405000 -1.167000
v -0.900000 -0.405000 -1.284000
v -0.900000 -0.405000 -1.167000
v -0.900000 -0.405000 -1.050000
v -0.900000 -0.405000 -0.933000
v -0.900000 -0.405000 -0.816000
v 0.900000 -0.405000 -0.816000
v 0.900000 -0.405000 -0.933000
v 0.900000 -0.405000 -1.050000
v 0.900000 -0.405000 -1.167000
v 0.900000 0.405000 -1.284000
v 0.900000 0.405000 -1.167000
v 0.900000 0.405000 -1.050000
v 0.900000 0.405000 -0.933000
v 0.900000 0.405000 -0.816000
v -0.300000 -0.300000 1.500000
v 0.300000 -0.300000 1.500000
v -0.333333 0.500000 -1.500000
v 0.333334 0.500000 -1.500000
v 0.333334 -0.500000 -1.500000
v -0.333333 -0.500000 -1.500000
v 0.300000 0.400000 1.500000
v -0.300000 0.400000 1.500000
v -0.333333 -0.500000 -0.600000
v 0.333333 -0.500000 -0.600000
v 0.333333 0.500000 -0.600000
v -0.333333 0.500000 -0.600000
v 0.300000 0.400000 -0.495000
v -0.300000 0.400000 -0.495000
v -0.300000 -0.500000 -0.495000
v 0.300000 -0.500000 -0.495000
v -0.300000 -0.499053 0.502500
v 0.300000 -0.499053 0.502500
v 0.300000 0.400000 0.502500
v -0.300000 0.400000 0.502500
v 0.300000 0.400000 0.602250
v -0.300000 0.400000 0.602250
v -0.300000 -0.300000 0.602250
v 0.300000 -0.300000 0.602250
v -0.100000 -0.240000 1.350163
v 0.100000 -0.240000 1.350163
v -0.111111 0.400000 -1.349838
v 0.111111 0.400000 -1.349838
v 0.111111 -0.400000 -1.349838
v -0.111111 -0.400000 -1.349838
v 0.100000 0.320000 1.350163
v -0.100000 0.320000 1.350163
v -0.111111 -0.400000 -0.539837
v 0.111111 -0.400000 -0.539837
v 0.111111 0.400000 -0.539837
v -0.111111 0.400000 -0.539837
v 0.100000 0.320000 -0.445337
v -0.100000 0.320000 -0.445338
v -0.100000 -0.400000 -0.445338
v 0.100000 -0.400000 -0.445338
v -0.100000 -0.400000 0.452412
v 0.100000 -0.400000 0.452412
v 0.100000 0.320000 0.452413
v -0.100000 0.320000 0.452412
v 0.100000 0.320000 0.542188
v -0.100000 0.320000 0.542187
v -0.100000 -0.240000 0.542188
v 0.100000 -0.240000 0.542187
v 0.800000 -0.240000 0.300000
v 0.800000 -0.499089 0.500000
v 0.800000 -0.240000 1.300000
v 0.800000 -0.499089 1.300000
v -0.800000 -0.240000 0.300000
v -0.800000 -0.499089 0.500000
v -0.800000 -0.240000 1.300000
v -0.800000 -0.499089 1.300000
v -1.000000 0.500000 -1.500000
v -0.888889 -0.500000 -1.500000
v -0.333333 0.500000 -1.500000
v -0.444444 -0.500000 -1.500000
v -1.000000 0.166667 -1.500000
v -1.000000 -0.266667 -1.500000
v -0.333333 0.166667 -1.500000
v -0.333333 -0.266667 -1.500000
v -0.946666 0.450000 -1.500000
v -0.386666 0.450000 -1.500000
v -0.946666 0.216667 -1.500000
v -0.386666 0.216667 -1.500000
v -1.000000 -0.500000 -1.500000
v -0.333333 -0.500000 -1.500000
v -1.000000 -0.266667 -1.500000
v -0.333333 -0.266667 -1.500000
v -0.888889 -0.266667 -1.500000
v -0.444444 -0.266667 -1.500000
v -0.888889 -0.500000 -1.500000
v -0.444444 -0.500000 -1.500000
v -0.888889 -0.266667 -1.500000
v -0.444444 -0.266667 -1.500000
v -0.888889 -0.305556 -1.500000
v -0.888889 -0.461111 -1.500000
v -0.444444 -0.305556 -1.500000
v -0.444444 -0.461111 -1.500000
v -0.788889 -0.355556 -1.425000
v -0.788889 -0.411111 -1.425000
v -0.946666 0.450000 -1.425000
v -0.386666 0.450000 -1.425000
v -0.946666 0.216667 -1.425000
v -0.386666 0.216667 -1.425000
v -0.544444 -0.355556 -1.425000
v -0.544444 -0.411111 -1.425000
v -0.888889 -0.305556 -1.425000
v -0.888889 -0.461111 -1.425000
v -0.444444 -0.305556 -1.425000
v -0.444444 -0.461111 -1.425000
v -0.788889 -0.355556 -1.500000
v -0.788889 -0.411111 -1.500000
v -0.544444 -0.355556 -1.500000
v -0.544444 -0.411111 -1.500000
vn -0.0000 1.0000 -0.0000
vn -0.0000 -0.0000 -1.0000
vn 1.0000 -0.0000 -0.0000
vn -0.0000 -1.0000 -0.0000
vn -0.0000 -0.0000 1.0000
vn -0.7241 -0.0000 0.6897
vn -0.0000 0.7241 0.6897
vn 0.0008 -1.0000 0.0005
vn -1.0000 -0.0000 -0.0000
vn 0.7241 -0.0000 0.6897
vn 0.0004 -0.4472 0.8945
vn 0.2873 -0.9578 -0.0000
vn -0.3714 0.9285 -0.0000
vn -0.0004 -0.4472 0.8945
vn 0.3944 -0.4290 0.8127
vn -0.0008 -1.0000 0.0005
vn 0.4455 -0.8953 0.0004
vn -0.1527 0.7504 0.6431
vn 0.4470 -0.8890 -0.0996
vn 0.5996 -0.0000 0.8003
vn 0.4104 -0.9119 -0.0000
vn -0.5599 -0.0000 -0.8286
vn -0.4104 0.9119 -0.0000
vn 0.4104 0.9119 -0.0000
vn 0.5599 -0.0000 -0.8286
vn -0.4104 -0.9119 -0.0000
vn -0.5996 -0.0000 0.8003
vn -0.4470 -0.8890 -0.0996
vn 0.1526 0.7504 0.6431
vn -0.0000 0.7632 0.6461
vn 0.3714 0.9285 -0.0000
vn -0.4455 -0.8953 0.0004
vn -0.3944 -0.4290 0.8127
vn -0.0000 -0.4893 0.8721
vn -0.2873 -0.9578 -0.0000
vn -0.0000 -0.6111 -0.7916
vt 0.633963 0.576486
vt 0.633963 0.680460
vt 0.540386 0.680460
vt 0.540386 0.576486
vt 0.429882 0.314928
vt 0.429882 0.003005
vt 0.533856 0.003005
vt 0.533856 0.314928
vt 0.117091 0.221351
vt 0.117091 0.003005
vt 0.210434 0.003005
vt 0.210434 0.221351
vt 0.405739 0.550492
vt 0.405739 0.654466
vt 0.312163 0.654466
vt 0.312163 0.550492
vt 0.423872 0.691669
vt 0.423872 0.944326
vt 0.416074 0.944326
vt 0.416074 0.691669
vt 0.519071 0.539283
vt 0.519071 0.320938
vt 0.612648 0.320938
vt 0.612648 0.539283
vt 0.825663 0.314928
vt 0.825663 0.034197
vt 0.844701 0.003005
vt 0.844701 0.314928
vt 0.416657 0.545293
vt 0.416657 0.638870
vt 0.164921 0.806851
vt 0.164921 0.879841
vt 0.157123 0.879841
vt 0.157123 0.806851
vt 0.692576 0.789924
vt 0.692576 0.883501
vt 0.659528 0.899097
vt 0.659528 0.795123
vt 0.733030 0.106719
vt 0.639453 0.106719
vt 0.639453 0.003005
vt 0.733030 0.003005
vt 0.540386 0.686470
vt 0.633963 0.686470
vt 0.633963 0.790184
vt 0.540387 0.790185
vt 0.320158 0.283735
vt 0.320158 0.003005
vt 0.423872 0.003005
vt 0.423872 0.283735
vt 0.834405 0.632860
vt 0.834405 0.320938
vt 0.853443 0.352130
vt 0.853443 0.632860
vt 0.309786 0.221351
vt 0.309786 0.003005
vt 0.165833 0.707265
vt 0.165833 0.800842
vt 0.102592 0.800842
vt 0.102883 0.707265
vt 0.733030 0.117091
vt 0.639453 0.117091
vt 0.003005 0.283735
vt 0.003005 0.003005
vt 0.106719 0.003005
vt 0.106719 0.283735
vt 0.733030 0.210434
vt 0.639453 0.210434
vt 0.732796 0.216444
vt 0.732796 0.310020
vt 0.639453 0.310020
vt 0.639453 0.216443
vt 0.216444 0.221351
vt 0.216444 0.003005
vt 0.013298 0.572035
vt 0.086288 0.572035
vt 0.096582 0.601668
vt 0.003005 0.601668
vt 0.013298 0.319378
vt 0.003005 0.289745
vt 0.185875 0.572035
vt 0.185875 0.319378
vt 0.196169 0.289745
vt 0.196169 0.601668
vt 0.112885 0.319378
vt 0.102592 0.289745
vt 0.086288 0.319378
vt 0.096582 0.289745
vt 0.112885 0.572035
vt 0.102592 0.601668
vt 0.582102 0.545293
vt 0.582102 0.557458
vt 0.574303 0.557458
vt 0.574303 0.545293
vt 0.641354 0.829143
vt 0.641354 0.576486
vt 0.653518 0.576486
vt 0.653518 0.829143
vt 0.041840 0.890239
vt 0.041840 0.817249
vt 0.049638 0.817249
vt 0.049638 0.890239
vt 0.950236 0.003005
vt 0.950236 0.255662
vt 0.942438 0.255662
vt 0.942438 0.003005
vt 0.063446 0.817249
vt 0.063446 0.890239
vt 0.055648 0.890239
vt 0.055648 0.817249
vt 0.758122 0.900636
vt 0.758122 0.827646
vt 0.765920 0.827646
vt 0.765920 0.900636
vt 0.947773 0.891528
vt 0.947773 0.638870
vt 0.955571 0.638870
vt 0.955571 0.891528
vt 0.951180 0.573595
vt 0.951180 0.320938
vt 0.958978 0.320938
vt 0.958978 0.573595
vt 0.179641 0.707265
vt 0.179641 0.959922
vt 0.171842 0.959922
vt 0.171842 0.707265
vt 0.875073 0.891528
vt 0.875073 0.638870
vt 0.887238 0.638870
vt 0.887238 0.891528
vt 0.911423 0.891528
vt 0.911423 0.638870
vt 0.923588 0.638870
vt 0.923588 0.891528
vt 0.588111 0.557458
vt 0.588111 0.545293
vt 0.595909 0.545293
vt 0.595909 0.557458
vt 0.887913 0.255662
vt 0.887913 0.003005
vt 0.900078 0.003005
vt 0.900078 0.255662
vt 0.601919 0.557458
vt 0.601919 0.545293
vt 0.609718 0.545293
vt 0.609718 0.557458
vt 0.893248 0.891528
vt 0.893248 0.638870
vt 0.905413 0.638870
vt 0.905413 0.891528
vt 0.185650 0.959922
vt 0.185650 0.707265
vt 0.193449 0.707265
vt 0.193449 0.959922
vt 0.914830 0.573595
vt 0.914830 0.320938
vt 0.926995 0.320938
vt 0.926995 0.573595
vt 0.526869 0.545293
vt 0.526869 0.557458
vt 0.519071 0.557458
vt 0.519071 0.545293
vt 0.924263 0.255662
vt 0.924263 0.003005
vt 0.936428 0.003005
vt 0.936428 0.255662
vt 0.929598 0.891528
vt 0.929598 0.638870
vt 0.941763 0.638870
vt 0.941763 0.891528
vt 0.896655 0.573595
vt 0.896655 0.320938
vt 0.908820 0.320938
vt 0.908820 0.573595
vt 0.516708 0.944326
vt 0.516708 0.691669
vt 0.528873 0.691669
vt 0.528873 0.944326
vt 0.906088 0.255662
vt 0.906088 0.003005
vt 0.918253 0.003005
vt 0.918253 0.255662
vt 0.933005 0.573595
vt 0.933005 0.320938
vt 0.945170 0.320938
vt 0.945170 0.573595
vt 0.626456 0.302687
vt 0.626456 0.314852
vt 0.618658 0.314852
vt 0.618658 0.302687
vt 0.411750 0.672641
vt 0.411750 0.660476
vt 0.419548 0.660476
vt 0.419548 0.672641
vt 0.956246 0.255662
vt 0.956246 0.003005
vt 0.964044 0.003005
vt 0.964044 0.255662
vt 0.969379 0.638870
vt 0.969379 0.891528
vt 0.961581 0.891528
vt 0.961581 0.638870
vt 0.532879 0.557458
vt 0.532879 0.545293
vt 0.540677 0.545293
vt 0.540677 0.557458
vt 0.546687 0.557458
vt 0.546687 0.545293
vt 0.554485 0.545293
vt 0.554485 0.557458
vt 0.080054 0.717662
vt 0.080054 0.970320
vt 0.072256 0.970320
vt 0.072256 0.717662
vt 0.086064 0.970320
vt 0.086064 0.717662
vt 0.093862 0.717662
vt 0.093862 0.970320
vt 0.964988 0.573595
vt 0.964988 0.320938
vt 0.972786 0.320938
vt 0.972786 0.573595
vt 0.977852 0.003005
vt 0.977852 0.255662
vt 0.970054 0.255662
vt 0.970054 0.003005
vt 0.858509 0.285719
vt 0.858509 0.297884
vt 0.850711 0.297884
vt 0.850711 0.285719
vt 0.740898 0.854697
vt 0.740898 0.866862
vt 0.733100 0.866862
vt 0.733100 0.854697
vt 0.983187 0.638870
vt 0.983187 0.891528
vt 0.975389 0.891528
vt 0.975389 0.638870
vt 0.978796 0.573595
vt 0.978796 0.320938
vt 0.986594 0.320938
vt 0.986594 0.573595
vt 0.983862 0.255662
vt 0.983862 0.003005
vt 0.991660 0.003005
vt 0.991660 0.255662
vt 0.996995 0.638870
vt 0.996995 0.891528
vt 0.989197 0.891528
vt 0.989197 0.638870
vt 0.859453 0.607138
vt 0.859453 0.594972
vt 0.867251 0.594972
vt 0.867251 0.607138
vt 0.568294 0.545293
vt 0.568294 0.557458
vt 0.560495 0.557458
vt 0.560495 0.545293
vt 0.195935 0.607678
vt 0.195935 0.701255
vt 0.102592 0.701255
vt 0.102592 0.607678
vt 0.429882 0.817232
vt 0.466258 0.801653
vt 0.466258 0.894996
vt 0.429882 0.901241
vt 0.295755 0.742325
vt 0.202178 0.742325
vt 0.202178 0.648982
vt 0.295755 0.648982
vt 0.699474 0.768335
vt 0.659528 0.783914
vt 0.659528 0.690571
vt 0.699474 0.684326
vt 0.202178 0.638610
vt 0.295755 0.638610
vt 0.659528 0.680200
vt 0.699474 0.674992
vt 0.003005 0.811239
vt 0.003005 0.717662
vt 0.065954 0.717662
vt 0.066246 0.811239
vt 0.472567 0.801653
vt 0.505093 0.819088
vt 0.505093 0.882036
vt 0.472268 0.852422
vt 0.312163 0.660477
vt 0.405740 0.660476
vt 0.405740 0.764191
vt 0.312163 0.764191
vt 0.784481 0.774769
vt 0.828395 0.769649
vt 0.828395 0.873364
vt 0.784294 0.868112
vt 0.202178 0.534896
vt 0.295755 0.534896
vt 0.659528 0.576486
vt 0.699474 0.581649
vt 0.573434 0.811791
vt 0.573434 0.905367
vt 0.540386 0.900169
vt 0.540386 0.796194
vt 0.403847 0.428106
vt 0.401621 0.387891
vt 0.422718 0.361931
vt 0.422718 0.408975
vt 0.534376 0.592082
vt 0.534376 0.685659
vt 0.523459 0.680460
vt 0.523459 0.576486
vt 0.897484 0.261672
vt 0.898749 0.306055
vt 0.887913 0.311314
vt 0.887913 0.264280
vt 0.539866 0.221351
vt 0.539866 0.003005
vt 0.633443 0.003005
vt 0.633443 0.221351
vt 0.793529 0.744924
vt 0.793529 0.570247
vt 0.828395 0.545293
vt 0.828395 0.763639
vt 0.429882 0.680460
vt 0.429882 0.576486
vt 0.705484 0.748854
vt 0.752112 0.755110
vt 0.752112 0.848687
vt 0.705484 0.833074
vt 0.705484 0.601668
vt 0.705484 0.352130
vt 0.743496 0.320938
vt 0.743496 0.632860
vt 0.096582 0.607678
vt 0.096582 0.711652
vt 0.003005 0.711652
vt 0.003005 0.607678
vt 0.358790 0.870033
vt 0.312163 0.863778
vt 0.312163 0.770201
vt 0.358790 0.785814
vt 0.202178 0.754590
vt 0.248806 0.748334
vt 0.248806 0.832554
vt 0.202178 0.848167
vt 0.814366 0.300663
vt 0.779708 0.300663
vt 0.779708 0.216443
vt 0.814366 0.216443
vt 0.749506 0.632860
vt 0.749506 0.320938
vt 0.787519 0.352130
vt 0.787519 0.601668
vt 0.739040 0.252543
vt 0.739040 0.003005
vt 0.773698 0.003005
vt 0.773698 0.252543
vt 0.301444 0.841911
vt 0.254816 0.848167
vt 0.254816 0.763948
vt 0.301444 0.748335
vt 0.869063 0.723089
vt 0.834405 0.723089
vt 0.834405 0.638870
vt 0.869063 0.638870
vt 0.793529 0.539283
vt 0.793529 0.320938
vt 0.828395 0.345891
vt 0.828395 0.520568
vt 0.859453 0.495614
vt 0.859453 0.320938
vt 0.890645 0.320938
vt 0.890645 0.495614
vt 0.278155 0.898559
vt 0.279420 0.854177
vt 0.288991 0.856785
vt 0.288991 0.903818
vt 0.867330 0.732915
vt 0.836138 0.732915
vt 0.422718 0.315706
vt 0.420491 0.355921
vt 0.401621 0.336789
vt 0.401621 0.289745
vt 0.861224 0.834001
vt 0.861224 0.865193
vt 0.834405 0.866926
vt 0.834405 0.832268
vt 0.779708 0.106719
vt 0.819653 0.111927
vt 0.819653 0.205270
vt 0.779708 0.210434
vt 0.881903 0.096348
vt 0.850711 0.096348
vt 0.850711 0.003005
vt 0.881903 0.003005
vt 0.364800 0.770201
vt 0.408715 0.775321
vt 0.408902 0.868663
vt 0.364800 0.873916
vt 0.867330 0.826258
vt 0.836138 0.826258
vt 0.003005 0.834684
vt 0.035531 0.817249
vt 0.035830 0.868018
vt 0.003005 0.897632
vt 0.738806 0.259247
vt 0.769998 0.259247
vt 0.769998 0.310020
vt 0.738806 0.310020
vt 0.779708 0.096348
vt 0.819653 0.102593
vt 0.881903 0.105682
vt 0.850711 0.105682
vt 0.779708 0.003005
vt 0.819653 0.018584
vt 0.881903 0.189691
vt 0.850711 0.189691
vt 0.615820 0.895782
vt 0.579444 0.880203
vt 0.579444 0.796194
vt 0.615820 0.802439
vt 0.881903 0.279709
vt 0.850711 0.279709
vt 0.850711 0.195701
vt 0.881903 0.195701
vt 0.429882 0.795643
vt 0.429882 0.691669
vt 0.510698 0.691669
vt 0.510698 0.774848
vt 0.618658 0.570476
vt 0.618658 0.320938
vt 0.699474 0.320938
vt 0.699474 0.570476
vt 0.705484 0.742845
vt 0.705484 0.638870
vt 0.786300 0.659665
vt 0.786300 0.742845
vt 0.312163 0.539284
vt 0.312163 0.289745
vt 0.395611 0.289745
vt 0.395611 0.539284
vt 0.513061 0.570476
vt 0.429882 0.570476
vt 0.429882 0.320938
vt 0.513061 0.320938
vt 0.649152 0.835153
vt 0.649152 0.907935
vt 0.641354 0.907935
vt 0.641354 0.835153
vt 0.758122 0.821636
vt 0.758122 0.748854
vt 0.775451 0.748854
vt 0.775451 0.821636
vt 0.202178 0.528886
vt 0.202178 0.393720
vt 0.306153 0.393720
vt 0.306153 0.528886
vt 0.297835 0.305341
vt 0.210496 0.305341
vt 0.202178 0.289745
vt 0.306153 0.289745
vt 0.210496 0.378123
vt 0.297835 0.378123
vt 0.401621 0.506898
vt 0.401621 0.434116
vt 0.418950 0.434116
vt 0.418950 0.506898
vt 0.633960 0.865511
vt 0.621830 0.865511
vt 0.621830 0.796194
vt 0.633960 0.796194
vt 0.630788 0.296677
vt 0.618658 0.296677
vt 0.618658 0.227361
vt 0.630788 0.227361
vt 0.901046 0.584339
vt 0.901046 0.632860
vt 0.893248 0.632860
vt 0.893248 0.584339
vt 0.612648 0.314699
vt 0.539866 0.314699
vt 0.539866 0.227361
vt 0.612648 0.227361
vt 0.409419 0.512908
vt 0.409419 0.530237
vt 0.401621 0.530237
vt 0.401621 0.512908
vt 0.202178 0.926959
vt 0.202178 0.854177
vt 0.209977 0.854177
vt 0.209977 0.926959
vt 0.873261 0.588963
vt 0.873261 0.501624
vt 0.881059 0.501624
vt 0.881059 0.588963
vt 0.859453 0.588963
vt 0.859453 0.501624
vt 0.867251 0.501624
vt 0.867251 0.588963
vt 0.229794 0.923493
vt 0.229795 0.854177
vt 0.237593 0.854177
vt 0.237593 0.923493
vt 0.295001 0.902698
vt 0.295001 0.854177
vt 0.302799 0.854177
vt 0.302799 0.902698
vt 0.215987 0.923493
vt 0.215987 0.854177
vt 0.223785 0.854177
vt 0.223785 0.923493
vt 0.118188 0.860571
vt 0.135517 0.860571
vt 0.151113 0.876168
vt 0.102592 0.876168
vt 0.135517 0.822448
vt 0.118188 0.822447
vt 0.102592 0.806851
vt 0.151113 0.806851
vt 0.272145 0.892300
vt 0.254816 0.892300
vt 0.254816 0.854177
vt 0.272145 0.854177
vt 0.727090 0.854697
vt 0.727090 0.892820
vt 0.719292 0.892820
vt 0.719292 0.854697
vt 0.415429 0.530237
vt 0.415429 0.512908
vt 0.423227 0.512908
vt 0.423227 0.530237
vt 0.713282 0.854697
vt 0.713282 0.892820
vt 0.705484 0.892820
vt 0.705484 0.854697
s 0
f 103/1/1 31/2/1 27/3/1 96/4/1
f 97/5/2 96/6/2 27/7/2 26/8/2
f 23/9/3 21/10/3 5/11/3 6/12/3
f 101/13/4 32/14/4 29/15/4 98/16/4
f 3/17/5 4/18/5 37/19/5 36/20/5
f 93/21/5 100/22/5 1/23/5 2/24/5
f 14/25/6 16/26/6 30/27/6 32/28/6
f 107/29/4 14/30/4 32/14/4 101/13/4
f 7/31/4 11/32/4 39/33/4 35/34/4
f 105/35/7 13/36/7 31/37/7 103/38/7
f 111/39/1 17/40/1 13/41/1 105/42/1
f 109/43/8 18/44/8 14/45/8 107/46/8
f 18/47/9 20/48/9 16/49/9 14/50/9
f 25/51/10 31/52/10 13/53/10 15/54/10
f 22/55/9 24/56/9 20/48/9 18/47/9
f 115/57/11 22/58/11 18/59/11 109/60/11
f 113/61/1 21/62/1 17/40/1 111/39/1
f 15/63/3 13/64/3 17/65/3 19/66/3
f 99/67/1 5/68/1 21/62/1 113/61/1
f 93/69/4 2/70/4 22/71/4 115/72/4
f 2/73/9 1/74/9 24/56/9 22/55/9
f 19/66/3 17/65/3 21/10/3 23/9/3
f 8/75/3 9/76/3 25/77/3 26/78/3
f 7/79/3 8/75/3 26/78/3 27/80/3
f 4/81/9 3/82/9 28/83/9 29/84/9
f 3/82/9 10/85/9 30/86/9 28/83/9
f 11/87/3 7/79/3 27/80/3 31/88/3
f 12/89/9 4/81/9 29/84/9 32/90/9
f 10/85/9 12/89/9 32/90/9 30/86/9
f 9/76/3 11/87/3 31/88/3 25/77/3
f 57/91/1 58/92/1 83/93/1 82/94/1
f 48/95/9 46/96/9 49/97/9 58/98/9
f 9/99/1 8/100/1 34/101/1 33/102/1
f 11/103/2 9/104/2 33/105/2 39/106/2
f 4/107/1 12/108/1 40/109/1 37/110/1
f 10/111/4 3/112/4 36/113/4 38/114/4
f 8/115/5 7/116/5 35/117/5 34/118/5
f 12/119/2 10/120/2 38/121/2 40/122/2
f 44/123/5 45/124/5 73/125/5 72/126/5
f 59/127/3 68/128/3 47/129/3 41/130/3
f 57/131/9 50/132/9 51/133/9 56/134/9
f 59/135/1 60/136/1 85/137/1 84/138/1
f 55/139/9 52/140/9 53/141/9 54/142/9
f 49/143/4 50/144/4 76/145/4 75/146/4
f 63/147/3 64/148/3 65/149/3 62/150/3
f 42/151/5 43/152/5 71/153/5 70/154/5
f 61/155/3 66/156/3 67/157/3 60/158/3
f 65/159/4 66/160/4 90/161/4 89/162/4
f 83/163/9 75/164/9 76/165/9 82/166/9
f 79/167/9 74/168/9 72/169/9 73/170/9
f 81/171/9 77/172/9 78/173/9 80/174/9
f 70/175/3 71/176/3 88/177/3 69/178/3
f 87/179/3 89/180/3 90/181/3 86/182/3
f 85/183/3 91/184/3 92/185/3 84/186/3
f 67/187/4 68/188/4 92/189/4 91/190/4
f 53/191/4 44/192/4 72/193/4 74/194/4
f 58/195/2 49/196/2 75/197/2 83/198/2
f 64/199/2 63/200/2 69/201/2 88/202/2
f 51/203/4 52/204/4 78/205/4 77/206/4
f 61/207/1 62/208/1 87/209/1 86/210/1
f 50/211/5 57/212/5 82/213/5 76/214/5
f 62/215/5 65/216/5 89/217/5 87/218/5
f 56/219/2 51/220/2 77/221/2 81/222/2
f 66/223/2 61/224/2 86/225/2 90/226/2
f 45/227/1 54/228/1 79/229/1 73/230/1
f 43/231/4 64/232/4 88/233/4 71/234/4
f 52/235/5 55/236/5 80/237/5 78/238/5
f 60/239/5 67/240/5 91/241/5 85/242/5
f 54/243/2 53/244/2 74/245/2 79/246/2
f 68/247/2 59/248/2 84/249/2 92/250/2
f 63/251/1 42/252/1 70/253/1 69/254/1
f 55/255/1 56/256/1 81/257/1 80/258/1
f 6/259/4 94/260/4 116/261/4 23/262/4
f 117/263/12 93/264/12 115/265/12 139/266/12
f 1/267/1 100/268/1 114/269/1 24/270/1
f 123/271/13 99/272/13 113/273/13 137/274/13
f 24/270/1 114/269/1 112/275/1 20/276/1
f 137/274/13 113/273/13 111/277/13 135/278/13
f 23/279/14 116/280/14 110/281/14 19/282/14
f 139/283/15 115/284/15 109/285/15 133/286/15
f 19/287/16 110/288/16 108/289/16 15/290/16
f 133/291/17 109/292/17 107/293/17 131/294/17
f 20/276/1 112/275/1 106/295/1 16/296/1
f 135/278/13 111/277/13 105/297/13 129/298/13
f 16/299/7 106/300/7 104/301/7 30/302/7
f 129/303/18 105/304/18 103/305/18 127/306/18
f 15/307/4 108/308/4 102/309/4 25/310/4
f 131/311/19 107/312/19 101/313/19 125/314/19
f 6/315/5 5/316/5 99/317/5 94/318/5
f 117/319/20 124/320/20 100/321/20 93/322/20
f 25/310/4 102/309/4 97/323/4 26/324/4
f 125/325/21 101/326/21 98/327/21 122/328/21
f 121/329/22 120/330/22 96/331/22 97/332/22
f 30/333/1 104/334/1 95/335/1 28/336/1
f 127/337/23 103/338/23 96/339/23 120/340/23
f 104/341/24 128/342/24 119/343/24 95/344/24
f 128/345/1 127/346/1 120/347/1 119/348/1
f 98/349/25 95/350/25 119/351/25 122/352/25
f 122/353/2 119/354/2 120/355/2 121/356/2
f 102/357/26 126/358/26 121/359/26 97/360/26
f 126/361/4 125/362/4 122/363/4 121/364/4
f 94/365/27 99/366/27 123/367/27 118/368/27
f 118/369/5 123/370/5 124/371/5 117/372/5
f 108/373/28 132/374/28 126/375/28 102/376/28
f 132/377/4 131/378/4 125/362/4 126/361/4
f 106/379/29 130/380/29 128/381/29 104/382/29
f 130/383/30 129/384/30 127/385/30 128/386/30
f 112/387/31 136/388/31 130/389/31 106/390/31
f 136/391/1 135/392/1 129/393/1 130/394/1
f 110/395/32 134/396/32 132/397/32 108/398/32
f 134/399/4 133/400/4 131/378/4 132/377/4
f 116/401/33 140/402/33 134/403/33 110/404/33
f 140/405/34 139/406/34 133/407/34 134/408/34
f 114/409/31 138/410/31 136/388/31 112/387/31
f 138/411/1 137/412/1 135/392/1 136/391/1
f 100/413/31 124/414/31 138/410/31 114/409/31
f 124/415/1 123/416/1 137/412/1 138/411/1
f 94/417/35 118/418/35 140/419/35 116/420/35
f 118/421/4 117/422/4 139/423/4 140/424/4
f 141/425/3 143/426/3 144/427/3 142/428/3
f 143/429/5 147/430/5 148/431/5 144/432/5
f 147/433/9 145/434/9 146/435/9 148/436/9
f 145/437/36 141/438/36 142/439/36 146/440/36
f 148/441/4 146/442/4 142/443/4 144/444/4
f 158/445/9 160/446/9 180/447/9 178/448/9
f 161/449/2 163/450/2 165/451/2 150/452/2
f 154/453/2 153/454/2 155/455/2 156/456/2
f 158/457/2 157/458/2 149/459/2 151/460/2
f 157/458/2 159/461/2 153/454/2 149/459/2
f 160/462/2 158/457/2 151/460/2 155/455/2
f 159/461/2 160/462/2 155/455/2 153/454/2
f 152/463/2 166/464/2 164/465/2 162/466/2
f 167/467/2 172/468/2 174/469/2 168/470/2
f 171/471/2 169/472/2 170/473/2 173/474/2
f 173/475/9 174/476/9 186/477/9 185/478/9
f 179/479/2 177/480/2 178/481/2 180/482/2
f 181/483/3 182/484/3 190/485/3 189/486/3
f 159/487/3 157/488/3 177/489/3 179/490/3
f 160/491/1 159/492/1 179/493/1 180/494/1
f 157/495/4 158/496/4 178/497/4 177/498/4
f 174/499/1 172/500/1 184/501/1 186/502/1
f 172/503/3 171/504/3 183/505/3 184/506/3
f 171/507/4 173/508/4 185/509/4 183/510/4
f 175/511/2 176/512/2 184/513/2 183/514/2
f 182/515/2 181/516/2 185/517/2 186/518/2
f 176/512/2 182/515/2 186/518/2 184/513/2
f 181/516/2 175/511/2 183/514/2 185/517/2
f 188/519/2 187/520/2 189/521/2 190/522/2
f 182/523/4 176/524/4 188/525/4 190/526/4
f 176/527/9 175/528/9 187/529/9 188/530/9
f 175/531/1 181/532/1 189/533/1 187/534/1
