# Blender 4.0.2
# www.blender.org
mtllib Sensor.mtl
o Cube
v -0.500000 -0.500000 0.500000
v -0.500000 0.500000 0.500000
v -0.500000 -0.500000 -0.500000
v -0.500000 0.500000 -0.500000
v 0.500000 -0.500000 0.500000
v 0.500000 0.500000 0.500000
v 0.500000 -0.500000 -0.500000
v 0.500000 0.500000 -0.500000
v -0.500000 -0.373925 0.373925
v -0.500000 0.373925 0.373925
v -0.500000 0.373925 -0.373925
v -0.500000 -0.373925 -0.373925
v -0.373925 -0.373925 -0.500000
v -0.373925 0.373925 -0.500000
v 0.373925 0.373925 -0.500000
v 0.373925 -0.373925 -0.500000
v 0.500000 -0.373925 -0.373925
v 0.500000 0.373925 -0.373925
v 0.500000 0.373925 0.373925
v 0.500000 -0.373925 0.373925
v 0.373925 -0.373925 0.500000
v 0.373925 0.373925 0.500000
v -0.373925 0.373925 0.500000
v -0.373925 -0.373925 0.500000
v -0.373925 -0.500000 -0.373925
v 0.373925 -0.500000 -0.373925
v 0.373925 -0.500000 0.373925
v -0.373925 -0.500000 0.373925
v 0.373925 0.500000 -0.373925
v -0.373925 0.500000 -0.373925
v -0.373925 0.500000 0.373925
v 0.373925 0.500000 0.373925
v -0.411409 -0.373925 0.373925
v -0.411409 0.373925 0.373925
v -0.411409 -0.373925 -0.373925
v -0.411409 0.373925 -0.373925
v -0.373925 0.373925 -0.411409
v -0.373925 -0.373925 -0.411409
v 0.373925 -0.373925 -0.411409
v 0.373925 0.373925 -0.411409
v 0.411409 0.373925 -0.373925
v 0.411409 -0.373925 -0.373925
v 0.411409 -0.373925 0.373925
v 0.411409 0.373925 0.373925
v 0.373925 0.373925 0.411409
v 0.373925 -0.373925 0.411409
v -0.373925 -0.373925 0.411409
v -0.373925 0.373925 0.411409
v 0.373925 -0.411409 -0.373925
v -0.373925 -0.411409 -0.373925
v -0.373925 -0.411409 0.373925
v 0.373925 -0.411409 0.373925
v -0.373925 0.411409 -0.373925
v 0.373925 0.411409 -0.373925
v 0.373925 0.411409 0.373925
v -0.373925 0.411409 0.373925
v 0.247118 -0.247118 0.411409
v 0.247118 0.247118 0.411409
v -0.247118 0.247118 0.411409
v -0.247118 -0.247118 0.411409
v 0.247118 0.247118 0.478189
v 0.247118 -0.247118 0.478189
v -0.247118 -0.247118 0.478189
v -0.247118 0.247118 0.478189
v 0.140430 -0.140430 0.478189
v 0.140430 0.140430 0.478189
v -0.140430 0.140430 0.478189
v -0.140430 -0.140430 0.478189
v 0.140430 0.140430 0.488260
v 0.140430 -0.140430 0.488260
v -0.140430 -0.140430 0.488260
v -0.140430 0.140430 0.488260
v 0.109997 -0.109997 0.488260
v 0.109997 0.109997 0.488260
v -0.109997 0.109997 0.488260
v -0.109997 -0.109997 0.488260
v 0.061922 -0.061922 0.488260
v 0.061922 0.061922 0.488260
v -0.061922 0.061922 0.488260
v -0.061922 -0.061922 0.488260
v 0.061922 0.061922 0.472531
v 0.061922 -0.061922 0.472531
v -0.061922 -0.061922 0.472531
v -0.061922 0.061922 0.472531
v -0.411409 -0.373925 0.373925
v -0.411409 0.373925 0.373925
v -0.411409 -0.373925 -0.373925
v -0.411409 0.373925 -0.373925
v 0.411409 0.373925 -0.373925
v 0.411409 -0.373925 -0.373925
v 0.411409 -0.373925 0.373925
v 0.411409 0.373925 0.373925
v 0.373925 -0.411409 -0.373925
v -0.373925 -0.411409 -0.373925
v -0.373925 -0.411409 0.373925
v 0.373925 -0.411409 0.373925
v -0.373925 0.411409 -0.373925
v 0.373925 0.411409 -0.373925
v 0.373925 0.411409 0.373925
v -0.373925 0.411409 0.373925
v 0.373925 0.411409 0.000000
v -0.373925 0.411409 0.000000
v -0.373925 0.411409 -0.186962
v 0.373925 0.411409 -0.186962
v -0.373925 0.411409 -0.280444
v 0.373925 0.411409 -0.280444
v 0.373925 0.411409 -0.093481
v -0.373925 0.411409 -0.093481
v 0.373925 0.411409 0.186962
v -0.373925 0.411409 0.186962
v -0.373925 0.411409 0.093481
v 0.373925 0.411409 0.093481
v 0.373925 0.411409 0.280444
v -0.373925 0.411409 0.280444
v -0.411409 -0.373925 0.000000
v -0.411409 0.373925 0.000000
v -0.411409 0.373925 -0.186962
v -0.411409 -0.373925 -0.186962
v -0.411409 0.373925 -0.280444
v -0.411409 -0.373925 -0.280444
v -0.411409 -0.373925 -0.093481
v -0.411409 0.373925 -0.093481
v -0.411409 -0.373925 0.186962
v -0.411409 0.373925 0.186962
v -0.411409 0.373925 0.093481
v -0.411409 -0.373925 0.093481
v -0.411409 -0.373925 0.280444
v -0.411409 0.373925 0.280444
v -0.373925 -0.411409 0.000000
v 0.373925 -0.411409 0.000000
v 0.373925 -0.411409 -0.186962
v -0.373925 -0.411409 -0.186962
v 0.373925 -0.411409 -0.280444
v -0.373925 -0.411409 -0.280444
v -0.373925 -0.411409 -0.093481
v 0.373925 -0.411409 -0.093481
v -0.373925 -0.411409 0.186962
v 0.373925 -0.411409 0.186962
v 0.373925 -0.411409 0.093481
v -0.373925 -0.411409 0.093481
v -0.373925 -0.411409 0.280444
v 0.373925 -0.411409 0.280444
v 0.411409 -0.373925 0.000000
v 0.411409 0.373925 0.000000
v 0.411409 -0.373925 -0.186962
v 0.411409 0.373925 -0.186962
v 0.411409 -0.373925 -0.280444
v 0.411409 0.373925 -0.280444
v 0.411409 0.373925 -0.093481
v 0.411409 -0.373925 -0.093481
v 0.411409 0.373925 0.186962
v 0.411409 -0.373925 0.186962
v 0.411409 -0.373925 0.093481
v 0.411409 0.373925 0.093481
v 0.411409 0.373925 0.280444
v 0.411409 -0.373925 0.280444
v -0.454358 0.373925 -0.280444
v -0.454358 0.373925 -0.373925
v -0.454358 -0.373925 -0.373925
v 0.454358 0.373925 -0.373925
v 0.454358 -0.373925 -0.373925
v 0.454358 -0.373925 -0.280444
v 0.373925 -0.454358 -0.373925
v -0.373925 -0.454358 -0.373925
v 0.373925 -0.454358 -0.280444
v -0.373925 0.454358 -0.373925
v 0.373925 0.454358 -0.373925
v -0.373925 0.454358 -0.280444
v -0.373925 0.454358 0.093481
v -0.373925 0.454358 0.000000
v 0.373925 0.454358 0.000000
v -0.373925 0.454358 -0.093481
v -0.373925 0.454358 -0.186962
v 0.373925 0.454358 -0.186962
v 0.373925 0.454358 -0.280444
v 0.373925 0.454358 -0.093481
v -0.373925 0.454358 0.280444
v -0.373925 0.454358 0.186962
v 0.373925 0.454358 0.186962
v 0.373925 0.454358 0.093481
v 0.373925 0.454358 0.280444
v -0.454358 0.373925 0.093481
v -0.454358 0.373925 0.000000
v -0.454358 -0.373925 0.000000
v -0.454358 0.373925 -0.093481
v -0.454358 0.373925 -0.186962
v -0.454358 -0.373925 -0.186962
v -0.454358 -0.373925 -0.280444
v -0.454358 -0.373925 -0.093481
v -0.454358 0.373925 0.280444
v -0.454358 0.373925 0.186962
v -0.454358 -0.373925 0.186962
v -0.454358 -0.373925 0.093481
v -0.454358 -0.373925 0.280444
v 0.373925 -0.454358 0.093481
v 0.373925 -0.454358 0.000000
v -0.373925 -0.454358 0.000000
v 0.373925 -0.454358 -0.093481
v 0.373925 -0.454358 -0.186962
v -0.373925 -0.454358 -0.186962
v -0.373925 -0.454358 -0.280444
v -0.373925 -0.454358 -0.093481
v 0.373925 -0.454358 0.280444
v 0.373925 -0.454358 0.186962
v -0.373925 -0.454358 0.186962
v -0.373925 -0.454358 0.093481
v -0.373925 -0.454358 0.280444
v 0.454358 -0.373925 0.093481
v 0.454358 -0.373925 0.000000
v 0.454358 0.373925 0.000000
v 0.454358 -0.373925 -0.093481
v 0.454358 -0.373925 -0.186962
v 0.454358 0.373925 -0.186962
v 0.454358 0.373925 -0.280444
v 0.454358 0.373925 -0.093481
v 0.454358 -0.373925 0.280444
v 0.454358 -0.373925 0.186962
v 0.454358 0.373925 0.186962
v 0.454358 0.373925 0.093481
v 0.454358 0.373925 0.280444
vn -0.0000 -0.0000 1.0000
vn -0.0000 1.0000 -0.0000
vn -0.0000 -1.0000 -0.0000
vn -1.0000 -0.0000 -0.0000
vn -0.0000 -0.0000 -1.0000
vn 1.0000 -0.0000 -0.0000
vt 0.593481 0.218481
vt 0.406519 0.218481
vt 0.656519 0.531519
vt 0.843481 0.531519
vt 0.406519 0.968481
vt 0.406519 0.781519
vt 0.593481 0.281519
vt 0.593481 0.468481
vt 0.156519 0.531519
vt 0.343481 0.531519
vt 0.406519 0.718481
vt 0.406519 0.531519
vt 0.375000 0.000000
vt 0.625000 0.000000
vt 0.593481 0.031519
vt 0.406519 0.031519
vt 0.625000 0.250000
vt 0.375000 0.250000
vt 0.406519 0.281519
vt 0.625000 0.500000
vt 0.375000 0.500000
vt 0.406519 0.468481
vt 0.593481 0.531519
vt 0.625000 0.750000
vt 0.593481 0.718481
vt 0.375000 0.750000
vt 0.593481 0.781519
vt 0.625000 1.000000
vt 0.593481 0.968481
vt 0.375000 1.000000
vt 0.125000 0.500000
vt 0.343481 0.718481
vt 0.125000 0.750000
vt 0.156519 0.718481
vt 0.875000 0.500000
vt 0.875000 0.750000
vt 0.843481 0.718481
vt 0.656519 0.718481
vt 0.000000 0.000000
vt 0.656519 0.578259
vt 0.843481 0.578259
vt 0.438221 0.936779
vt 0.438221 0.813221
vt 0.656519 0.554889
vt 0.843481 0.554889
vt 0.656519 0.601630
vt 0.843481 0.601630
vt 0.843481 0.625000
vt 0.656519 0.625000
vt 0.561779 0.813221
vt 0.561779 0.936779
vt 0.547079 0.827921
vt 0.547079 0.922079
vt 0.452921 0.827921
vt 0.452921 0.922079
vt 0.524996 0.899996
vt 0.475004 0.899996
vt 0.536876 0.838124
vt 0.463124 0.838124
vt 0.536876 0.911876
vt 0.463124 0.911876
vt 0.524996 0.850004
vt 0.475004 0.850004
vt 0.593481 0.695111
vt 0.406519 0.695111
vt 0.156519 0.695111
vt 0.343481 0.695111
vt 0.656519 0.695111
vt 0.843481 0.695111
vt 0.656519 0.648370
vt 0.843481 0.648370
vt 0.843481 0.671741
vt 0.656519 0.671741
vt 0.156519 0.671741
vt 0.343481 0.671741
vt 0.406519 0.195111
vt 0.593481 0.195111
vt 0.406519 0.171741
vt 0.593481 0.171741
vt 0.406519 0.125000
vt 0.593481 0.125000
vt 0.593481 0.148370
vt 0.406519 0.148370
vt 0.406519 0.078259
vt 0.593481 0.078259
vt 0.593481 0.101630
vt 0.406519 0.101630
vt 0.593481 0.054889
vt 0.406519 0.054889
vt 0.156519 0.601630
vt 0.343481 0.601630
vt 0.343481 0.625000
vt 0.156519 0.625000
vt 0.156519 0.554889
vt 0.343481 0.554889
vt 0.343481 0.578259
vt 0.156519 0.578259
vt 0.156519 0.648370
vt 0.343481 0.648370
vt 0.593481 0.648370
vt 0.406519 0.648370
vt 0.406519 0.601630
vt 0.593481 0.601630
vt 0.593481 0.625000
vt 0.406519 0.625000
vt 0.406519 0.554889
vt 0.593481 0.554889
vt 0.593481 0.578259
vt 0.406519 0.578259
vt 0.593481 0.671741
vt 0.406519 0.671741
s 0
usemtl Material.003
f 11/1/1 12/2/1 35/2/1 36/1/1
f 29/3/1 30/4/1 53/4/1 54/3/1
f 24/5/2 21/6/2 46/6/2 47/5/2
f 14/7/3 15/8/3 40/8/3 37/7/3
f 25/9/1 26/10/1 49/10/1 50/9/1
f 20/11/2 17/12/2 42/12/2 43/11/2
f 1/13/4 2/14/4 10/15/4 9/16/4
f 2/14/4 4/17/4 11/1/4 10/15/4
f 4/17/4 3/18/4 12/2/4 11/1/4
f 3/18/4 1/13/4 9/16/4 12/2/4
f 3/18/5 4/17/5 14/7/5 13/19/5
f 4/17/5 8/20/5 15/8/5 14/7/5
f 8/20/5 7/21/5 16/22/5 15/8/5
f 7/21/5 3/18/5 13/19/5 16/22/5
f 7/21/6 8/20/6 18/23/6 17/12/6
f 8/20/6 6/24/6 19/25/6 18/23/6
f 6/24/6 5/26/6 20/11/6 19/25/6
f 5/26/6 7/21/6 17/12/6 20/11/6
f 5/26/1 6/24/1 22/27/1 21/6/1
f 6/24/1 2/28/1 23/29/1 22/27/1
f 2/28/1 1/30/1 24/5/1 23/29/1
f 1/30/1 5/26/1 21/6/1 24/5/1
f 3/31/3 7/21/3 26/10/3 25/9/3
f 7/21/3 5/26/3 27/32/3 26/10/3
f 5/26/3 1/33/3 28/34/3 27/32/3
f 1/33/3 3/31/3 25/9/3 28/34/3
f 8/20/2 4/35/2 30/4/2 29/3/2
f 4/35/2 2/36/2 31/37/2 30/4/2
f 2/36/2 6/24/2 32/38/2 31/37/2
f 6/24/2 8/20/2 29/3/2 32/38/2
f 140/39/4 129/39/4 197/39/4 206/39/4
f 38/19/5 37/7/5 40/8/5 39/22/5
f 104/40/5 103/41/5 173/41/5 174/40/5
f 60/42/3 57/43/3 62/43/3 63/42/3
f 106/44/2 105/45/2 103/41/2 104/40/2
f 107/46/2 108/47/2 102/48/2 101/49/2
f 18/23/3 19/25/3 44/25/3 41/23/3
f 28/34/6 25/9/6 50/9/6 51/34/6
f 15/8/4 16/22/4 39/22/4 40/8/4
f 22/27/3 23/29/3 48/29/3 45/27/3
f 32/38/4 29/3/4 54/3/4 55/38/4
f 19/25/5 20/11/5 43/11/5 44/25/5
f 26/10/4 27/32/4 52/32/4 49/10/4
f 23/29/6 24/5/6 47/5/6 48/29/6
f 30/4/6 31/37/6 56/37/6 53/4/6
f 27/32/5 28/34/5 51/34/5 52/32/5
f 31/37/5 32/38/5 55/38/5 56/37/5
f 9/16/5 10/15/5 34/15/5 33/16/5
f 13/19/6 14/7/6 37/7/6 38/19/6
f 12/2/2 9/16/2 33/16/2 35/2/2
f 17/12/1 18/23/1 41/23/1 42/12/1
f 16/22/2 13/19/2 38/19/2 39/22/2
f 21/6/4 22/27/4 45/27/4 46/6/4
f 10/15/3 11/1/3 36/1/3 34/15/3
f 46/6/1 45/27/1 58/50/1 57/43/1
f 45/27/1 48/29/1 59/51/1 58/50/1
f 48/29/1 47/5/1 60/42/1 59/51/1
f 47/5/1 46/6/1 57/43/1 60/42/1
f 66/52/2 67/53/2 72/53/2 69/52/2
f 58/50/2 59/51/2 64/51/2 61/50/2
f 57/43/6 58/50/6 61/50/6 62/43/6
f 59/51/4 60/42/4 63/42/4 64/51/4
f 62/43/1 61/50/1 66/52/1 65/54/1
f 61/50/1 64/51/1 67/53/1 66/52/1
f 64/51/1 63/42/1 68/55/1 67/53/1
f 63/42/1 62/43/1 65/54/1 68/55/1
f 79/56/6 80/57/6 83/57/6 84/56/6
f 65/54/6 66/52/6 69/52/6 70/54/6
f 67/53/4 68/55/4 71/55/4 72/53/4
f 68/55/3 65/54/3 70/54/3 71/55/3
f 70/54/1 69/52/1 74/58/1 73/59/1
f 69/52/1 72/53/1 75/60/1 74/58/1
f 72/53/1 71/55/1 76/61/1 75/60/1
f 71/55/1 70/54/1 73/59/1 76/61/1
f 73/59/1 74/58/1 78/62/1 77/63/1
f 74/58/1 75/60/1 79/56/1 78/62/1
f 75/60/1 76/61/1 80/57/1 79/56/1
f 76/61/1 73/59/1 77/63/1 80/57/1
f 82/63/1 81/62/1 84/56/1 83/57/1
f 80/57/2 77/63/2 82/63/2 83/57/2
f 78/62/3 79/56/3 84/56/3 81/62/3
f 77/63/4 78/62/4 81/62/4 82/63/4
f 155/64/1 156/65/1 216/65/1 220/64/1
f 156/65/6 155/64/6 92/25/6 91/11/6
f 141/66/3 142/67/3 96/32/3 95/34/3
f 113/68/2 114/69/2 100/37/2 99/38/2
f 112/70/2 111/71/2 110/72/2 109/73/2
f 118/39/3 121/39/3 189/39/3 187/39/3
f 137/74/5 138/75/5 204/75/5 205/74/5
f 103/39/4 108/39/4 172/39/4 173/39/4
f 120/76/1 119/77/1 157/77/1 188/76/1
f 118/78/4 117/79/4 119/77/4 120/76/4
f 115/80/4 116/81/4 122/82/4 121/83/4
f 138/39/6 142/39/6 203/39/6 204/39/6
f 123/84/4 124/85/4 125/86/4 126/87/4
f 85/16/4 86/15/4 128/88/4 127/89/4
f 135/90/3 136/91/3 130/92/3 129/93/3
f 134/94/3 133/95/3 131/96/3 132/97/3
f 151/39/2 155/39/2 220/39/2 218/39/2
f 101/49/5 102/48/5 170/48/5 171/49/5
f 140/98/3 139/99/3 138/75/3 137/74/3
f 87/39/3 120/39/3 188/39/3 159/39/3
f 154/100/1 153/101/1 208/101/1 219/100/1
f 150/102/6 149/103/6 144/104/6 143/105/6
f 147/106/6 148/107/6 146/108/6 145/109/6
f 102/39/4 111/39/4 169/39/4 170/39/4
f 136/91/1 135/90/1 202/90/1 198/91/1
f 153/101/6 154/100/6 151/110/6 152/111/6
f 144/39/2 154/39/2 219/39/2 210/39/2
f 117/79/5 118/78/5 187/78/5 186/79/5
f 174/40/2 173/41/2 172/47/2 176/46/2
f 167/3/2 166/4/2 168/45/2 175/44/2
f 188/76/4 157/77/4 158/1/4 159/2/4
f 171/49/2 170/48/2 169/71/2 180/70/2
f 179/73/2 178/72/2 177/69/2 181/68/2
f 193/87/4 182/86/4 183/81/4 184/80/4
f 189/83/4 185/82/4 186/79/4 187/78/4
f 194/89/4 190/88/4 191/85/4 192/84/4
f 164/9/3 163/10/3 165/95/3 201/94/3
f 200/97/3 199/96/3 198/91/3 202/90/3
f 197/93/3 196/92/3 195/99/3 206/98/3
f 205/74/3 204/75/3 203/67/3 207/66/3
f 161/12/6 160/23/6 214/107/6 162/106/6
f 212/109/6 213/108/6 215/103/6 211/102/6
f 209/105/6 210/104/6 219/100/6 208/101/6
f 217/111/6 218/110/6 220/64/6 216/65/6
f 121/83/1 122/82/1 185/82/1 189/83/1
f 139/99/1 140/98/1 206/98/1 195/99/1
f 106/39/6 98/39/6 167/39/6 175/39/6
f 141/39/4 137/39/4 205/39/4 207/39/4
f 128/39/2 124/39/2 191/39/2 190/39/2
f 105/45/1 106/44/1 175/44/1 168/45/1
f 124/85/5 123/84/5 192/84/5 191/85/5
f 107/39/6 104/39/6 174/39/6 176/39/6
f 142/67/1 141/66/1 207/66/1 203/67/1
f 153/39/3 143/39/3 209/39/3 208/39/3
f 115/39/3 126/39/3 193/39/3 184/39/3
f 108/47/1 107/46/1 176/46/1 172/47/1
f 126/87/1 125/86/1 182/86/1 193/87/1
f 119/39/2 88/39/2 158/39/2 157/39/2
f 143/105/5 144/104/5 210/104/5 209/105/5
f 123/39/3 127/39/3 194/39/3 192/39/3
f 110/39/4 114/39/4 177/39/4 178/39/4
f 88/39/5 87/39/5 159/39/5 158/39/5
f 150/39/3 145/39/3 212/39/3 211/39/3
f 109/73/5 110/72/5 178/72/5 179/73/5
f 90/39/5 89/39/5 160/39/5 161/39/5
f 127/89/1 128/88/1 190/88/1 194/89/1
f 147/39/3 90/39/3 161/39/3 162/39/3
f 145/109/5 146/108/5 213/108/5 212/109/5
f 112/39/6 101/39/6 171/39/6 180/39/6
f 130/39/6 139/39/6 195/39/6 196/39/6
f 111/71/1 112/70/1 180/70/1 169/71/1
f 89/39/2 148/39/2 214/39/2 160/39/2
f 129/93/5 130/92/5 196/92/5 197/93/5
f 113/39/6 109/39/6 179/39/6 181/39/6
f 94/39/5 93/39/5 163/39/5 164/39/5
f 148/107/1 147/106/1 162/106/1 214/107/1
f 131/39/6 136/39/6 198/39/6 199/39/6
f 146/39/2 149/39/2 215/39/2 213/39/2
f 114/69/1 113/68/1 181/68/1 177/69/1
f 93/39/6 133/39/6 165/39/6 163/39/6
f 132/97/5 131/96/5 199/96/5 200/97/5
f 149/103/1 150/102/1 211/102/1 215/103/1
f 125/39/2 116/39/2 183/39/2 182/39/2
f 98/39/5 97/39/5 166/39/5 167/39/5
f 134/39/4 94/39/4 164/39/4 201/39/4
f 116/81/5 115/80/5 184/80/5 183/81/5
f 156/39/3 152/39/3 217/39/3 216/39/3
f 133/95/1 134/94/1 201/94/1 165/95/1
f 122/39/2 117/39/2 186/39/2 185/39/2
f 97/39/4 105/39/4 168/39/4 166/39/4
f 152/111/5 151/110/5 218/110/5 217/111/5
f 135/39/4 132/39/4 200/39/4 202/39/4
