# Blender 4.0.2
# www.blender.org
mtllib NetworkPort.mtl
o Cube
v 0.500000 0.500000 -0.500000
v 0.500000 -0.500000 -0.500000
v 0.436205 0.173096 0.500000
v 0.436205 -0.436205 0.500000
v -0.500000 0.500000 -0.500000
v -0.500000 -0.500000 -0.500000
v -0.436205 0.173096 0.500000
v -0.436205 -0.436205 0.500000
v -0.500000 -0.500000 0.500000
v -0.500000 0.500000 0.500000
v 0.500000 0.500000 0.500000
v 0.500000 -0.500000 0.500000
v -0.500000 0.500000 0.500000
v 0.500000 0.500000 0.500000
v -0.483240 0.414115 0.500000
v 0.483240 0.414115 0.500000
v 0.436205 0.173096 0.500000
v -0.436205 0.173096 0.500000
v -0.483240 0.414115 0.500000
v 0.483240 0.414115 0.500000
v -0.188875 0.414115 0.500000
v 0.188875 0.414115 0.500000
v 0.188875 0.173096 0.500000
v -0.188875 0.173096 0.500000
v -0.436205 -0.436205 0.164819
v -0.436205 0.414409 0.164819
v 0.436205 0.414409 0.164819
v 0.436205 -0.436205 0.164819
v -0.188875 0.173096 0.164819
v 0.188875 0.173096 0.164819
v 0.188875 0.414115 0.164819
v -0.188875 0.414115 0.164819
v 0.189858 0.173096 0.164819
v -0.436205 0.173096 0.500000
v -0.436205 0.173096 0.164819
v 0.189858 0.173096 0.500000
v -0.188866 0.173096 0.500000
v -0.188866 0.173096 0.164819
v 0.436205 0.173096 0.500000
v 0.436205 0.173096 0.164819
v 0.436205 -0.436205 0.500000
v 0.436205 -0.436205 0.164819
v -0.440489 -0.436205 0.500000
v -0.440489 -0.436205 0.164819
v -0.218103 -0.436205 0.500000
v -0.218103 -0.436205 0.164819
v -0.327154 -0.436205 0.500000
v -0.327154 -0.436205 0.164819
v -0.109051 -0.436205 0.500000
v -0.109051 -0.436205 0.164819
v 0.218103 -0.436205 0.500000
v 0.218103 -0.436205 0.164819
v 0.109051 -0.436205 0.500000
v 0.109051 -0.436205 0.164819
v 0.327154 -0.436205 0.500000
v 0.327154 -0.436205 0.164819
v -0.381680 -0.436205 0.500000
v -0.381680 -0.436205 0.164819
v -0.272628 -0.436205 0.500000
v -0.272628 -0.436205 0.164819
v -0.163577 -0.436205 0.500000
v -0.163577 -0.436205 0.164819
v -0.054526 -0.436205 0.500000
v -0.054526 -0.436205 0.164819
v 0.437877 -0.436205 0.500000
v 0.437877 -0.436205 0.164819
v 0.163577 -0.436205 0.500000
v 0.163577 -0.436205 0.164819
v 0.272628 -0.436205 0.500000
v 0.272628 -0.436205 0.164819
v 0.381680 -0.436205 0.500000
v 0.381680 -0.436205 0.164819
v 0.381680 -0.388311 0.431957
v 0.436205 -0.388311 0.431957
v 0.381680 -0.388311 0.164819
v 0.436205 -0.388311 0.164819
v -0.054526 -0.388311 0.431957
v 0.000000 -0.388311 0.431957
v -0.054526 -0.388311 0.164819
v 0.000000 -0.388311 0.164819
v -0.272628 -0.388311 0.431957
v -0.218103 -0.388311 0.431957
v -0.272628 -0.388311 0.164819
v -0.218103 -0.388311 0.164819
v -0.381680 -0.388311 0.431957
v -0.327154 -0.388311 0.431957
v -0.381680 -0.388311 0.164819
v -0.327154 -0.388311 0.164819
v -0.163577 -0.388311 0.431957
v -0.109051 -0.388311 0.431957
v -0.163577 -0.388311 0.164819
v -0.109051 -0.388311 0.164819
v 0.163577 -0.388311 0.431957
v 0.218103 -0.388311 0.431957
v 0.163577 -0.388311 0.164819
v 0.218103 -0.388311 0.164819
v 0.054526 -0.388311 0.431957
v 0.109051 -0.388311 0.431957
v 0.054526 -0.388311 0.164819
v 0.109051 -0.388311 0.164819
v 0.272628 -0.388311 0.431957
v 0.327154 -0.388311 0.431957
v 0.272628 -0.388311 0.164819
v 0.327154 -0.388311 0.164819
v 0.000000 -0.436205 0.500000
v 0.000000 -0.436205 0.164819
v 0.054526 -0.436205 0.500000
v 0.054526 -0.436205 0.164819
vn -0.0000 1.0000 -0.0000
vn -1.0000 -0.0000 -0.0000
vn -0.0000 -1.0000 -0.0000
vn 1.0000 -0.0000 -0.0000
vn -0.0000 -0.0000 -1.0000
vn -0.0000 -0.0000 1.0000
vn -0.0000 0.8177 0.5756
vt 0.323305 0.323305
vt 0.000000 0.323305
vt 0.000000 0.000000
vt 0.323305 0.000000
vt 0.940631 0.828807
vt 0.862709 0.828807
vt 0.862709 0.720441
vt 0.940631 0.720441
vt 0.000000 0.646610
vt 0.323305 0.646610
vt 0.646610 0.323305
vt 0.646610 0.000000
vt 0.646610 0.646610
vt 0.000000 0.969915
vt 0.323305 0.969915
vt 0.949290 0.302680
vt 0.949290 0.105690
vt 0.969915 0.000000
vt 0.969915 0.323305
vt 0.667235 0.105690
vt 0.667235 0.302680
vt 0.674377 0.328724
vt 0.674377 0.641191
vt 0.674377 0.962256
vt 0.674377 0.882293
vt 0.752300 0.882293
vt 0.752300 0.977463
vt 0.862388 0.828807
vt 0.940311 0.828807
vt 0.940311 0.937173
vt 0.862388 0.937173
vt 1.000000 0.540036
vt 1.000000 0.620000
vt 0.922077 0.635206
vt 0.922077 0.540036
vt 0.598313 0.928664
vt 0.323305 0.928664
vt 0.598313 0.646610
vt 0.782743 0.828807
vt 0.862388 0.828807
vt 0.862388 0.937172
vt 0.782743 0.937172
vt 0.782743 0.685303
vt 0.782743 0.882293
vt 0.674377 0.882293
vt 0.674377 0.607285
vt 0.782743 0.720441
vt 0.782743 0.598313
vt 0.891108 0.598313
vt 0.891108 0.720441
vt 0.782743 0.720441
vt 0.862709 0.720441
vt 0.862709 0.828807
vt 0.782743 0.828807
vt 0.908737 0.675304
vt 0.891108 0.675304
vt 0.891108 0.648402
vt 0.908737 0.648402
vt 0.782743 0.598313
vt 0.782743 0.401323
vt 0.891108 0.323305
vt 0.891108 0.598313
vt 0.922077 0.702206
vt 0.922077 0.719834
vt 0.906593 0.719834
vt 0.906593 0.702206
vt 0.613797 0.646610
vt 0.613797 0.754976
vt 0.598313 0.732977
vt 0.629282 0.646610
vt 0.629282 0.754976
vt 0.613797 0.668608
vt 0.908737 0.702206
vt 0.891109 0.702206
vt 0.891109 0.675304
vt 0.908737 0.675304
vt 0.400727 0.928665
vt 0.400727 0.946293
vt 0.385243 0.946293
vt 0.385243 0.928665
vt 0.644766 0.646610
vt 0.644766 0.754976
vt 0.629282 0.732977
vt 0.660251 0.646610
vt 0.660251 0.754976
vt 0.644766 0.754976
vt 0.644766 0.668608
vt 0.674377 0.607285
vt 0.674377 0.323305
vt 0.782743 0.323305
vt 0.782743 0.607285
vt 0.937562 0.323305
vt 0.955190 0.323305
vt 0.955190 0.409672
vt 0.937562 0.409672
vt 0.598313 0.863341
vt 0.615941 0.863341
vt 0.615941 0.949709
vt 0.598313 0.949709
vt 0.940631 0.720441
vt 0.958260 0.720441
vt 0.958260 0.806808
vt 0.940631 0.806808
vt 0.615941 0.863341
vt 0.633570 0.863341
vt 0.633570 0.949709
vt 0.615941 0.949709
vt 0.940311 0.828807
vt 0.957939 0.828807
vt 0.957939 0.915174
vt 0.940311 0.915174
vt 0.633569 0.863341
vt 0.651198 0.863341
vt 0.651198 0.949709
vt 0.633569 0.949709
vt 0.937562 0.409672
vt 0.955190 0.409672
vt 0.955190 0.496039
vt 0.937562 0.496039
vt 0.651198 0.863341
vt 0.668826 0.863341
vt 0.668826 0.949709
vt 0.651198 0.949709
vt 0.613797 0.754975
vt 0.613797 0.863341
vt 0.598313 0.776974
vt 0.906593 0.702206
vt 0.906593 0.719834
vt 0.891109 0.719834
vt 0.891109 0.702206
vt 0.629282 0.754975
vt 0.629282 0.863341
vt 0.613797 0.776974
vt 0.644766 0.754975
vt 0.644766 0.863341
vt 0.629282 0.841343
vt 0.629282 0.754975
vt 0.943994 0.675304
vt 0.926365 0.675304
vt 0.926365 0.648402
vt 0.943994 0.648402
vt 0.769928 0.909195
vt 0.752300 0.909195
vt 0.752300 0.882293
vt 0.769928 0.882293
vt 0.660251 0.754975
vt 0.660251 0.863341
vt 0.644766 0.841343
vt 0.644766 0.754975
vt 0.369758 0.928664
vt 0.369758 0.946293
vt 0.354274 0.946293
vt 0.354274 0.928664
vt 0.937562 0.702206
vt 0.937562 0.719834
vt 0.922077 0.719834
vt 0.922077 0.702206
vt 0.906593 0.323305
vt 0.906593 0.431671
vt 0.891109 0.431671
vt 0.891109 0.345303
vt 0.906593 0.431671
vt 0.906593 0.540036
vt 0.891109 0.518038
vt 0.891109 0.431671
vt 0.926365 0.675304
vt 0.926365 0.648402
vt 0.906593 0.540036
vt 0.906593 0.648402
vt 0.891109 0.648402
vt 0.891109 0.562035
vt 0.922077 0.323305
vt 0.922077 0.431671
vt 0.906593 0.409672
vt 0.338789 0.928664
vt 0.338789 0.946293
vt 0.323305 0.946293
vt 0.926365 0.702206
vt 0.908737 0.702206
vt 0.908737 0.675304
vt 0.926365 0.675304
vt 0.922077 0.431671
vt 0.922077 0.540036
vt 0.906593 0.453669
vt 0.922077 0.648402
vt 0.906593 0.626404
vt 0.906593 0.540036
vt 0.385243 0.928664
vt 0.385243 0.946293
vt 0.769928 0.936096
vt 0.752300 0.936096
vt 0.752300 0.909194
vt 0.769928 0.909194
vt 0.937562 0.431671
vt 0.922077 0.345303
vt 0.937562 0.431671
vt 0.937562 0.540036
vt 0.922077 0.518038
vt 0.354274 0.928665
vt 0.338789 0.928665
vt 0.943994 0.702206
vt 0.926365 0.702206
vt 0.926365 0.675304
vt 0.943994 0.675304
s 0
usemtl Material
f 1/1/1 5/2/1 10/3/1 11/4/1
f 23/5/2 22/6/2 31/7/2 30/8/2
f 9/9/2 10/2/2 5/1/2 6/10/2
f 6/11/3 2/1/3 12/4/3 9/12/3
f 2/10/4 1/1/4 11/11/4 12/13/4
f 6/14/5 5/9/5 1/10/5 2/15/5
f 8/16/6 7/17/6 10/18/6 9/19/6
f 3/20/6 4/21/6 12/11/6 11/12/6
f 4/21/6 8/16/6 9/19/6 12/11/6
f 15/22/6 16/23/6 14/13/6 13/11/6
f 18/24/6 24/25/6 21/26/6 19/27/6
f 21/28/4 24/29/4 29/30/4 32/31/4
f 23/32/6 17/33/6 20/34/6 22/35/6
f 28/36/6 27/37/6 26/10/6 25/38/6
f 39/39/3 36/40/3 33/41/3 40/42/3
f 7/43/4 8/44/4 25/45/4 26/46/4
f 22/47/3 21/48/3 32/49/3 31/50/3
f 37/51/3 34/52/3 35/53/3 38/54/3
f 57/55/7 47/56/7 86/57/7 85/58/7
f 4/59/2 3/60/2 27/61/2 28/62/2
f 56/63/5 70/64/5 103/65/5 104/66/5
f 64/67/2 63/68/2 77/69/2 79/38/2
f 45/70/4 46/71/4 84/68/4 82/72/4
f 69/73/7 55/74/7 102/75/7 101/76/7
f 46/77/5 60/78/5 83/79/5 84/80/5
f 72/81/2 71/82/2 73/83/2 75/70/2
f 53/84/4 54/85/4 100/86/4 98/87/4
f 43/88/1 65/89/1 66/90/1 44/91/1
f 77/92/1 78/93/1 80/94/1 79/95/1
f 73/96/1 74/97/1 76/98/1 75/99/1
f 81/100/1 82/101/1 84/102/1 83/103/1
f 85/104/1 86/105/1 88/106/1 87/107/1
f 89/108/1 90/109/1 92/110/1 91/111/1
f 93/112/1 94/113/1 96/114/1 95/115/1
f 97/116/1 98/117/1 100/118/1 99/119/1
f 101/120/1 102/121/1 104/122/1 103/123/1
f 55/124/4 56/125/4 104/96/4 102/126/4
f 48/127/5 58/128/5 87/129/5 88/130/5
f 47/131/4 48/132/4 88/125/4 86/133/4
f 108/134/2 107/135/2 97/136/2 99/137/2
f 61/138/7 49/139/7 90/140/7 89/141/7
f 71/142/7 41/143/7 74/144/7 73/145/7
f 58/146/2 57/147/2 85/148/2 87/149/2
f 50/150/5 62/151/5 91/152/5 92/153/5
f 42/154/5 72/155/5 75/156/5 76/157/5
f 49/158/4 50/159/4 92/160/4 90/161/4
f 68/162/2 67/163/2 93/164/2 95/165/2
f 67/166/7 51/55/7 94/58/7 93/167/7
f 41/168/4 42/169/4 76/170/4 74/171/4
f 60/172/2 59/173/2 81/174/2 83/158/2
f 52/175/5 68/176/5 95/177/5 96/37/5
f 63/178/7 105/179/7 78/180/7 77/181/7
f 51/182/4 52/183/4 96/163/4 94/184/4
f 70/35/2 69/185/2 101/186/2 103/187/2
f 106/188/5 64/189/5 79/151/5 80/150/5
f 107/190/7 53/191/7 98/192/7 97/193/7
f 105/92/4 106/194/4 80/173/4 78/195/4
f 62/196/2 61/197/2 89/198/2 91/182/2
f 54/199/5 108/152/5 99/176/5 100/200/5
f 59/201/7 45/202/7 82/203/7 81/204/7
