# Blender 4.0.1
# www.blender.org
mtllib Register.mtl
o Cube
v 0.500000 0.500000 -0.500000
v 0.500000 -0.500000 -0.500000
v 0.500000 0.500000 0.500000
v 0.500000 -0.500000 0.500000
v -0.500000 0.500000 -0.500000
v -0.500000 -0.500000 -0.500000
v -0.500000 0.500000 0.500000
v -0.500000 -0.500000 0.500000
v 0.456822 0.377536 -0.377536
v 0.456822 0.413036 -0.413036
v 0.456822 -0.413036 -0.413036
v 0.456822 -0.377536 -0.377536
v 0.456822 0.377536 0.377536
v 0.456822 0.413036 0.413036
v 0.456822 -0.413036 0.413036
v 0.456822 -0.377536 0.377536
v -0.377536 0.377536 -0.456822
v -0.413036 0.413036 -0.456822
v -0.413036 -0.413036 -0.456822
v -0.377536 -0.377536 -0.456822
v 0.413036 -0.413036 -0.456822
v 0.377536 -0.377536 -0.456822
v 0.377536 0.377536 -0.456822
v 0.413036 0.413036 -0.456822
v -0.377536 -0.456822 0.377536
v -0.413036 -0.456822 0.413036
v 0.413036 -0.456822 0.413036
v 0.377536 -0.456822 0.377536
v 0.413036 -0.456822 -0.413036
v 0.377536 -0.456822 -0.377536
v -0.377536 -0.456822 -0.377536
v -0.413036 -0.456822 -0.413036
v 0.377536 0.500000 -0.377536
v 0.413036 0.500000 -0.413036
v -0.413036 0.500000 -0.413036
v -0.377536 0.500000 -0.377536
v -0.413036 0.500000 0.413036
v -0.377536 0.500000 0.377536
v 0.377536 0.500000 0.377536
v 0.413036 0.500000 0.413036
v 0.377536 -0.377536 0.500000
v 0.413036 -0.413036 0.500000
v 0.413036 0.413036 0.500000
v 0.377536 0.377536 0.500000
v -0.413036 0.413036 0.500000
v -0.377536 0.377536 0.500000
v -0.377536 -0.377536 0.500000
v -0.413036 -0.413036 0.500000
v -0.500000 -0.377536 0.377536
v -0.500000 -0.413036 0.413036
v -0.500000 0.413036 0.413036
v -0.500000 0.377536 0.377536
v -0.500000 0.413036 -0.413036
v -0.500000 0.377536 -0.377536
v -0.500000 -0.377536 -0.377536
v -0.500000 -0.413036 -0.413036
v -0.377536 -0.500000 -0.377536
v -0.413036 -0.500000 -0.413036
v 0.413036 -0.500000 -0.413036
v 0.377536 -0.500000 -0.377536
v 0.413036 -0.500000 0.413036
v 0.377536 -0.500000 0.377536
v -0.377536 -0.500000 0.377536
v -0.413036 -0.500000 0.413036
v 0.500000 -0.377536 -0.377536
v 0.500000 -0.413036 -0.413036
v 0.500000 0.413036 -0.413036
v 0.500000 0.377536 -0.377536
v 0.500000 0.413036 0.413036
v 0.500000 0.377536 0.377536
v 0.500000 -0.377536 0.377536
v 0.500000 -0.413036 0.413036
v -0.377536 -0.377536 -0.500000
v -0.413036 -0.413036 -0.500000
v -0.413036 0.413036 -0.500000
v -0.377536 0.377536 -0.500000
v 0.413036 0.413036 -0.500000
v 0.377536 0.377536 -0.500000
v 0.377536 -0.377536 -0.500000
v 0.413036 -0.413036 -0.500000
v 0.413036 0.456822 -0.413036
v 0.377536 0.456822 -0.377536
v -0.377536 0.456822 -0.377536
v -0.413036 0.456822 -0.413036
v -0.377536 0.456822 0.377536
v -0.413036 0.456822 0.413036
v 0.413036 0.456822 0.413036
v 0.377536 0.456822 0.377536
v -0.456822 0.413036 -0.413036
v -0.456822 0.377536 -0.377536
v -0.456822 -0.377536 -0.377536
v -0.456822 -0.413036 -0.413036
v -0.456822 -0.377536 0.377536
v -0.456822 -0.413036 0.413036
v -0.456822 0.413036 0.413036
v -0.456822 0.377536 0.377536
v -0.413036 0.413036 0.456822
v -0.377536 0.377536 0.456822
v -0.377536 -0.377536 0.456822
v -0.413036 -0.413036 0.456822
v 0.377536 -0.377536 0.456822
v 0.413036 -0.413036 0.456822
v 0.413036 0.413036 0.456822
v 0.377536 0.377536 0.456822
v 0.319255 0.500000 -0.319255
v -0.319255 0.500000 -0.319255
v -0.319255 0.500000 0.319255
v 0.319255 0.500000 0.319255
v -0.319255 0.475813 -0.319255
v 0.319255 0.475813 -0.319255
v 0.319255 0.475813 0.319255
v -0.319255 0.475813 0.319255
vn -0.0000 1.0000 -0.0000
vn -0.0000 -0.0000 1.0000
vn -1.0000 -0.0000 -0.0000
vn -0.0000 -1.0000 -0.0000
vn 1.0000 -0.0000 -0.0000
vn -0.0000 -0.0000 -1.0000
vt 0.625000 0.750000
vt 0.625000 0.500000
vt 0.646741 0.521741
vt 0.646741 0.728259
vt 0.375000 1.000000
vt 0.375000 0.750000
vt 0.396741 0.771741
vt 0.396741 0.978259
vt 0.375000 0.250000
vt 0.375000 0.000000
vt 0.396741 0.021741
vt 0.396741 0.228259
vt 0.125000 0.750000
vt 0.125000 0.500000
vt 0.146741 0.521741
vt 0.146741 0.728259
vt 0.375000 0.500000
vt 0.396741 0.521741
vt 0.396741 0.728259
vt 0.396741 0.271741
vt 0.396741 0.478259
vt 0.670186 0.704814
vt 0.670186 0.545186
vt 0.875000 0.750000
vt 0.646741 0.728259
vt 0.853259 0.728259
vt 0.603259 0.771741
vt 0.396741 0.771741
vt 0.875000 0.500000
vt 0.853259 0.728259
vt 0.853259 0.521741
vt 0.405616 0.780616
vt 0.594384 0.780616
vt 0.594384 0.969384
vt 0.405616 0.969384
vt 0.625000 1.000000
vt 0.396741 0.978259
vt 0.603259 0.978259
vt 0.625000 0.000000
vt 0.603259 0.021741
vt 0.396741 0.021741
vt 0.603259 0.771741
vt 0.405616 0.030616
vt 0.594384 0.030616
vt 0.594384 0.219384
vt 0.405616 0.219384
vt 0.625000 0.250000
vt 0.396741 0.228259
vt 0.603259 0.228259
vt 0.353259 0.521741
vt 0.146741 0.521741
vt 0.155616 0.530616
vt 0.344384 0.530616
vt 0.344384 0.719384
vt 0.155616 0.719384
vt 0.353259 0.728259
vt 0.603259 0.521741
vt 0.396741 0.521741
vt 0.353259 0.728259
vt 0.353259 0.521741
vt 0.405616 0.530616
vt 0.594384 0.530616
vt 0.594384 0.719384
vt 0.405616 0.719384
vt 0.396741 0.728259
vt 0.603259 0.728259
vt 0.603259 0.271741
vt 0.396741 0.271741
vt 0.405616 0.280616
vt 0.594384 0.280616
vt 0.594384 0.469384
vt 0.405616 0.469384
vt 0.396741 0.478259
vt 0.603259 0.478259
vt 0.844384 0.530616
vt 0.655616 0.530616
vt 0.646741 0.521741
vt 0.853259 0.521741
vt 0.603259 0.478259
vt 0.603259 0.271741
vt 0.844384 0.719384
vt 0.655616 0.719384
vt 0.829814 0.545186
vt 0.829814 0.704814
s 0
usemtl Material
f 3/1/1 1/2/1 34/3/1 40/4/1
f 8/5/2 4/6/2 42/7/2 48/8/2
f 6/9/3 8/10/3 50/11/3 56/12/3
f 8/13/4 6/14/4 58/15/4 64/16/4
f 4/6/5 2/17/5 66/18/5 72/19/5
f 2/17/6 6/9/6 74/20/6 80/21/6
f 108/22/3 105/23/3 110/23/3 111/22/3
f 7/24/1 3/1/1 40/25/1 37/26/1
f 4/6/2 3/1/2 43/27/2 42/28/2
f 5/29/1 7/24/1 37/30/1 35/31/1
f 41/32/2 44/33/2 46/34/2 47/35/2
f 7/36/2 8/5/2 48/37/2 45/38/2
f 8/10/3 7/39/3 51/40/3 50/41/3
f 3/1/2 7/36/2 45/38/2 43/42/2
f 49/43/3 52/44/3 54/45/3 55/46/3
f 5/47/3 6/9/3 56/48/3 53/49/3
f 6/14/4 2/17/4 59/50/4 58/51/4
f 7/39/3 5/47/3 53/49/3 51/40/3
f 57/52/4 60/53/4 62/54/4 63/55/4
f 4/6/4 8/13/4 64/16/4 61/56/4
f 2/17/5 1/2/5 67/57/5 66/58/5
f 2/17/4 4/6/4 61/59/4 59/60/4
f 65/61/5 68/62/5 70/63/5 71/64/5
f 3/1/5 4/6/5 72/65/5 69/66/5
f 6/9/6 5/47/6 75/67/6 74/68/6
f 1/2/5 3/1/5 69/66/5 67/57/5
f 73/69/6 76/70/6 78/71/6 79/72/6
f 1/2/6 2/17/6 80/73/6 77/74/6
f 31/75/1 30/76/1 29/77/1 32/78/1
f 5/47/6 1/2/6 77/79/6 75/80/6
f 38/81/3 36/75/3 31/75/3 25/81/3
f 46/34/1 44/33/1 23/33/1 17/34/1
f 76/70/3 73/69/3 99/69/3 98/70/3
f 53/49/2 56/48/2 11/48/2 10/49/2
f 61/56/6 64/16/6 86/16/6 87/56/6
f 54/45/1 52/44/1 13/44/1 9/45/1
f 40/4/3 34/3/3 29/3/3 27/4/3
f 63/55/2 62/54/2 88/54/2 85/55/2
f 43/42/4 45/38/4 18/38/4 24/42/4
f 71/64/2 70/63/2 96/63/2 93/64/2
f 59/60/3 61/59/3 87/59/3 81/60/3
f 41/32/4 47/35/4 20/35/4 22/32/4
f 69/66/6 72/65/6 94/65/6 95/66/6
f 51/40/4 53/49/4 10/49/4 14/40/4
f 33/76/5 39/82/5 28/82/5 30/76/5
f 79/72/5 78/71/5 104/71/5 101/72/5
f 62/54/5 60/53/5 82/53/5 88/54/5
f 48/8/1 42/7/1 21/7/1 19/8/1
f 70/63/1 68/62/1 90/62/1 96/63/1
f 49/43/4 55/46/4 12/46/4 16/43/4
f 34/77/2 35/78/2 32/78/2 29/77/2
f 77/74/3 80/73/3 102/73/3 103/74/3
f 56/12/1 50/11/1 15/11/1 11/12/1
f 78/71/1 76/70/1 98/70/1 104/71/1
f 1/2/1 5/29/1 35/78/1 34/77/1
f 30/76/1 28/82/1 27/4/1 29/3/1
f 25/81/1 31/75/1 32/31/1 26/30/1
f 28/82/1 25/81/1 26/26/1 27/25/1
f 23/33/2 22/32/2 21/28/2 24/27/2
f 19/8/2 21/7/2 22/32/2 20/35/2
f 24/42/2 18/38/2 17/34/2 23/33/2
f 20/35/2 17/34/2 18/38/2 19/37/2
f 15/41/3 14/40/3 13/44/3 16/43/3
f 11/12/3 15/11/3 16/43/3 12/46/3
f 14/40/3 10/49/3 9/45/3 13/44/3
f 10/49/3 11/48/3 12/46/3 9/45/3
f 82/53/4 83/52/4 84/51/4 81/50/4
f 83/52/4 85/55/4 86/16/4 84/15/4
f 88/54/4 82/53/4 81/60/4 87/59/4
f 85/55/4 88/54/4 87/56/4 86/16/4
f 90/62/5 91/61/5 92/58/5 89/57/5
f 94/19/5 92/18/5 91/61/5 93/64/5
f 89/57/5 95/66/5 96/63/5 90/62/5
f 95/66/5 94/65/5 93/64/5 96/63/5
f 98/70/6 99/69/6 100/68/6 97/67/6
f 102/21/6 100/20/6 99/69/6 101/72/6
f 97/80/6 103/79/6 104/71/6 98/70/6
f 103/74/6 102/73/6 101/72/6 104/71/6
f 55/46/6 54/45/6 9/45/6 12/46/6
f 47/35/3 46/34/3 17/34/3 20/35/3
f 68/62/6 65/61/6 91/61/6 90/62/6
f 35/31/5 37/30/5 26/30/5 32/31/5
f 74/68/5 75/67/5 97/67/5 100/68/5
f 45/38/5 48/37/5 19/37/5 18/38/5
f 39/82/2 38/81/2 25/81/2 28/82/2
f 60/53/6 57/52/6 83/52/6 82/53/6
f 66/58/2 67/57/2 89/57/2 92/58/2
f 37/26/6 40/25/6 27/25/6 26/26/6
f 80/21/1 74/20/1 100/20/1 102/21/1
f 50/41/6 51/40/6 14/40/6 15/41/6
f 58/51/2 59/50/2 81/50/2 84/51/2
f 73/69/4 79/72/4 101/72/4 99/69/4
f 72/19/1 66/18/1 92/18/1 94/19/1
f 44/33/5 41/32/5 22/32/5 23/33/5
f 57/52/3 63/55/3 85/55/3 83/52/3
f 75/80/4 77/79/4 103/79/4 97/80/4
f 52/44/2 49/43/2 16/43/2 13/44/2
f 65/61/4 71/64/4 93/64/4 91/61/4
f 36/75/6 33/76/6 30/76/6 31/75/6
f 67/57/4 69/66/4 95/66/4 89/57/4
f 42/28/3 43/27/3 24/27/3 21/28/3
f 64/16/5 58/15/5 84/15/5 86/16/5
f 33/76/1 36/75/1 106/83/1 105/23/1
f 36/75/1 38/81/1 107/84/1 106/83/1
f 38/81/1 39/82/1 108/22/1 107/84/1
f 39/82/1 33/76/1 105/23/1 108/22/1
f 110/23/1 109/83/1 112/84/1 111/22/1
f 106/83/5 107/84/5 112/84/5 109/83/5
f 105/23/2 106/83/2 109/83/2 110/23/2
f 107/84/6 108/22/6 111/22/6 112/84/6
