# Blender 4.0.2
# www.blender.org
mtllib SeatController.mtl
o Cube
v -0.500000 -0.500000 0.500000
v -0.500000 0.500000 0.500000
v -0.500000 -0.500000 -0.500000
v -0.500000 0.500000 -0.500000
v 0.500000 -0.500000 0.500000
v 0.500000 0.500000 0.500000
v 0.500000 -0.500000 -0.500000
v 0.500000 0.500000 -0.500000
v -0.500000 -0.380056 0.380056
v -0.500000 0.380056 0.380056
v -0.500000 0.380056 -0.380056
v -0.500000 -0.380056 -0.380056
v -0.380056 -0.380056 -0.500000
v -0.380056 0.380056 -0.500000
v 0.380056 0.380056 -0.500000
v 0.380056 -0.380056 -0.500000
v 0.500000 -0.380056 -0.380056
v 0.500000 0.380056 -0.380056
v 0.500000 0.380056 0.380056
v 0.500000 -0.380056 0.380056
v 0.380056 -0.380056 0.500000
v 0.380056 0.380056 0.500000
v -0.380056 0.380056 0.500000
v -0.380056 -0.380056 0.500000
v -0.380056 -0.500000 -0.380056
v 0.380056 -0.500000 -0.380056
v 0.380056 -0.500000 0.380056
v -0.380056 -0.500000 0.380056
v 0.380056 0.500000 -0.380056
v -0.380056 0.500000 -0.380056
v -0.380056 0.500000 0.380056
v 0.380056 0.500000 0.380056
v -0.431425 -0.380056 0.380056
v -0.431425 0.380056 0.380056
v -0.431425 -0.380056 -0.380056
v -0.431425 0.380056 -0.380056
v -0.380056 0.380056 -0.431425
v -0.380056 -0.380056 -0.431425
v 0.380056 -0.380056 -0.431425
v 0.380056 0.380056 -0.431425
v 0.431425 0.380056 -0.380056
v 0.431425 -0.380056 -0.380056
v 0.431425 -0.380056 0.380056
v 0.431425 0.380056 0.380056
v 0.380056 0.380056 0.431425
v 0.380056 -0.380056 0.431425
v -0.380056 -0.380056 0.431425
v -0.380056 0.380056 0.431425
v 0.380056 -0.431425 -0.380056
v -0.380056 -0.431425 -0.380056
v -0.380056 -0.431425 0.380056
v 0.380056 -0.431425 0.380056
v -0.380056 0.431425 -0.380056
v 0.380056 0.431425 -0.380056
v 0.380056 0.431425 0.380056
v -0.380056 0.431425 0.380056
v -0.431425 -0.269051 0.269051
v -0.431425 0.269051 0.269051
v -0.431425 0.269051 -0.269051
v -0.431425 -0.269051 -0.269051
v -0.269051 -0.269051 -0.431425
v -0.269051 0.269051 -0.431425
v 0.269051 0.269051 -0.431425
v 0.269051 -0.269051 -0.431425
v 0.431425 -0.269051 -0.269051
v 0.431425 0.269051 -0.269051
v 0.431425 0.269051 0.269051
v 0.431425 -0.269051 0.269051
v 0.269051 -0.269051 0.431425
v 0.269051 0.269051 0.431425
v -0.269051 0.269051 0.431425
v -0.269051 -0.269051 0.431425
v -0.269051 -0.431425 -0.269051
v 0.269051 -0.431425 -0.269051
v 0.269051 -0.431425 0.269051
v -0.269051 -0.431425 0.269051
v 0.269051 0.431425 -0.269051
v -0.269051 0.431425 -0.269051
v -0.269051 0.431425 0.269051
v 0.269051 0.431425 0.269051
v -0.380678 -0.249088 0.249088
v -0.400641 -0.269051 0.269051
v -0.400641 0.269051 0.269051
v -0.380678 0.249088 0.249088
v -0.380678 -0.249088 -0.249088
v -0.400641 -0.269051 -0.269051
v -0.400641 0.269051 -0.269051
v -0.380678 0.249088 -0.249088
v -0.269051 0.269051 -0.400641
v -0.249088 0.249088 -0.380678
v -0.249088 -0.249088 -0.380678
v -0.269051 -0.269051 -0.400641
v 0.249088 -0.249088 -0.380678
v 0.269051 -0.269051 -0.400641
v 0.269051 0.269051 -0.400641
v 0.249088 0.249088 -0.380678
v 0.400641 0.269051 -0.269051
v 0.380678 0.249088 -0.249088
v 0.380678 -0.249088 -0.249088
v 0.400641 -0.269051 -0.269051
v 0.380678 -0.249088 0.249088
v 0.400641 -0.269051 0.269051
v 0.400641 0.269051 0.269051
v 0.380678 0.249088 0.249088
v 0.269051 0.269051 0.400641
v 0.249088 0.249088 0.380678
v 0.249088 -0.249088 0.380678
v 0.269051 -0.269051 0.400641
v -0.249088 -0.249088 0.380678
v -0.269051 -0.269051 0.400641
v -0.269051 0.269051 0.400641
v -0.249088 0.249088 0.380678
v 0.269051 -0.400641 -0.269051
v 0.249088 -0.380678 -0.249088
v -0.249088 -0.380678 -0.249088
v -0.269051 -0.400641 -0.269051
v -0.249088 -0.380678 0.249088
v -0.269051 -0.400641 0.269051
v 0.269051 -0.400641 0.269051
v 0.249088 -0.380678 0.249088
v -0.269051 0.400641 -0.269051
v -0.249088 0.380678 -0.249088
v 0.249088 0.380678 -0.249088
v 0.269051 0.400641 -0.269051
v 0.249088 0.380678 0.249088
v 0.269051 0.400641 0.269051
v -0.269051 0.400641 0.269051
v -0.249088 0.380678 0.249088
vn -0.0000 1.0000 -0.0000
vn -0.0000 -1.0000 -0.0000
vn -0.0000 -0.0000 1.0000
vn -1.0000 -0.0000 -0.0000
vn -0.0000 -0.0000 -1.0000
vn 1.0000 -0.0000 -0.0000
vn -0.7071 -0.0000 -0.7071
vn -0.7071 0.7071 -0.0000
vn -0.7071 -0.7071 -0.0000
vn -0.7071 -0.0000 0.7071
vn 0.7071 -0.0000 -0.7071
vn -0.0000 0.7071 -0.7071
vn -0.0000 -0.7071 -0.7071
vn 0.7071 -0.0000 0.7071
vn 0.7071 0.7071 -0.0000
vn 0.7071 -0.7071 -0.0000
vn -0.0000 0.7071 0.7071
vn -0.0000 -0.7071 0.7071
vt 0.404986 0.970014
vt 0.404986 0.779986
vt 0.595014 0.279986
vt 0.595014 0.470014
vt 0.154986 0.529986
vt 0.345014 0.529986
vt 0.404986 0.720014
vt 0.404986 0.529986
vt 0.595014 0.029986
vt 0.595014 0.220014
vt 0.595014 0.779986
vt 0.375000 0.000000
vt 0.625000 0.000000
vt 0.404986 0.029986
vt 0.625000 0.250000
vt 0.375000 0.250000
vt 0.404986 0.220014
vt 0.404986 0.279986
vt 0.625000 0.500000
vt 0.375000 0.500000
vt 0.404986 0.470014
vt 0.595014 0.529986
vt 0.625000 0.750000
vt 0.595014 0.720014
vt 0.375000 0.750000
vt 0.625000 1.000000
vt 0.595014 0.970014
vt 0.375000 1.000000
vt 0.125000 0.500000
vt 0.345014 0.720014
vt 0.125000 0.750000
vt 0.154986 0.720014
vt 0.875000 0.500000
vt 0.845014 0.529986
vt 0.654986 0.529986
vt 0.875000 0.750000
vt 0.845014 0.720014
vt 0.654986 0.720014
vt 0.682737 0.557737
vt 0.817263 0.557737
vt 0.682737 0.692263
vt 0.182737 0.557737
vt 0.317263 0.557737
vt 0.182737 0.692263
vt 0.432737 0.807737
vt 0.567263 0.807737
vt 0.432737 0.807737
vt 0.817263 0.692263
vt 0.817263 0.692263
vt 0.567263 0.057737
vt 0.432737 0.057737
vt 0.567263 0.192263
vt 0.432737 0.192263
vt 0.567263 0.307737
vt 0.432737 0.307737
vt 0.567263 0.442263
vt 0.432737 0.442263
vt 0.567263 0.557737
vt 0.432737 0.557737
vt 0.567263 0.692263
vt 0.432737 0.692263
vt 0.567263 0.942263
vt 0.432737 0.942263
vt 0.317263 0.692263
vt 0.432737 0.192263
vt 0.817263 0.557737
vt 0.437728 0.062728
vt 0.562272 0.062728
vt 0.562272 0.187272
vt 0.437728 0.187272
vt 0.437728 0.312728
vt 0.562272 0.312728
vt 0.562272 0.437272
vt 0.437728 0.437272
vt 0.567263 0.057737
vt 0.437728 0.562728
vt 0.562272 0.562728
vt 0.562272 0.687272
vt 0.437728 0.687272
vt 0.437728 0.812728
vt 0.562272 0.812728
vt 0.562272 0.937272
vt 0.437728 0.937272
vt 0.567263 0.692263
vt 0.187728 0.562728
vt 0.312272 0.562728
vt 0.312272 0.687272
vt 0.187728 0.687272
vt 0.432737 0.442263
vt 0.567263 0.942263
vt 0.687728 0.562728
vt 0.812272 0.562728
vt 0.812272 0.687272
vt 0.687728 0.687272
vt 0.432737 0.307737
vt 0.317263 0.692263
vt 0.432737 0.557737
vt 0.432737 0.057737
s 0
usemtl Material.002
f 24/1/1 21/2/1 46/2/1 47/1/1
f 14/3/2 15/4/2 40/4/2 37/3/2
f 25/5/3 26/6/3 49/6/3 50/5/3
f 20/7/1 17/8/1 42/8/1 43/7/1
f 10/9/2 11/10/2 36/10/2 34/9/2
f 21/2/4 22/11/4 45/11/4 46/2/4
f 1/12/4 2/13/4 10/9/4 9/14/4
f 2/13/4 4/15/4 11/10/4 10/9/4
f 4/15/4 3/16/4 12/17/4 11/10/4
f 3/16/4 1/12/4 9/14/4 12/17/4
f 3/16/5 4/15/5 14/3/5 13/18/5
f 4/15/5 8/19/5 15/4/5 14/3/5
f 8/19/5 7/20/5 16/21/5 15/4/5
f 7/20/5 3/16/5 13/18/5 16/21/5
f 7/20/6 8/19/6 18/22/6 17/8/6
f 8/19/6 6/23/6 19/24/6 18/22/6
f 6/23/6 5/25/6 20/7/6 19/24/6
f 5/25/6 7/20/6 17/8/6 20/7/6
f 5/25/3 6/23/3 22/11/3 21/2/3
f 6/23/3 2/26/3 23/27/3 22/11/3
f 2/26/3 1/28/3 24/1/3 23/27/3
f 1/28/3 5/25/3 21/2/3 24/1/3
f 3/29/2 7/20/2 26/6/2 25/5/2
f 7/20/2 5/25/2 27/30/2 26/6/2
f 5/25/2 1/31/2 28/32/2 27/30/2
f 1/31/2 3/29/2 25/5/2 28/32/2
f 8/19/1 4/33/1 30/34/1 29/35/1
f 4/33/1 2/36/1 31/37/1 30/34/1
f 2/36/1 6/23/1 32/38/1 31/37/1
f 6/23/1 8/19/1 29/35/1 32/38/1
f 77/39/3 78/40/3 121/40/3 124/39/3
f 80/41/4 77/39/4 124/39/4 126/41/4
f 73/42/3 74/43/3 113/43/3 116/42/3
f 76/44/6 73/42/6 116/42/6 118/44/6
f 69/45/4 70/46/4 105/46/4 108/47/4
f 79/48/5 80/41/5 126/41/5 127/49/5
f 29/35/3 30/34/3 53/34/3 54/35/3
f 11/10/3 12/17/3 35/17/3 36/10/3
f 18/22/2 19/24/2 44/24/2 41/22/2
f 28/32/6 25/5/6 50/5/6 51/32/6
f 15/4/4 16/21/4 39/21/4 40/4/4
f 22/11/2 23/27/2 48/27/2 45/11/2
f 32/38/4 29/35/4 54/35/4 55/38/4
f 19/24/5 20/7/5 43/7/5 44/24/5
f 26/6/4 27/30/4 52/30/4 49/6/4
f 23/27/6 24/1/6 47/1/6 48/27/6
f 30/34/6 31/37/6 56/37/6 53/34/6
f 27/30/5 28/32/5 51/32/5 52/30/5
f 31/37/5 32/38/5 55/38/5 56/37/5
f 9/14/5 10/9/5 34/9/5 33/14/5
f 13/18/6 14/3/6 37/3/6 38/18/6
f 12/17/1 9/14/1 33/14/1 35/17/1
f 17/8/3 18/22/3 41/22/3 42/8/3
f 16/21/1 13/18/1 38/18/1 39/21/1
f 33/14/4 34/9/4 58/50/4 57/51/4
f 34/9/4 36/10/4 59/52/4 58/50/4
f 36/10/4 35/17/4 60/53/4 59/52/4
f 35/17/4 33/14/4 57/51/4 60/53/4
f 38/18/5 37/3/5 62/54/5 61/55/5
f 37/3/5 40/4/5 63/56/5 62/54/5
f 40/4/5 39/21/5 64/57/5 63/56/5
f 39/21/5 38/18/5 61/55/5 64/57/5
f 42/8/6 41/22/6 66/58/6 65/59/6
f 41/22/6 44/24/6 67/60/6 66/58/6
f 44/24/6 43/7/6 68/61/6 67/60/6
f 43/7/6 42/8/6 65/59/6 68/61/6
f 46/2/3 45/11/3 70/46/3 69/45/3
f 45/11/3 48/27/3 71/62/3 70/46/3
f 48/27/3 47/1/3 72/63/3 71/62/3
f 47/1/3 46/2/3 69/45/3 72/63/3
f 50/5/2 49/6/2 74/43/2 73/42/2
f 49/6/2 52/30/2 75/64/2 74/43/2
f 52/30/2 51/32/2 76/44/2 75/64/2
f 51/32/2 50/5/2 73/42/2 76/44/2
f 54/35/1 53/34/1 78/40/1 77/39/1
f 53/34/1 56/37/1 79/48/1 78/40/1
f 56/37/1 55/38/1 80/41/1 79/48/1
f 55/38/1 54/35/1 77/39/1 80/41/1
f 60/53/1 57/51/1 82/51/1 86/65/1
f 62/54/2 63/56/2 95/56/2 89/54/2
f 66/58/2 67/60/2 103/60/2 97/58/2
f 70/46/2 71/62/2 111/62/2 105/46/2
f 74/43/4 75/64/4 119/64/4 113/43/4
f 78/40/6 79/48/6 127/48/6 121/66/6
f 81/67/4 84/68/4 88/69/4 85/70/4
f 91/71/5 90/72/5 96/73/5 93/74/5
f 58/50/2 59/52/2 87/52/2 83/75/2
f 99/76/6 98/77/6 104/78/6 101/79/6
f 63/56/4 64/57/4 94/57/4 95/56/4
f 107/80/3 106/81/3 112/82/3 109/83/3
f 59/52/3 60/53/3 86/53/3 87/52/3
f 67/60/5 68/61/5 102/61/5 103/84/5
f 115/85/2 114/86/2 120/87/2 117/88/2
f 64/57/1 61/55/1 92/55/1 94/89/1
f 71/62/6 72/63/6 110/63/6 111/90/6
f 123/91/1 122/92/1 128/93/1 125/94/1
f 61/55/6 62/54/6 89/54/6 92/95/6
f 68/61/1 65/59/1 100/59/1 102/61/1
f 75/64/5 76/44/5 118/44/5 119/96/5
f 65/59/3 66/58/3 97/58/3 100/97/3
f 72/63/1 69/45/1 108/45/1 110/63/1
f 82/98/7 83/50/7 84/68/7 81/67/7
f 86/65/8 82/51/8 81/67/8 85/70/8
f 83/75/9 87/52/9 88/69/9 84/68/9
f 87/52/10 86/53/10 85/70/10 88/69/10
f 90/72/11 91/71/11 92/95/11 89/54/11
f 94/89/12 92/55/12 91/71/12 93/74/12
f 89/54/13 95/56/13 96/73/13 90/72/13
f 95/56/7 94/57/7 93/74/7 96/73/7
f 98/77/14 99/76/14 100/97/14 97/58/14
f 102/61/15 100/59/15 99/76/15 101/79/15
f 97/58/16 103/60/16 104/78/16 98/77/16
f 103/84/11 102/61/11 101/79/11 104/78/11
f 106/81/10 107/80/10 108/47/10 105/46/10
f 110/63/17 108/45/17 107/80/17 109/83/17
f 105/46/18 111/62/18 112/82/18 106/81/18
f 109/83/14 112/82/14 111/90/14 110/63/14
f 114/86/18 115/85/18 116/42/18 113/43/18
f 115/85/16 117/88/16 118/44/16 116/42/16
f 120/87/9 114/86/9 113/43/9 119/64/9
f 117/88/13 120/87/13 119/96/13 118/44/13
f 122/92/17 123/91/17 124/39/17 121/40/17
f 123/91/8 125/94/8 126/41/8 124/39/8
f 128/93/15 122/92/15 121/66/15 127/48/15
f 125/94/12 128/93/12 127/49/12 126/41/12
f 57/51/5 58/50/5 83/50/5 82/98/5
