# Blender 4.0.2
# www.blender.org
mtllib Speaker.mtl
o Cube
v -1.000000 -1.000000 -1.000000
v -1.000000 1.000000 -1.000000
v 1.000000 -1.000000 -1.000000
v 1.000000 1.000000 -1.000000
v -0.911350 -0.911350 1.000000
v -0.911350 0.911350 1.000000
v 0.911350 -0.911350 1.000000
v 0.911350 0.911350 1.000000
v 1.000000 1.000000 1.000000
v 1.000000 -1.000000 1.000000
v -1.000000 -1.000000 1.000000
v -1.000000 1.000000 1.000000
v 0.093306 0.093306 0.942709
v 0.093306 -0.093306 0.942709
v -0.093306 -0.093306 0.942709
v -0.093306 0.093306 0.942709
v 0.911350 0.911350 0.929333
v 0.911350 -0.911350 0.929333
v -0.911350 -0.911350 0.929333
v -0.911350 0.911350 0.929333
v 0.763772 0.763772 0.929333
v 0.763772 -0.763772 0.929333
v -0.763772 -0.763772 0.929333
v -0.763772 0.763772 0.929333
v 0.693650 0.693650 0.895363
v 0.693650 -0.693650 0.895363
v -0.693650 -0.693650 0.895363
v -0.693650 0.693650 0.895363
v 0.618840 0.618840 0.866352
v 0.618840 -0.618840 0.866352
v -0.618840 -0.618840 0.866352
v -0.618840 0.618840 0.866352
v 0.541442 0.541442 0.824166
v 0.541442 -0.541442 0.824166
v -0.541442 -0.541442 0.824166
v -0.541442 0.541442 0.824166
v 0.471662 0.471662 0.762873
v 0.471662 -0.471662 0.762873
v -0.471662 -0.471662 0.762873
v -0.471662 0.471662 0.762873
v 0.403179 0.403179 0.839029
v 0.403179 -0.403179 0.839029
v -0.403179 -0.403179 0.839029
v -0.403179 0.403179 0.839029
v 0.327323 0.327323 0.891163
v 0.327323 -0.327323 0.891163
v -0.327323 -0.327323 0.891163
v -0.327323 0.327323 0.891163
v 0.233757 0.233757 0.914037
v 0.233757 -0.233757 0.914037
v -0.233757 -0.233757 0.914037
v -0.233757 0.233757 0.914037
v 0.167086 0.167086 0.926595
v 0.167086 -0.167086 0.926595
v -0.167086 -0.167086 0.926595
v -0.167086 0.167086 0.926595
vn -0.0000 -0.0000 -1.0000
vn 1.0000 -0.0000 -0.0000
vn -0.0000 -1.0000 -0.0000
vn -1.0000 -0.0000 -0.0000
vn -0.0000 1.0000 -0.0000
vn -0.0000 -0.0000 1.0000
vn -0.4360 -0.0000 0.9000
vn -0.0000 0.4360 0.9000
vn -0.0000 -0.4360 0.9000
vn 0.4360 -0.0000 0.9000
vn -0.3616 -0.0000 0.9323
vn -0.0000 0.3616 0.9323
vn -0.0000 -0.3616 0.9323
vn 0.3616 -0.0000 0.9323
vn -0.4786 -0.0000 0.8780
vn -0.0000 0.4786 0.8780
vn -0.0000 -0.4786 0.8780
vn 0.4786 -0.0000 0.8780
vn -0.6599 -0.0000 0.7513
vn -0.0000 0.6599 0.7513
vn -0.0000 -0.6599 0.7513
vn 0.6599 -0.0000 0.7513
vn 0.7436 -0.0000 0.6687
vn -0.0000 -0.7436 0.6687
vn -0.0000 0.7436 0.6687
vn -0.7436 -0.0000 0.6687
vn 0.5664 -0.0000 0.8241
vn -0.0000 -0.5664 0.8241
vn -0.0000 0.5664 0.8241
vn -0.5664 -0.0000 0.8241
vn 0.2375 -0.0000 0.9714
vn -0.0000 -0.2375 0.9714
vn -0.0000 0.2375 0.9714
vn -0.2375 -0.0000 0.9714
vn 0.1851 -0.0000 0.9827
vn -0.0000 -0.1851 0.9827
vn -0.0000 0.1851 0.9827
vn -0.1851 -0.0000 0.9827
vn 0.2134 -0.0000 0.9770
vn -0.0000 -0.2134 0.9770
vn -0.0000 0.2134 0.9770
vn -0.2134 -0.0000 0.9770
vt 0.375000 0.000000
vt 0.625000 0.000000
vt 0.625000 0.250000
vt 0.375000 0.250000
vt 0.625000 0.500000
vt 0.375000 0.500000
vt 0.613919 0.511081
vt 0.613919 0.738919
vt 0.375000 0.750000
vt 0.625000 0.750000
vt 0.625000 1.000000
vt 0.375000 1.000000
vt 0.125000 0.500000
vt 0.125000 0.750000
vt 0.875000 0.500000
vt 0.875000 0.750000
vt 0.386081 0.511081
vt 0.386081 0.738919
vt 0.486874 0.611874
vt 0.513126 0.611874
vt 0.513126 0.638126
vt 0.486874 0.638126
vt 0.607447 0.517553
vt 0.392553 0.517553
vt 0.392553 0.732447
vt 0.607447 0.732447
vt 0.597583 0.527417
vt 0.402417 0.527417
vt 0.402417 0.722582
vt 0.597583 0.722582
vt 0.587058 0.537942
vt 0.412942 0.537942
vt 0.412942 0.712058
vt 0.587058 0.712058
vt 0.576170 0.548830
vt 0.423830 0.548830
vt 0.423830 0.701170
vt 0.576170 0.701170
vt 0.566353 0.558647
vt 0.433647 0.558647
vt 0.433647 0.691353
vt 0.566353 0.691353
vt 0.556719 0.568281
vt 0.443281 0.568281
vt 0.443281 0.681719
vt 0.556719 0.681719
vt 0.546048 0.578952
vt 0.453952 0.578952
vt 0.453952 0.671048
vt 0.546048 0.671048
vt 0.532885 0.592115
vt 0.467115 0.592115
vt 0.467115 0.657885
vt 0.532885 0.657885
vt 0.523506 0.601494
vt 0.476494 0.601494
vt 0.476494 0.648506
vt 0.523506 0.648506
s 0
usemtl Material.002
f 1/1/1 2/2/1 4/3/1 3/4/1
f 3/4/2 4/3/2 9/5/2 10/6/2
f 8/7/3 6/8/3 20/8/3 17/7/3
f 11/9/4 12/10/4 2/11/4 1/12/4
f 3/13/3 10/6/3 11/9/3 1/14/3
f 9/5/5 4/15/5 2/16/5 12/10/5
f 8/7/6 7/17/6 10/6/6 9/5/6
f 7/17/6 5/18/6 11/9/6 10/6/6
f 6/8/6 8/7/6 9/5/6 12/10/6
f 5/18/6 6/8/6 12/10/6 11/9/6
f 14/19/6 13/20/6 16/21/6 15/22/6
f 7/17/4 8/7/4 17/7/4 18/17/4
f 6/8/2 5/18/2 19/18/2 20/8/2
f 5/18/5 7/17/5 18/17/5 19/18/5
f 21/23/6 22/24/6 18/17/6 17/7/6
f 22/24/6 23/25/6 19/18/6 18/17/6
f 24/26/6 21/23/6 17/7/6 20/8/6
f 23/25/6 24/26/6 20/8/6 19/18/6
f 25/27/7 26/28/7 22/24/7 21/23/7
f 26/28/8 27/29/8 23/25/8 22/24/8
f 28/30/9 25/27/9 21/23/9 24/26/9
f 27/29/10 28/30/10 24/26/10 23/25/10
f 29/31/11 30/32/11 26/28/11 25/27/11
f 30/32/12 31/33/12 27/29/12 26/28/12
f 32/34/13 29/31/13 25/27/13 28/30/13
f 31/33/14 32/34/14 28/30/14 27/29/14
f 33/35/15 34/36/15 30/32/15 29/31/15
f 34/36/16 35/37/16 31/33/16 30/32/16
f 36/38/17 33/35/17 29/31/17 32/34/17
f 35/37/18 36/38/18 32/34/18 31/33/18
f 37/39/19 38/40/19 34/36/19 33/35/19
f 38/40/20 39/41/20 35/37/20 34/36/20
f 40/42/21 37/39/21 33/35/21 36/38/21
f 39/41/22 40/42/22 36/38/22 35/37/22
f 41/43/23 42/44/23 38/40/23 37/39/23
f 42/44/24 43/45/24 39/41/24 38/40/24
f 44/46/25 41/43/25 37/39/25 40/42/25
f 43/45/26 44/46/26 40/42/26 39/41/26
f 45/47/27 46/48/27 42/44/27 41/43/27
f 46/48/28 47/49/28 43/45/28 42/44/28
f 48/50/29 45/47/29 41/43/29 44/46/29
f 47/49/30 48/50/30 44/46/30 43/45/30
f 49/51/31 50/52/31 46/48/31 45/47/31
f 50/52/32 51/53/32 47/49/32 46/48/32
f 52/54/33 49/51/33 45/47/33 48/50/33
f 51/53/34 52/54/34 48/50/34 47/49/34
f 53/55/35 54/56/35 50/52/35 49/51/35
f 54/56/36 55/57/36 51/53/36 50/52/36
f 56/58/37 53/55/37 49/51/37 52/54/37
f 55/57/38 56/58/38 52/54/38 51/53/38
f 13/20/39 14/19/39 54/56/39 53/55/39
f 14/19/40 15/22/40 55/57/40 54/56/40
f 16/21/41 13/20/41 53/55/41 56/58/41
f 15/22/42 16/21/42 56/58/42 55/57/42
