# Blender 4.4.3
# www.blender.org
o Cube
v -0.500000 1.500000 1.500000
v -0.500000 1.500000 -1.500000
v 0.500000 1.500000 1.500000
v 0.500000 -1.500000 1.500000
v 0.500000 1.500000 -1.500000
v 0.500000 -1.500000 -1.500000
vn -0.0000 -0.0000 -1.0000
vn 1.0000 -0.0000 -0.0000
vn -0.0000 -0.0000 1.0000
vn -0.0000 1.0000 -0.0000
vn -0.9487 -0.3162 -0.0000
vt 0.375000 0.250000
vt 0.625000 0.500000
vt 0.375000 0.500000
vt 0.625000 0.750000
vt 0.375000 0.750000
vt 0.375000 1.000000
vt 0.125000 0.500000
vt 0.125000 0.750000
vt 0.375000 0.000000
s 1
f 2/1/1 5/3/1 6/2/1
f 5/3/2 3/5/2 4/4/2 6/2/2
f 3/5/3 1/6/3 4/4/3
f 2/7/4 1/8/4 3/5/4 5/3/4
f 6/2/5 4/4/5 1/9/5 2/1/5
