# Blender 4.5.1 LTS
# www.blender.org
o Cube
v -1.500000 0.525092 -1.477943
v -1.350000 0.849666 -1.200181
v -1.500000 -0.500969 1.341135
v -1.350000 -0.073789 1.336989
v 1.500000 0.525092 -1.477943
v 1.350000 0.849666 -1.200181
v 1.500000 -0.500969 1.341135
v 1.350000 -0.073789 1.336989
v -1.300000 -0.500000 -1.300000
v -1.300000 0.500000 -1.300000
v -1.300000 -0.500000 -1.100000
v -1.300000 0.500000 -1.100000
v -1.100000 -0.500000 -1.300000
v -1.100000 0.500000 -1.300000
v -1.100000 -0.500000 -1.100000
v -1.100000 0.500000 -1.100000
v 1.100000 -0.500000 -1.300000
v 1.100000 0.500000 -1.300000
v 1.100000 -0.500000 -1.100000
v 1.100000 0.500000 -1.100000
v 1.300000 -0.500000 -1.300000
v 1.300000 0.500000 -1.300000
v 1.300000 -0.500000 -1.100000
v 1.300000 0.500000 -1.100000
v -1.100000 -0.500000 -1.300000
v -1.100000 -0.300000 -1.300000
v -1.100000 -0.500000 -1.100000
v -1.100000 -0.300000 -1.100000
v 1.100000 -0.500000 -1.300000
v 1.100000 -0.300000 -1.300000
v 1.100000 -0.500000 -1.100000
v 1.100000 -0.300000 -1.100000
v -1.300000 -0.500000 1.341000
v -1.300000 -0.300000 1.341000
v -1.100000 -0.500000 1.341000
v -1.100000 -0.300000 1.341000
v -1.300000 -0.500000 -1.100000
v -1.300000 -0.300000 -1.100000
v -1.100000 -0.500000 -1.100000
v -1.100000 -0.300000 -1.100000
v 1.100000 -0.500000 1.341000
v 1.100000 -0.300000 1.341000
v 1.300000 -0.500000 1.341000
v 1.300000 -0.300000 1.341000
v 1.100000 -0.500000 -1.100000
v 1.100000 -0.300000 -1.100000
v 1.300000 -0.500000 -1.100000
v 1.300000 -0.300000 -1.100000
v -1.500000 0.900969 -1.341135
v -1.500000 -0.125092 1.477943
v 1.500000 -0.125092 1.477943
v 1.500000 0.900969 -1.341135
v -1.350000 0.755696 -1.234383
v -1.350000 -0.167758 1.302787
v 1.350000 -0.167758 1.302787
v 1.350000 0.755696 -1.234383
v -1.350000 0.755696 -1.234383
v -1.350000 -0.167758 1.302787
v 1.350000 -0.167758 1.302787
v 1.350000 0.755696 -1.234383
v 0.795000 -0.167758 1.302787
v 0.825000 -0.167758 1.302787
v 0.255000 -0.167758 1.302787
v 0.285000 -0.167758 1.302787
v -0.285000 -0.167758 1.302787
v -0.255000 -0.167758 1.302787
v -0.825000 -0.167758 1.302787
v -0.795000 -0.167758 1.302787
v 0.825000 0.755696 -1.234383
v 0.795000 0.755696 -1.234383
v 0.285000 0.755696 -1.234383
v 0.255000 0.755696 -1.234383
v -0.255000 0.755696 -1.234383
v -0.285000 0.755696 -1.234383
v -0.795000 0.755696 -1.234383
v -0.825000 0.755696 -1.234383
v -0.285000 -0.130170 1.316468
v -0.255000 -0.130170 1.316468
v 0.285000 0.793284 -1.220702
v 0.255000 0.793284 -1.220702
v 0.255000 -0.130170 1.316468
v 0.285000 -0.130170 1.316468
v 0.825000 0.793284 -1.220702
v 0.795000 0.793284 -1.220702
v 0.795000 -0.130170 1.316468
v 0.825000 -0.130170 1.316468
v -1.350000 0.299100 0.020107
v -1.350000 0.288839 0.048297
v 1.350000 0.288839 0.048297
v 1.350000 0.299100 0.020107
v 0.795000 0.299100 0.020107
v 0.795000 0.288839 0.048297
v 0.825000 0.288839 0.048297
v 0.825000 0.299100 0.020107
v 0.255000 0.299100 0.020107
v 0.255000 0.288839 0.048297
v 0.285000 0.288839 0.048297
v 0.285000 0.299100 0.020107
v -0.285000 0.299100 0.020107
v -0.285000 0.288839 0.048297
v -0.255000 0.288839 0.048297
v -0.255000 0.299100 0.020107
v -0.825000 0.299100 0.020107
v -0.825000 0.288839 0.048297
v -0.795000 0.288839 0.048297
v -0.795000 0.299100 0.020107
v -0.285000 0.793284 -1.220702
v -0.255000 0.793284 -1.220702
v -0.795000 -0.130170 1.316468
v -0.825000 -0.130170 1.316468
v -0.825000 0.793284 -1.220702
v -0.795000 0.793284 -1.220702
v -1.350000 0.326427 0.061978
v -1.350000 0.336687 0.033787
v -0.825000 0.336687 0.033787
v -0.825000 0.326427 0.061978
v -0.795000 0.326427 0.061978
v -0.795000 0.336687 0.033787
v -0.285000 0.336687 0.033787
v -0.285000 0.326427 0.061978
v -0.255000 0.326427 0.061978
v -0.255000 0.336687 0.033787
v 0.255000 0.336687 0.033787
v 0.255000 0.326427 0.061978
v 0.825000 0.326427 0.061978
v 0.825000 0.336687 0.033787
v 1.350000 0.336687 0.033787
v 1.350000 0.326427 0.061978
v 0.285000 0.326427 0.061978
v 0.285000 0.336687 0.033787
v 0.795000 0.336687 0.033787
v 0.795000 0.326427 0.061978
vn -1.0000 -0.0000 -0.0000
vn -0.0000 -0.3420 0.9397
vn 1.0000 -0.0000 -0.0000
vn -0.0000 0.3420 -0.9397
vn -0.0000 -0.9397 -0.3420
vn -0.0000 -0.0000 1.0000
vn -0.0000 -0.0000 -1.0000
vn -0.0000 -1.0000 -0.0000
vn -0.0000 1.0000 -0.0000
vn -0.0000 0.9397 0.3420
vt 0.217390 0.217390
vt 0.002706 0.217390
vt 0.002706 0.002706
vt 0.217390 0.002706
vt 0.656361 0.437487
vt 0.442899 0.437487
vt 0.442899 0.222803
vt 0.656361 0.222803
vt 0.217390 0.437487
vt 0.002706 0.437487
vt 0.002706 0.222803
vt 0.217390 0.222803
vt 0.657071 0.217390
vt 0.442899 0.217390
vt 0.442899 0.002706
vt 0.657071 0.002706
vt 0.437487 0.002706
vt 0.437487 0.217390
vt 0.222803 0.217390
vt 0.222803 0.002706
vt 0.487713 0.636115
vt 0.487713 0.442899
vt 0.541384 0.442899
vt 0.541384 0.636115
vt 0.841305 0.543660
vt 0.841305 0.038724
vt 0.856518 0.002706
vt 0.856518 0.507642
vt 0.923807 0.501569
vt 0.923807 0.002706
vt 0.938119 0.002706
vt 0.938119 0.501569
vt 0.861931 0.507642
vt 0.861931 0.002706
vt 0.877144 0.038724
vt 0.877144 0.543660
vt 0.605880 0.944350
vt 0.605880 0.442899
vt 0.620193 0.442899
vt 0.620193 0.944350
vt 0.938119 0.539506
vt 0.923807 0.539506
vt 0.882556 0.543660
vt 0.882556 0.038724
vt 0.897769 0.002706
vt 0.897769 0.507642
vt 0.943532 0.501569
vt 0.943532 0.002706
vt 0.957844 0.002706
vt 0.957844 0.501569
vt 0.903182 0.507642
vt 0.903182 0.002706
vt 0.918395 0.038724
vt 0.918395 0.543660
vt 0.625605 0.944350
vt 0.625605 0.442899
vt 0.639917 0.442899
vt 0.639917 0.944350
vt 0.957844 0.539506
vt 0.943532 0.539506
vt 0.444363 0.600334
vt 0.344591 0.600334
vt 0.344591 0.442899
vt 0.444363 0.442899
vt 0.339178 0.600334
vt 0.238888 0.600334
vt 0.238888 0.442899
vt 0.339178 0.442899
vt 0.482301 0.442899
vt 0.482301 0.600334
vt 0.201334 0.600334
vt 0.201334 0.442899
vt 0.662484 0.095736
vt 0.701777 0.002706
vt 0.701777 0.479910
vt 0.662484 0.572939
vt 0.746482 0.572939
vt 0.707189 0.479910
vt 0.707189 0.002706
vt 0.746482 0.095736
vt 0.977569 0.002706
vt 0.977569 0.465730
vt 0.963257 0.465730
vt 0.963257 0.002706
vt 0.982981 0.461051
vt 0.982981 0.002706
vt 0.997294 0.002706
vt 0.997294 0.461051
vt 0.751895 0.095736
vt 0.791187 0.002706
vt 0.791187 0.479910
vt 0.751895 0.572939
vt 0.835893 0.572939
vt 0.796600 0.479909
vt 0.796600 0.002706
vt 0.835893 0.095736
vt 0.977569 0.471143
vt 0.977569 0.934166
vt 0.963257 0.934166
vt 0.963257 0.471143
vt 0.982981 0.924808
vt 0.982981 0.466463
vt 0.997294 0.466463
vt 0.997294 0.924808
vt 0.233537 0.426753
vt 0.426753 0.426753
vt 0.437487 0.437487
vt 0.222803 0.437487
vt 0.426753 0.233537
vt 0.437487 0.222803
vt 0.233537 0.233537
vt 0.222803 0.222803
vt 0.546797 0.636115
vt 0.546797 0.442899
vt 0.600468 0.442899
vt 0.600468 0.636115
vt 0.721439 0.771567
vt 0.721439 0.578352
vt 0.774805 0.578352
vt 0.774805 0.771567
vt 0.662484 0.771567
vt 0.662484 0.578352
vt 0.716027 0.578352
vt 0.716027 0.771567
vt 0.478550 0.605747
vt 0.478550 0.701281
vt 0.457081 0.701281
vt 0.457081 0.605747
vt 0.098241 0.598545
vt 0.002706 0.598545
vt 0.002706 0.596398
vt 0.098241 0.596398
vt 0.195922 0.598545
vt 0.100387 0.598545
vt 0.100387 0.596398
vt 0.195922 0.596398
vt 0.098241 0.559902
vt 0.002706 0.559902
vt 0.002706 0.557755
vt 0.098241 0.557755
vt 0.195922 0.559902
vt 0.100387 0.559902
vt 0.100387 0.557755
vt 0.195922 0.557755
vt 0.098241 0.521259
vt 0.002706 0.521259
vt 0.002706 0.519112
vt 0.098241 0.519112
vt 0.195922 0.521259
vt 0.100387 0.521259
vt 0.100387 0.519112
vt 0.195922 0.519112
vt 0.098241 0.482616
vt 0.002706 0.482616
vt 0.002706 0.480469
vt 0.098241 0.480469
vt 0.195922 0.482616
vt 0.100387 0.482616
vt 0.100387 0.480469
vt 0.195922 0.480469
vt 0.098241 0.442899
vt 0.100387 0.442899
vt 0.098241 0.636115
vt 0.100387 0.636115
vt 0.478498 0.706694
vt 0.478498 0.744263
vt 0.457081 0.744263
vt 0.457081 0.706694
vt 0.191810 0.641527
vt 0.191810 0.737062
vt 0.170342 0.737062
vt 0.170342 0.641527
vt 0.509181 0.641527
vt 0.509181 0.737062
vt 0.487713 0.737062
vt 0.487713 0.641527
vt 0.448443 0.706694
vt 0.448443 0.744263
vt 0.427025 0.744263
vt 0.427025 0.706694
vt 0.536062 0.641527
vt 0.536062 0.737062
vt 0.514594 0.737062
vt 0.514594 0.641527
vt 0.562943 0.641527
vt 0.562943 0.737062
vt 0.541475 0.737062
vt 0.541475 0.641527
vt 0.238904 0.701281
vt 0.201334 0.701281
vt 0.201334 0.605747
vt 0.238904 0.605747
vt 0.281886 0.701281
vt 0.244317 0.701281
vt 0.244317 0.605747
vt 0.281886 0.605747
vt 0.324869 0.701281
vt 0.287299 0.701281
vt 0.287299 0.605747
vt 0.324869 0.605747
vt 0.367851 0.701281
vt 0.330281 0.701281
vt 0.330281 0.605747
vt 0.367851 0.605747
vt 0.409760 0.701281
vt 0.373263 0.701281
vt 0.373263 0.605747
vt 0.409760 0.605747
vt 0.509059 0.742474
vt 0.509059 0.778971
vt 0.487713 0.778971
vt 0.487713 0.742474
vt 0.451669 0.701281
vt 0.415172 0.701281
vt 0.415172 0.605747
vt 0.451669 0.605747
vt 0.039203 0.737062
vt 0.002706 0.737062
vt 0.002706 0.641527
vt 0.039203 0.641527
vt 0.589824 0.641527
vt 0.589824 0.737062
vt 0.568356 0.737062
vt 0.568356 0.641527
vt 0.081111 0.737062
vt 0.044615 0.737062
vt 0.044615 0.641527
vt 0.081111 0.641527
vt 0.123020 0.737062
vt 0.086524 0.737062
vt 0.086524 0.641527
vt 0.123020 0.641527
vt 0.801686 0.578352
vt 0.801686 0.673886
vt 0.780217 0.673886
vt 0.780217 0.578352
vt 0.107941 0.742474
vt 0.107941 0.778971
vt 0.086524 0.778971
vt 0.086524 0.742474
vt 0.164929 0.737062
vt 0.128433 0.737062
vt 0.128433 0.641527
vt 0.164929 0.641527
vt 0.801686 0.679299
vt 0.801686 0.774833
vt 0.780217 0.774833
vt 0.780217 0.679299
vt 0.050811 0.742474
vt 0.050811 0.780044
vt 0.029465 0.780044
vt 0.029465 0.742474
vt 0.222803 0.706694
vt 0.222803 0.802228
vt 0.201334 0.802228
vt 0.201334 0.706694
vt 0.249684 0.706694
vt 0.249684 0.802228
vt 0.228215 0.802228
vt 0.228215 0.706694
vt 0.024052 0.742474
vt 0.024052 0.780044
vt 0.002706 0.780044
vt 0.002706 0.742474
vt 0.276565 0.706694
vt 0.276565 0.802228
vt 0.255096 0.802228
vt 0.255096 0.706694
vt 0.077641 0.742474
vt 0.077641 0.778971
vt 0.056224 0.778971
vt 0.056224 0.742474
vt 0.308767 0.706694
vt 0.308767 0.802228
vt 0.287299 0.802228
vt 0.287299 0.706694
vt 0.335648 0.706694
vt 0.335648 0.802228
vt 0.314180 0.802228
vt 0.314180 0.706694
vt 0.134771 0.742474
vt 0.134771 0.778971
vt 0.113354 0.778971
vt 0.113354 0.742474
vt 0.161530 0.742474
vt 0.161530 0.778971
vt 0.140184 0.778971
vt 0.140184 0.742474
vt 0.362529 0.706694
vt 0.362529 0.802228
vt 0.341061 0.802228
vt 0.341061 0.706694
vt 0.394732 0.706694
vt 0.394732 0.802228
vt 0.373263 0.802228
vt 0.373264 0.706694
vt 0.421613 0.706694
vt 0.421613 0.802228
vt 0.400144 0.802228
vt 0.400144 0.706694
vt 0.188288 0.742474
vt 0.188288 0.778971
vt 0.166942 0.778971
vt 0.166942 0.742474
s 0
f 1/1/1 3/4/1 50/3/1 49/2/1
f 3/5/2 7/8/2 51/7/2 50/6/2
f 7/9/3 5/12/3 52/11/3 51/10/3
f 5/13/4 1/16/4 49/15/4 52/14/4
f 3/17/5 1/20/5 5/19/5 7/18/5
f 6/21/1 56/24/1 55/23/1 8/22/1
f 9/25/1 11/28/1 12/27/1 10/26/1
f 11/29/6 15/32/6 16/31/6 12/30/6
f 15/33/3 13/36/3 14/35/3 16/34/3
f 13/37/7 9/40/7 10/39/7 14/38/7
f 11/29/8 9/42/8 13/41/8 15/32/8
f 17/43/1 19/46/1 20/45/1 18/44/1
f 19/47/6 23/50/6 24/49/6 20/48/6
f 23/51/3 21/54/3 22/53/3 24/52/3
f 21/55/7 17/58/7 18/57/7 22/56/7
f 19/47/8 17/60/8 21/59/8 23/50/8
f 27/61/6 31/64/6 32/63/6 28/62/6
f 29/65/7 25/68/7 26/67/7 30/66/7
f 27/61/8 25/70/8 29/69/8 31/64/8
f 32/71/9 30/66/9 26/67/9 28/72/9
f 35/73/3 39/76/3 40/75/3 36/74/3
f 37/77/1 33/80/1 34/79/1 38/78/1
f 35/81/8 33/84/8 37/83/8 39/82/8
f 40/85/9 38/88/9 34/87/9 36/86/9
f 43/89/3 47/92/3 48/91/3 44/90/3
f 45/93/1 41/96/1 42/95/1 46/94/1
f 43/97/8 41/100/8 45/99/8 47/98/8
f 48/101/9 46/104/9 42/103/9 44/102/9
f 2/105/10 49/108/10 50/107/10 4/106/10
f 4/106/10 50/107/10 51/110/10 8/109/10
f 8/109/10 51/110/10 52/112/10 6/111/10
f 6/111/10 52/112/10 49/108/10 2/105/10
f 4/113/3 54/116/3 53/115/3 2/114/3
f 2/117/2 53/120/2 56/119/2 6/118/2
f 8/121/4 55/124/4 54/123/4 4/122/4
f 67/125/1 110/128/1 116/127/1 104/126/1
f 115/129/10 118/132/10 112/131/10 111/130/10
f 110/133/10 109/136/10 117/135/10 116/134/10
f 119/137/10 122/140/10 108/139/10 107/138/10
f 77/141/10 78/144/10 121/143/10 120/142/10
f 123/145/10 130/148/10 79/147/10 80/146/10
f 81/149/10 82/152/10 129/151/10 124/150/10
f 131/153/10 126/156/10 83/155/10 84/154/10
f 85/157/10 86/160/10 125/159/10 132/158/10
f 131/153/10 132/158/10 125/159/10 126/156/10
f 123/145/10 124/150/10 129/151/10 130/148/10
f 119/137/10 120/142/10 121/143/10 122/140/10
f 115/129/10 116/134/10 117/135/10 118/132/10
f 130/148/10 129/151/10 132/158/10 131/153/10
f 126/156/10 125/159/10 128/162/10 127/161/10
f 122/140/10 121/143/10 124/150/10 123/145/10
f 118/132/10 117/135/10 120/142/10 119/137/10
f 114/163/10 113/164/10 116/134/10 115/129/10
f 87/165/4 114/168/4 115/167/4 103/166/4
f 73/169/3 108/172/3 122/171/3 102/170/3
f 95/173/1 123/176/1 80/175/1 72/174/1
f 94/177/4 126/180/4 127/179/4 90/178/4
f 97/181/3 129/184/3 82/183/3 64/182/3
f 61/185/1 85/188/1 132/187/1 92/186/1
f 67/189/10 104/192/10 88/191/10 58/190/10
f 103/193/10 76/196/10 57/195/10 87/194/10
f 90/197/10 60/200/10 69/199/10 94/198/10
f 59/201/10 89/204/10 93/203/10 62/202/10
f 91/205/10 70/208/10 71/207/10 98/206/10
f 96/209/2 124/212/2 121/211/2 101/210/2
f 61/213/10 92/216/10 97/215/10 64/214/10
f 95/217/10 72/220/10 73/219/10 102/218/10
f 71/221/3 79/224/3 130/223/3 98/222/3
f 63/225/10 96/228/10 101/227/10 66/226/10
f 99/229/10 74/232/10 75/231/10 106/230/10
f 91/233/1 131/236/1 84/235/1 70/234/1
f 102/237/4 122/240/4 123/239/4 95/238/4
f 65/241/10 100/244/10 105/243/10 68/242/10
f 93/245/3 125/248/3 86/247/3 62/246/3
f 89/249/2 128/252/2 125/251/2 93/250/2
f 63/253/1 81/256/1 124/255/1 96/254/1
f 101/257/3 121/260/3 78/259/3 66/258/3
f 104/261/2 116/264/2 113/263/2 88/262/2
f 103/265/1 115/268/1 111/267/1 76/266/1
f 98/269/4 130/272/4 131/271/4 91/270/4
f 99/273/1 119/276/1 107/275/1 74/274/1
f 75/277/3 112/280/3 118/279/3 106/278/3
f 106/281/4 118/284/4 119/283/4 99/282/4
f 92/285/2 132/288/2 129/287/2 97/286/2
f 65/289/1 77/292/1 120/291/1 100/290/1
f 69/293/3 83/296/3 126/295/3 94/294/3
f 105/297/3 117/300/3 109/299/3 68/298/3
f 100/301/2 120/304/2 117/303/2 105/302/2
