# Blender 4.0.2
# www.blender.org
o Cube
v -0.500000 -0.500000 0.500000
v -0.500000 0.500000 0.500000
v -0.500000 -0.500000 -0.500000
v -0.500000 0.500000 -0.500000
v 0.500000 -0.500000 0.500000
v 0.500000 0.500000 0.500000
v 0.500000 -0.500000 -0.500000
v 0.500000 0.500000 -0.500000
v 0.447921 -0.447921 0.500000
v 0.447921 0.447921 0.500000
v -0.447921 0.447921 0.500000
v -0.447921 -0.447921 0.500000
v 0.447921 0.447921 0.418337
v 0.447921 -0.447921 0.418337
v -0.447921 -0.447921 0.418337
v -0.447921 0.447921 0.418337
v 0.357581 -0.357581 0.418337
v 0.357581 0.357581 0.418337
v -0.357581 0.357581 0.418337
v -0.357581 -0.357581 0.418337
v 0.357581 0.357581 0.459450
v 0.357581 -0.357581 0.459450
v -0.357581 -0.357581 0.459450
v -0.357581 0.357581 0.459450
v 0.291668 -0.291668 0.459450
v 0.291668 0.291668 0.459450
v -0.291668 0.291668 0.459450
v -0.291668 -0.291668 0.459450
v 0.291668 0.291668 0.410401
v 0.291668 -0.291668 0.410401
v -0.291668 -0.291668 0.410401
v -0.291668 0.291668 0.410401
v 0.291668 0.000000 0.410401
v 0.000000 -0.291668 0.410401
v 0.000000 0.291668 0.410401
v -0.291668 0.000000 0.410401
v 0.000000 0.000000 0.283333
v 0.291668 -0.145834 0.410401
v 0.145834 -0.291668 0.410401
v -0.145834 0.291668 0.410401
v -0.291668 0.145834 0.410401
v 0.291668 0.145834 0.410401
v -0.145834 -0.291668 0.410401
v 0.145834 0.291668 0.410401
v -0.291668 -0.145834 0.410401
v -0.145834 0.000000 0.310090
v 0.145834 0.000000 0.310090
v 0.000000 -0.145834 0.310090
v 0.000000 0.145834 0.310090
v 0.145834 0.145834 0.342213
v 0.145834 -0.145834 0.342213
v -0.145834 -0.145834 0.342213
v -0.145834 0.145834 0.342213
v -0.500000 0.040629 0.106660
v -0.500000 0.380658 0.106660
v -0.500000 0.380658 -0.380658
v -0.500000 0.040629 -0.380658
v 0.500000 0.040629 -0.380658
v 0.500000 0.380658 -0.380658
v 0.500000 0.380658 0.106660
v 0.500000 0.040629 0.106660
v -0.500000 0.040629 0.106660
v -0.500000 0.380658 0.106660
v -0.500000 0.380658 -0.380658
v -0.500000 0.040629 -0.380658
v 0.500000 0.040629 -0.380658
v 0.500000 0.380658 -0.380658
v 0.500000 0.380658 0.106660
v 0.500000 0.040629 0.106660
v 0.500000 0.210643 -0.380658
v 0.500000 0.210643 0.106660
v 0.500000 0.125624 -0.380658
v 0.500000 0.125624 0.106660
v 0.500000 0.295651 -0.380658
v 0.500000 0.295651 0.106660
v -0.500000 0.210643 0.106660
v -0.500000 0.210643 -0.380658
v -0.500000 0.125636 -0.380658
v -0.500000 0.125636 0.106660
v -0.500000 0.301385 0.106660
v -0.500000 0.301385 -0.380658
v -0.466354 0.301385 0.106660
v -0.466354 0.380658 0.106660
v -0.466354 0.380658 -0.380658
v 0.466354 0.380658 -0.380658
v 0.466354 0.380658 0.106660
v 0.466354 0.210643 -0.380658
v 0.466354 0.210643 0.106660
v 0.466354 0.125624 -0.380658
v 0.466354 0.125624 0.106660
v 0.466354 0.295651 -0.380658
v 0.466354 0.295651 0.106660
v -0.466354 0.125636 0.106660
v -0.466354 0.210643 0.106660
v -0.466354 0.210643 -0.380658
v -0.466354 0.125636 -0.380658
v -0.466354 0.301385 -0.380658
v -0.448064 -0.500000 -0.448064
v 0.448064 -0.500000 -0.448064
v 0.448064 -0.500000 0.448064
v -0.448064 -0.500000 0.448064
v 0.448064 -0.458416 -0.448064
v -0.448064 -0.458416 -0.448064
v -0.448064 -0.458416 0.448064
v 0.448064 -0.458416 0.448064
v -0.257991 -0.458416 -0.257991
v 0.257991 -0.458416 -0.257991
v 0.257991 -0.458416 0.257991
v -0.257991 -0.458416 0.257991
v 0.257991 -0.425580 -0.257991
v -0.257991 -0.425580 -0.257991
v -0.257991 -0.425580 0.257991
v 0.257991 -0.425580 0.257991
v 0.000000 -0.425580 -0.257991
v -0.257991 -0.425580 0.000000
v 0.257991 -0.425580 0.000000
v 0.000000 -0.425580 0.257991
v 0.000000 -0.374431 0.000000
v -0.128995 -0.425580 -0.257991
v -0.257991 -0.425580 0.128995
v 0.257991 -0.425580 -0.128995
v 0.128995 -0.425580 0.257991
v 0.128995 -0.425580 -0.257991
v -0.257991 -0.425580 -0.128995
v 0.257991 -0.425580 0.128995
v -0.128995 -0.425580 0.257991
v 0.000000 -0.395695 0.128995
v 0.000000 -0.395695 -0.128995
v -0.128995 -0.395695 0.000000
v 0.128995 -0.395695 0.000000
v 0.128995 -0.395695 -0.128995
v -0.128995 -0.395695 -0.128995
v -0.128995 -0.395695 0.128995
v 0.128995 -0.395695 0.128995
vn 1.0000 -0.0000 -0.0000
vn -0.0000 -0.0000 -1.0000
vn -0.0000 -1.0000 -0.0000
vn -1.0000 -0.0000 -0.0000
vn -0.0000 1.0000 -0.0000
vn -0.0000 -0.0000 1.0000
vn 0.2220 -0.2220 0.9495
vn 0.4980 0.0949 0.8620
vn -0.1941 0.1941 0.9616
vn -0.0949 -0.4980 0.8620
vn -0.1941 -0.1941 0.9616
vn -0.4980 -0.0949 0.8620
vn -0.2220 -0.2220 0.9495
vn -0.0949 0.4980 0.8620
vn -0.2220 0.2220 0.9495
vn -0.4980 0.0949 0.8620
vn 0.2220 0.2220 0.9495
vn 0.0949 0.4980 0.8620
vn 0.1941 0.1941 0.9616
vn 0.4980 -0.0949 0.8620
vn 0.1941 -0.1941 0.9616
vn 0.0949 -0.4980 0.8620
vn -0.1143 -0.9868 -0.1143
vn -0.0000 -0.9742 -0.2257
vn 0.0819 -0.9933 0.0819
vn -0.2257 -0.9742 -0.0000
vn -0.0819 -0.9933 0.0819
vn -0.0000 -0.9742 0.2257
vn -0.1143 -0.9868 0.1143
vn 0.2257 -0.9742 -0.0000
vn 0.1143 -0.9868 0.1143
vn 0.1143 -0.9868 -0.1143
vn 0.0819 -0.9933 -0.0819
vn -0.0819 -0.9933 -0.0819
vt 0.351148 0.997619
vt 0.326503 0.997619
vt 0.326503 0.856320
vt 0.351148 0.856320
vt 0.002381 0.292333
vt 0.002381 0.002381
vt 0.292333 0.002381
vt 0.292333 0.292333
vt 0.866159 0.509218
vt 0.866159 0.533870
vt 0.856403 0.533870
vt 0.856403 0.509218
vt 0.591808 0.821441
vt 0.591808 0.561690
vt 0.615486 0.561690
vt 0.615486 0.821441
vt 0.717624 0.561690
vt 0.717624 0.821524
vt 0.705566 0.821524
vt 0.705566 0.561690
vt 0.292333 0.587047
vt 0.002381 0.587047
vt 0.002381 0.297094
vt 0.292333 0.297094
vt 0.297094 0.292333
vt 0.297094 0.002381
vt 0.312195 0.017481
vt 0.312195 0.277233
vt 0.587047 0.002381
vt 0.571946 0.017481
vt 0.587047 0.292333
vt 0.571946 0.277233
vt 0.885006 0.297094
vt 0.885006 0.504457
vt 0.873085 0.504457
vt 0.873085 0.297094
vt 0.648687 0.821441
vt 0.648687 0.561690
vt 0.672366 0.561690
vt 0.672366 0.821441
vt 0.700805 0.561690
vt 0.700805 0.821441
vt 0.677127 0.821441
vt 0.677127 0.561690
vt 0.620247 0.821441
vt 0.620247 0.561690
vt 0.643926 0.561690
vt 0.643926 0.821441
vt 0.297094 0.851559
vt 0.297094 0.591808
vt 0.323289 0.618002
vt 0.323289 0.825365
vt 0.556846 0.591808
vt 0.530651 0.618002
vt 0.556846 0.851559
vt 0.530651 0.825365
vt 0.903989 0.297094
vt 0.903989 0.466234
vt 0.889767 0.466234
vt 0.889767 0.423949
vt 0.889767 0.381664
vt 0.889767 0.339379
vt 0.889767 0.297094
vt 0.573528 0.591808
vt 0.573528 0.799171
vt 0.561607 0.799171
vt 0.561607 0.591808
vt 0.868324 0.297094
vt 0.868324 0.504457
vt 0.856403 0.504457
vt 0.856403 0.297094
vt 0.886521 0.209743
vt 0.886521 0.002381
vt 0.898442 0.002381
vt 0.898442 0.209743
vt 0.772840 0.769053
vt 0.772840 0.561690
vt 0.791952 0.580801
vt 0.791952 0.749941
vt 0.980203 0.561690
vt 0.961091 0.580801
vt 0.980203 0.769053
vt 0.961091 0.749941
vt 0.899695 0.816099
vt 0.899695 0.773814
vt 0.941980 0.773814
vt 0.941980 0.816099
vt 0.903203 0.171520
vt 0.903203 0.002381
vt 0.917425 0.002381
vt 0.917425 0.044665
vt 0.917425 0.086950
vt 0.917425 0.129235
vt 0.917425 0.171520
vt 0.908750 0.466234
vt 0.908750 0.297094
vt 0.922972 0.297094
vt 0.922972 0.339379
vt 0.922972 0.381664
vt 0.922972 0.423949
vt 0.922972 0.466234
vt 0.922186 0.171520
vt 0.922186 0.002381
vt 0.936408 0.002381
vt 0.936408 0.044665
vt 0.936408 0.086950
vt 0.936408 0.129235
vt 0.936408 0.171520
vt 0.899695 0.900668
vt 0.899695 0.858383
vt 0.941980 0.858383
vt 0.941980 0.900668
vt 0.815125 0.900668
vt 0.815125 0.858383
vt 0.857410 0.858383
vt 0.857410 0.900668
vt 0.815125 0.816099
vt 0.815125 0.773814
vt 0.857410 0.773814
vt 0.857410 0.816099
vt 0.772840 0.858383
vt 0.772840 0.816099
vt 0.772840 0.773814
vt 0.815125 0.942953
vt 0.857410 0.942953
vt 0.772840 0.942953
vt 0.772840 0.900668
vt 0.899695 0.942953
vt 0.941980 0.942953
vt 0.297094 0.587047
vt 0.297094 0.297094
vt 0.411144 0.331698
vt 0.411144 0.430290
vt 0.587047 0.297094
vt 0.552443 0.331698
vt 0.587047 0.587047
vt 0.552443 0.430290
vt 0.002381 0.881760
vt 0.002381 0.591808
vt 0.036984 0.626411
vt 0.036984 0.725004
vt 0.292333 0.591808
vt 0.178283 0.626411
vt 0.292333 0.881760
vt 0.178283 0.725004
vt 0.763213 0.826285
vt 0.763213 0.967585
vt 0.753457 0.967585
vt 0.753457 0.826285
vt 0.870920 0.533870
vt 0.870920 0.509218
vt 0.880676 0.509218
vt 0.880676 0.533870
vt 0.321742 0.997619
vt 0.297094 0.997619
vt 0.297094 0.856320
vt 0.321742 0.856320
vt 0.984860 0.289740
vt 0.984860 0.148441
vt 0.994616 0.148441
vt 0.994616 0.289740
vt 0.980099 0.289740
vt 0.955451 0.289740
vt 0.955451 0.148441
vt 0.980099 0.148441
vt 0.748696 0.967585
vt 0.722385 0.967585
vt 0.722385 0.826285
vt 0.748696 0.826285
vt 0.980102 0.143680
vt 0.955451 0.143680
vt 0.955451 0.002381
vt 0.980102 0.002381
vt 0.378895 0.997620
vt 0.355909 0.997620
vt 0.355909 0.856320
vt 0.378895 0.856320
vt 0.980945 0.438393
vt 0.956297 0.438393
vt 0.956297 0.297094
vt 0.980945 0.297094
vt 0.985671 0.915113
vt 0.961023 0.915113
vt 0.961023 0.773814
vt 0.985671 0.773814
vt 0.436962 0.856320
vt 0.436962 0.880968
vt 0.427206 0.880968
vt 0.427206 0.856320
vt 0.994619 0.002381
vt 0.994619 0.143680
vt 0.984864 0.143680
vt 0.984864 0.002381
vt 0.984964 0.702989
vt 0.984964 0.561690
vt 0.994720 0.561690
vt 0.994720 0.702989
vt 0.456240 0.880969
vt 0.456240 0.856320
vt 0.465996 0.856320
vt 0.465996 0.880969
vt 0.985706 0.438393
vt 0.985706 0.297094
vt 0.995462 0.297094
vt 0.995462 0.438393
vt 0.485274 0.879306
vt 0.485274 0.856320
vt 0.495029 0.856320
vt 0.495029 0.879306
vt 0.480513 0.856320
vt 0.480513 0.880969
vt 0.470757 0.880969
vt 0.470757 0.856320
vt 0.393411 0.856320
vt 0.393411 0.997619
vt 0.383656 0.997619
vt 0.383656 0.856320
vt 0.509546 0.856320
vt 0.509546 0.879306
vt 0.499790 0.879306
vt 0.499790 0.856320
vt 0.407928 0.856320
vt 0.407928 0.997619
vt 0.398172 0.997619
vt 0.398172 0.856320
vt 0.441723 0.880968
vt 0.441723 0.856320
vt 0.451479 0.856320
vt 0.451479 0.880968
vt 0.412689 0.997619
vt 0.412689 0.856320
vt 0.422445 0.856320
vt 0.422445 0.997619
vt 0.881760 0.292333
vt 0.591808 0.292333
vt 0.606867 0.277274
vt 0.866701 0.277274
vt 0.591808 0.002381
vt 0.606867 0.017440
vt 0.881760 0.002381
vt 0.866701 0.017440
vt 0.937254 0.297094
vt 0.937254 0.446704
vt 0.927733 0.446704
vt 0.927733 0.409302
vt 0.927733 0.371899
vt 0.927733 0.334497
vt 0.927733 0.297094
vt 0.734442 0.561690
vt 0.734442 0.821524
vt 0.722385 0.821524
vt 0.722385 0.561690
vt 0.751261 0.561690
vt 0.751261 0.821524
vt 0.739203 0.821524
vt 0.739203 0.561690
vt 0.768079 0.561690
vt 0.768079 0.821524
vt 0.756022 0.821524
vt 0.756022 0.561690
vt 0.851642 0.556929
vt 0.591808 0.556929
vt 0.646920 0.501817
vt 0.796530 0.501817
vt 0.591808 0.297094
vt 0.646920 0.352206
vt 0.851642 0.297094
vt 0.796530 0.352206
vt 0.605416 0.863688
vt 0.568013 0.863688
vt 0.568013 0.826285
vt 0.605416 0.826285
vt 0.950690 0.002381
vt 0.950690 0.151991
vt 0.941169 0.151991
vt 0.941169 0.114588
vt 0.941169 0.077186
vt 0.941169 0.039783
vt 0.941169 0.002381
vt 0.951536 0.297094
vt 0.951536 0.446704
vt 0.942015 0.446704
vt 0.942015 0.409302
vt 0.942015 0.371899
vt 0.942015 0.334497
vt 0.942015 0.297094
vt 0.956262 0.773814
vt 0.956262 0.923424
vt 0.946741 0.923424
vt 0.946741 0.886021
vt 0.946741 0.848619
vt 0.946741 0.811216
vt 0.946741 0.773814
vt 0.680221 0.863688
vt 0.642819 0.863688
vt 0.642819 0.826285
vt 0.680221 0.826285
vt 0.680221 0.938493
vt 0.642819 0.938493
vt 0.642819 0.901091
vt 0.680221 0.901091
vt 0.605416 0.938493
vt 0.568013 0.938493
vt 0.568013 0.901091
vt 0.605416 0.901091
vt 0.642819 0.975896
vt 0.605416 0.975896
vt 0.568013 0.975896
vt 0.717624 0.938493
vt 0.717624 0.901091
vt 0.717624 0.975896
vt 0.680221 0.975896
vt 0.717624 0.863688
vt 0.717624 0.826285
s 0
f 66/1/1 72/2/1 73/3/1 69/4/1
f 3/5/2 4/6/2 8/7/2 7/8/2
f 71/9/2 73/10/2 90/11/2 88/12/2
f 10/13/3 11/14/3 16/15/3 13/16/3
f 99/17/4 100/18/4 105/19/4 102/20/4
f 8/21/5 4/22/5 2/23/5 6/24/5
f 5/25/6 6/26/6 10/27/6 9/28/6
f 6/26/6 2/29/6 11/30/6 10/27/6
f 2/29/6 1/31/6 12/32/6 11/30/6
f 1/31/6 5/25/6 9/28/6 12/32/6
f 19/33/4 20/34/4 23/35/4 24/36/4
f 9/37/4 10/38/4 13/39/4 14/40/4
f 11/41/1 12/42/1 15/43/1 16/44/1
f 12/45/5 9/46/5 14/47/5 15/48/5
f 14/49/6 13/50/6 18/51/6 17/52/6
f 13/50/6 16/53/6 19/54/6 18/51/6
f 16/53/6 15/55/6 20/56/6 19/54/6
f 15/55/6 14/49/6 17/52/6 20/56/6
f 27/57/1 28/58/1 31/59/1 45/60/1 36/61/1 41/62/1 32/63/1
f 20/64/3 17/65/3 22/66/3 23/67/3
f 18/68/5 19/69/5 24/70/5 21/71/5
f 17/72/1 18/73/1 21/74/1 22/75/1
f 22/76/6 21/77/6 26/78/6 25/79/6
f 21/77/6 24/80/6 27/81/6 26/78/6
f 24/80/6 23/82/6 28/83/6 27/81/6
f 23/82/6 22/76/6 25/79/6 28/83/6
f 53/84/7 40/85/7 32/86/7 41/87/7
f 28/88/5 25/89/5 30/90/5 39/91/5 34/92/5 43/93/5 31/94/5
f 26/95/3 27/96/3 32/97/3 40/98/3 35/99/3 44/100/3 29/101/3
f 25/102/4 26/103/4 29/104/4 42/105/4 33/106/4 38/107/4 30/108/4
f 52/109/8 46/110/8 36/111/8 45/112/8
f 51/113/9 47/114/9 37/115/9 48/116/9
f 50/117/10 44/118/10 35/119/10 49/120/10
f 47/114/11 50/117/11 49/120/11 37/115/11
f 33/121/12 42/122/12 50/117/12 47/114/12
f 42/122/13 29/123/13 44/118/13 50/117/13
f 39/124/14 51/113/14 48/116/14 34/125/14
f 30/126/15 38/127/15 51/113/15 39/124/15
f 38/127/16 33/121/16 47/114/16 51/113/16
f 43/128/17 52/109/17 45/112/17 31/129/17
f 34/125/18 48/116/18 52/109/18 43/128/18
f 48/116/19 37/115/19 46/110/19 52/109/19
f 46/110/20 53/84/20 41/87/20 36/111/20
f 37/115/21 49/120/21 53/84/21 46/110/21
f 49/120/22 35/119/22 40/85/22 53/84/22
f 1/130/4 2/131/4 55/132/4 54/133/4
f 2/131/4 4/134/4 56/135/4 55/132/4
f 4/134/4 3/136/4 57/137/4 56/135/4
f 3/136/4 1/130/4 54/133/4 57/137/4
f 7/138/1 8/139/1 59/140/1 58/141/1
f 8/139/1 6/142/1 60/143/1 59/140/1
f 6/142/1 5/144/1 61/145/1 60/143/1
f 5/144/1 7/138/1 58/141/1 61/145/1
f 76/146/3 77/147/3 95/148/3 94/149/3
f 72/150/6 70/151/6 87/152/6 89/153/6
f 70/154/1 74/155/1 75/156/1 71/157/1
f 81/158/5 80/159/5 82/160/5 97/161/5
f 62/162/4 79/163/4 78/164/4 65/165/4
f 76/166/4 80/167/4 81/168/4 77/169/4
f 89/170/1 87/171/1 88/172/1 90/173/1
f 82/174/4 83/175/4 84/176/4 97/177/4
f 91/178/1 85/179/1 86/180/1 92/181/1
f 93/182/4 94/183/4 95/184/4 96/185/4
f 77/186/6 78/187/6 96/188/6 95/189/6
f 73/190/5 72/191/5 89/192/5 90/193/5
f 67/194/3 68/195/3 86/196/3 85/197/3
f 74/198/6 67/199/6 85/200/6 91/201/6
f 78/202/5 79/203/5 93/204/5 96/205/5
f 80/206/2 63/207/2 83/208/2 82/209/2
f 68/210/2 75/211/2 92/212/2 86/213/2
f 75/214/5 74/215/5 91/216/5 92/217/5
f 64/218/6 81/219/6 97/220/6 84/221/6
f 63/222/3 64/223/3 84/224/3 83/225/3
f 79/226/2 76/227/2 94/228/2 93/229/2
f 70/230/3 71/231/3 88/232/3 87/233/3
f 3/234/3 7/235/3 99/236/3 98/237/3
f 7/235/3 5/238/3 100/239/3 99/236/3
f 5/238/3 1/240/3 101/241/3 100/239/3
f 1/240/3 3/234/3 98/237/3 101/241/3
f 107/242/4 108/243/4 113/244/4 125/245/4 116/246/4 121/247/4 110/248/4
f 98/249/6 99/250/6 102/251/6 103/252/6
f 100/253/2 101/254/2 104/255/2 105/256/2
f 101/257/1 98/258/1 103/259/1 104/260/1
f 103/261/3 102/262/3 107/263/3 106/264/3
f 102/262/3 105/265/3 108/266/3 107/263/3
f 105/265/3 104/267/3 109/268/3 108/266/3
f 104/267/3 103/261/3 106/264/3 109/268/3
f 134/269/23 125/270/23 113/271/23 122/272/23
f 106/273/6 107/274/6 110/275/6 123/276/6 114/277/6 119/278/6 111/279/6
f 108/280/2 109/281/2 112/282/2 126/283/2 117/284/2 122/285/2 113/286/2
f 109/287/1 106/288/1 111/289/1 124/290/1 115/291/1 120/292/1 112/293/1
f 133/294/24 127/295/24 117/296/24 126/297/24
f 132/298/25 128/299/25 118/300/25 129/301/25
f 131/302/26 121/303/26 116/304/26 130/305/26
f 128/299/27 131/302/27 130/305/27 118/300/27
f 114/306/28 123/307/28 131/302/28 128/299/28
f 123/307/29 110/308/29 121/303/29 131/302/29
f 124/309/30 132/298/30 129/301/30 115/310/30
f 111/311/31 119/312/31 132/298/31 124/309/31
f 119/312/28 114/306/28 128/299/28 132/298/28
f 120/313/32 133/294/32 126/297/32 112/314/32
f 115/310/30 129/301/30 133/294/30 120/313/30
f 129/301/33 118/300/33 127/295/33 133/294/33
f 127/295/24 134/269/24 122/272/24 117/296/24
f 118/300/34 130/305/34 134/269/34 127/295/34
f 130/305/26 116/304/26 125/270/26 134/269/26
