# Blender 4.0.2
# www.blender.org
o Cube
v 0.500000 0.500000 -0.500000
v 0.500000 -0.500000 -0.500000
v 0.455526 0.455526 0.500000
v 0.455526 -0.455526 0.500000
v -0.500000 0.500000 -0.500000
v -0.500000 -0.500000 -0.500000
v -0.455526 0.455526 0.500000
v -0.455526 -0.455526 0.500000
v -0.500000 -0.500000 0.500000
v -0.500000 0.500000 0.500000
v 0.500000 0.500000 0.500000
v 0.500000 -0.500000 0.500000
v 0.455526 -0.455526 0.500000
v -0.455526 -0.455526 0.500000
v -0.455526 0.298268 0.500000
v 0.455526 0.298268 0.500000
v 0.455526 0.455526 0.500000
v -0.455526 0.455526 0.500000
v -0.455526 0.298268 0.500000
v 0.455526 0.298268 0.500000
v -0.227763 0.455526 0.500000
v -0.238350 0.308855 0.500000
v 0.227763 0.298268 0.500000
v 0.227763 0.455526 0.500000
v 0.455526 0.298268 0.205332
v 0.455526 -0.455526 0.205332
v -0.455526 -0.455526 0.205332
v -0.455526 0.298268 0.205332
v -0.227763 0.455526 0.325592
v -0.227763 0.298268 0.205332
v 0.227763 0.455526 0.325592
v 0.227763 0.298268 0.205332
v -0.444938 0.308855 0.500000
v -0.444938 0.444938 0.500000
v -0.238350 0.444938 0.500000
v -0.227763 0.298268 0.500000
v -0.444938 0.308855 0.477506
v -0.444938 0.444938 0.477506
v -0.238350 0.444938 0.477506
v -0.238350 0.308855 0.477506
v 0.455526 -0.455526 0.500000
v -0.455526 -0.455526 0.500000
v -0.455526 -0.455526 0.205332
v 0.000000 -0.455526 0.500000
v 0.000000 -0.455526 0.205332
v -0.227763 -0.455526 0.500000
v -0.227763 -0.455526 0.205332
v 0.227763 -0.455526 0.500000
v 0.227763 -0.455526 0.205332
v 0.113881 -0.455526 0.500000
v 0.113881 -0.455526 0.205332
v -0.113881 -0.455526 0.500000
v -0.113881 -0.455526 0.205332
v -0.341644 -0.455526 0.500000
v -0.341644 -0.455526 0.205332
v 0.341644 -0.455526 0.500000
v 0.341644 -0.455526 0.205332
v 0.284704 -0.455526 0.500000
v 0.284704 -0.455526 0.205332
v 0.170822 -0.455526 0.500000
v 0.170822 -0.455526 0.205332
v 0.056941 -0.455526 0.500000
v 0.056941 -0.455526 0.205332
v 0.398585 -0.455526 0.500000
v 0.398585 -0.455526 0.205332
v -0.056941 -0.455526 0.500000
v -0.056941 -0.455526 0.205332
v -0.170822 -0.455526 0.500000
v -0.170822 -0.455526 0.205332
v -0.284704 -0.455526 0.500000
v -0.284704 -0.455526 0.205332
v -0.398585 -0.455526 0.500000
v -0.398585 -0.455526 0.205332
v -0.056941 -0.409597 0.374735
v 0.000000 -0.409597 0.374735
v 0.398585 -0.409597 0.374735
v 0.455526 -0.409597 0.374735
v 0.398585 -0.409597 0.205332
v 0.455526 -0.409597 0.205332
v -0.056941 -0.409597 0.205332
v 0.000000 -0.409597 0.205332
v -0.284704 -0.409597 0.374735
v -0.227763 -0.409597 0.374735
v -0.284704 -0.409597 0.205332
v -0.227763 -0.409597 0.205332
v 0.170822 -0.409597 0.374735
v 0.227763 -0.409597 0.374735
v 0.170822 -0.409597 0.205332
v 0.227763 -0.409597 0.205332
v 0.056941 -0.409597 0.374735
v 0.113881 -0.409597 0.374735
v 0.056941 -0.409597 0.205332
v 0.113881 -0.409597 0.205332
v -0.170822 -0.409597 0.374735
v -0.113881 -0.409597 0.374735
v -0.170822 -0.409597 0.205332
v -0.113881 -0.409597 0.205332
v -0.398585 -0.409597 0.374735
v -0.341644 -0.409597 0.374735
v -0.398585 -0.409597 0.205332
v -0.341644 -0.409597 0.205332
v 0.284704 -0.409597 0.374735
v 0.341644 -0.409597 0.374735
v 0.284704 -0.409597 0.205332
v 0.341644 -0.409597 0.205332
vn -0.0000 1.0000 -0.0000
vn 1.0000 -0.0000 -0.0000
vn -1.0000 -0.0000 -0.0000
vn -0.0000 -1.0000 -0.0000
vn -0.0000 -0.0000 -1.0000
vn -0.0000 -0.0000 1.0000
vn -0.0000 -0.6075 0.7943
vn -0.0000 0.9389 0.3442
vt 0.668948 0.331052
vt 0.668948 0.002282
vt 0.995819 0.002282
vt 0.995819 0.331052
vt 0.910215 0.639705
vt 0.910215 0.736583
vt 0.895115 0.736583
vt 0.895115 0.680888
vt 0.002282 0.331052
vt 0.002282 0.002282
vt 0.331052 0.002282
vt 0.331052 0.331052
vt 0.331052 0.664385
vt 0.002282 0.664385
vt 0.002282 0.335615
vt 0.331052 0.335615
vt 0.335615 0.331052
vt 0.335615 0.002282
vt 0.664385 0.002282
vt 0.664385 0.331052
vt 0.335615 0.664385
vt 0.335615 0.335615
vt 0.664385 0.335615
vt 0.664385 0.664385
vt 0.316430 0.983097
vt 0.316430 0.683570
vt 0.331052 0.668948
vt 0.331052 0.997718
vt 0.016903 0.683570
vt 0.016903 0.983097
vt 0.002282 0.997718
vt 0.002282 0.668948
vt 0.657146 0.842873
vt 0.657146 0.887613
vt 0.649750 0.887613
vt 0.649750 0.842873
vt 0.561750 0.947774
vt 0.510048 0.947774
vt 0.510048 0.872892
vt 0.561750 0.872892
vt 0.916773 0.635141
vt 0.668948 0.635141
vt 0.668948 0.335615
vt 0.916773 0.335615
vt 0.397518 0.818712
vt 0.397518 0.668948
vt 0.449220 0.668948
vt 0.449220 0.818712
vt 0.612673 0.668948
vt 0.664375 0.668948
vt 0.664375 0.765826
vt 0.612673 0.726288
vt 0.505485 0.867268
vt 0.453783 0.867268
vt 0.453783 0.809928
vt 0.505485 0.770390
vt 0.765826 0.639705
vt 0.765826 0.887529
vt 0.668948 0.887529
vt 0.668948 0.639705
vt 0.770390 0.887529
vt 0.770390 0.639705
vt 0.867268 0.639705
vt 0.867268 0.887529
vt 0.335615 0.818712
vt 0.335615 0.668948
vt 0.392955 0.668948
vt 0.392955 0.818712
vt 0.453783 0.668948
vt 0.528665 0.668948
vt 0.528665 0.765826
vt 0.453783 0.765826
vt 0.661709 0.770390
vt 0.608110 0.668948
vt 0.608110 0.765826
vt 0.533228 0.765826
vt 0.533228 0.668948
vt 0.614534 0.876373
vt 0.569794 0.876373
vt 0.566313 0.872892
vt 0.618015 0.872892
vt 0.569794 0.944293
vt 0.566313 0.947774
vt 0.614534 0.944293
vt 0.618015 0.947774
vt 0.713688 0.960012
vt 0.668948 0.960012
vt 0.668948 0.892092
vt 0.713688 0.892092
vt 0.444197 0.823275
vt 0.444197 0.891195
vt 0.436845 0.891195
vt 0.436845 0.823275
vt 0.649750 0.838310
vt 0.649750 0.770390
vt 0.657146 0.770390
vt 0.657146 0.838310
vt 0.622578 0.917632
vt 0.622578 0.872892
vt 0.629974 0.872892
vt 0.629974 0.917632
vt 0.910215 0.742207
vt 0.910215 0.839085
vt 0.895115 0.797902
vt 0.895115 0.742207
vt 0.552052 0.868329
vt 0.533332 0.868329
vt 0.533332 0.825763
vt 0.552052 0.825763
vt 0.350715 0.823275
vt 0.350715 0.920153
vt 0.335615 0.878969
vt 0.335615 0.823275
vt 0.370378 0.823275
vt 0.370378 0.920153
vt 0.355278 0.920153
vt 0.355278 0.864458
vt 0.495787 0.968149
vt 0.477067 0.968149
vt 0.477067 0.871831
vt 0.495787 0.871831
vt 0.953161 0.837464
vt 0.934441 0.837464
vt 0.934441 0.741146
vt 0.953161 0.741146
vt 0.953161 0.939967
vt 0.934441 0.939967
vt 0.934441 0.843648
vt 0.953161 0.843648
vt 0.959720 0.431933
vt 0.940999 0.431933
vt 0.940999 0.335615
vt 0.959720 0.335615
vt 0.959720 0.533375
vt 0.940999 0.533375
vt 0.940999 0.437056
vt 0.959720 0.437056
vt 0.963340 0.634816
vt 0.944620 0.634816
vt 0.944620 0.538498
vt 0.963340 0.538498
vt 0.940057 0.634816
vt 0.921336 0.634816
vt 0.921336 0.538498
vt 0.940057 0.538498
vt 0.472504 0.968149
vt 0.453783 0.968149
vt 0.453783 0.871831
vt 0.472504 0.871831
vt 0.575336 0.825763
vt 0.556616 0.825763
vt 0.556616 0.770390
vt 0.575336 0.770390
vt 0.598620 0.825763
vt 0.579899 0.825763
vt 0.579899 0.770390
vt 0.598620 0.770390
vt 0.890551 0.797580
vt 0.871831 0.797580
vt 0.871831 0.742207
vt 0.890551 0.742207
vt 0.621903 0.825763
vt 0.603183 0.825763
vt 0.603183 0.770390
vt 0.621903 0.770390
vt 0.645187 0.825763
vt 0.626467 0.825763
vt 0.626467 0.770390
vt 0.645187 0.770390
vt 0.533332 0.770390
vt 0.552052 0.770390
vt 0.890551 0.695078
vt 0.871831 0.695078
vt 0.871831 0.639705
vt 0.890551 0.639705
vt 0.528769 0.825763
vt 0.510048 0.825763
vt 0.510048 0.770390
vt 0.528769 0.770390
vt 0.390041 0.823275
vt 0.390041 0.920153
vt 0.374941 0.878969
vt 0.374941 0.823275
vt 0.890551 0.737644
vt 0.871831 0.737644
vt 0.575336 0.868329
vt 0.556616 0.868329
vt 0.412618 0.823275
vt 0.412618 0.920153
vt 0.397518 0.920153
vt 0.397518 0.864458
vt 0.432282 0.823275
vt 0.432282 0.920153
vt 0.417182 0.878969
vt 0.417182 0.823275
vt 0.890551 0.840146
vt 0.871831 0.840146
vt 0.929878 0.639705
vt 0.929878 0.736583
vt 0.914778 0.736583
vt 0.914778 0.680888
vt 0.929878 0.742207
vt 0.929878 0.839085
vt 0.914778 0.797902
vt 0.914778 0.742207
vt 0.528769 0.868329
vt 0.510048 0.868329
vt 0.936436 0.335615
vt 0.936436 0.432493
vt 0.921336 0.432493
vt 0.921336 0.376798
vt 0.936436 0.437056
vt 0.936436 0.533934
vt 0.921336 0.492751
vt 0.921336 0.437056
vt 0.621903 0.868329
vt 0.603183 0.868329
vt 0.910215 0.843648
vt 0.910215 0.940526
vt 0.895115 0.940526
vt 0.895115 0.884832
vt 0.929878 0.843648
vt 0.929878 0.940526
vt 0.914778 0.940526
vt 0.914778 0.884832
vt 0.886931 0.844709
vt 0.886931 0.941587
vt 0.871831 0.900404
vt 0.871831 0.844709
vt 0.645187 0.868329
vt 0.626467 0.868329
vt 0.949541 0.639705
vt 0.949541 0.736583
vt 0.934441 0.695399
vt 0.934441 0.639705
vt 0.598620 0.868329
vt 0.579899 0.868329
s 0
f 1/1/1 5/2/1 10/3/1 11/4/1
f 52/5/2 53/6/2 97/7/2 95/8/2
f 9/9/3 10/10/3 5/11/3 6/12/3
f 6/13/4 2/14/4 12/15/4 9/16/4
f 2/17/2 1/18/2 11/19/2 12/20/2
f 6/21/5 5/22/5 1/23/5 2/24/5
f 8/25/6 7/26/6 10/27/6 9/28/6
f 3/29/6 4/30/6 12/31/6 11/32/6
f 7/26/6 3/29/6 11/32/6 10/27/6
f 4/30/6 8/25/6 9/28/6 12/31/6
f 34/33/2 33/34/2 37/35/2 38/36/2
f 20/37/6 17/38/6 24/39/6 23/40/6
f 26/41/6 25/42/6 28/43/6 27/44/6
f 31/45/7 29/46/7 30/47/7 32/48/7
f 21/49/2 36/50/2 30/51/2 29/52/2
f 23/53/3 24/54/3 31/55/3 32/56/3
f 15/57/2 14/58/2 27/59/2 28/60/2
f 13/61/3 16/62/3 25/63/3 26/64/3
f 24/65/4 21/66/4 29/67/4 31/68/4
f 36/69/4 19/70/4 15/70/4 28/71/4 30/72/4
f 20/73/1 16/73/1 25/73/1
f 20/73/1 23/73/1 16/73/1
f 23/74/4 32/75/4 25/76/4 16/77/4
f 33/78/6 34/79/6 18/80/6 19/81/6
f 34/79/6 35/82/6 21/83/6 18/80/6
f 22/84/6 33/78/6 19/81/6 36/85/6
f 35/82/6 22/84/6 36/85/6 21/83/6
f 40/86/6 39/87/6 38/88/6 37/89/6
f 33/90/1 22/91/1 40/92/1 37/93/1
f 35/94/4 34/95/4 38/96/4 39/97/4
f 22/98/3 35/99/3 39/100/3 40/101/3
f 61/102/3 60/103/3 86/104/3 88/105/3
f 68/106/8 52/107/8 95/108/8 94/109/8
f 69/110/3 68/111/3 94/112/3 96/113/3
f 50/114/2 51/115/2 93/116/2 91/117/2
f 48/118/1 58/119/1 59/120/1 49/121/1
f 50/122/1 60/123/1 61/124/1 51/125/1
f 44/126/1 62/127/1 63/128/1 45/129/1
f 56/130/1 64/131/1 65/132/1 57/133/1
f 52/134/1 66/135/1 67/136/1 53/137/1
f 46/138/1 68/139/1 69/140/1 47/141/1
f 54/142/1 70/143/1 71/144/1 55/145/1
f 42/146/1 72/147/1 73/148/1 43/149/1
f 74/150/1 75/151/1 81/152/1 80/153/1
f 76/154/1 77/155/1 79/156/1 78/157/1
f 82/158/1 83/159/1 85/160/1 84/161/1
f 86/162/1 87/163/1 89/164/1 88/165/1
f 90/166/1 91/167/1 93/168/1 92/169/1
f 94/109/1 95/108/1 97/170/1 96/171/1
f 98/172/1 99/173/1 101/174/1 100/175/1
f 102/176/1 103/177/1 105/178/1 104/179/1
f 71/180/3 70/181/3 82/182/3 84/183/3
f 72/184/8 54/185/8 99/173/8 98/172/8
f 66/186/8 44/187/8 75/151/8 74/150/8
f 44/188/2 45/189/2 81/190/2 75/191/2
f 63/192/3 62/193/3 90/194/3 92/195/3
f 70/196/8 46/197/8 83/159/8 82/158/8
f 54/198/2 55/199/2 101/200/2 99/201/2
f 73/202/3 72/203/3 98/204/3 100/205/3
f 58/206/8 56/207/8 103/177/8 102/176/8
f 46/208/2 47/209/2 85/210/2 83/211/2
f 65/212/3 64/213/3 76/214/3 78/215/3
f 60/216/8 48/217/8 87/163/8 86/162/8
f 56/218/2 57/219/2 105/220/2 103/221/2
f 48/222/2 49/223/2 89/224/2 87/225/2
f 67/226/3 66/227/3 74/228/3 80/229/3
f 62/230/8 50/231/8 91/167/8 90/166/8
f 59/232/3 58/233/3 102/234/3 104/235/3
f 64/236/8 41/237/8 77/155/8 76/154/8
