# Blender 4.4.3
# www.blender.org
o Cube
v -0.500000 1.000000 1.000000
v 0.425157 0.300000 1.000000
v -0.500000 1.000000 -1.000000
v 0.425157 0.300000 -1.000000
v 0.500000 1.000000 1.000000
v 0.500000 -0.400000 1.000000
v 0.500000 1.000000 -1.000000
v 0.500000 -0.400000 -1.000000
v 0.400000 1.000000 -1.000000
v 0.425157 -0.400000 -1.000000
v 0.400000 1.000000 1.000000
v 0.425157 -0.400000 1.000000
v -0.500000 0.912364 1.000000
v -0.500000 0.912364 -1.000000
v 0.500000 0.912364 -1.000000
v 0.500000 0.912364 1.000000
v 0.425157 0.912364 1.000000
v 0.425157 0.912364 -1.000000
v -0.500000 1.000000 0.900000
v 0.427423 0.302654 0.914605
v 0.500000 1.000000 0.900000
v 0.503884 -0.723691 0.914605
v 0.427423 -0.723691 0.914605
v 0.400000 1.000000 0.900000
v 0.503884 0.912364 0.914605
v -0.499998 0.912364 0.914605
v 0.427423 0.302654 -0.919605
v 0.500000 1.000000 -0.905000
v -0.499998 0.912364 -0.919605
v -0.500000 1.000000 -0.905000
v 0.503884 -0.723691 -0.919605
v 0.427423 -0.723691 -0.919605
v 0.400000 1.000000 -0.905000
v 0.503884 0.912364 -0.919605
vn -0.5505 -0.8345 0.0215
vn -0.0000 -0.0000 -1.0000
vn 0.9990 -0.0000 0.0454
vn -0.0000 -0.0000 1.0000
vn -0.0000 1.0000 -0.0000
vn -0.9996 -0.0000 -0.0265
vn -0.0000 -0.2551 0.9669
vn 0.9995 0.0239 0.0209
vn -1.0000 -0.0000 -0.0000
vn 0.9990 0.0443 -0.0000
vn -0.0000 -1.0000 -0.0000
vn -0.5505 -0.8346 -0.0203
vn 0.9988 -0.0000 -0.0483
vn -0.9996 -0.0000 0.0282
vn -0.0000 -0.2410 -0.9705
vn 0.9995 0.0240 -0.0221
vt 0.387500 0.238125
vt 0.625000 0.238125
vt 0.625000 0.250000
vt 0.387500 0.250000
vt 0.387500 0.475000
vt 0.625000 0.475000
vt 0.625000 0.500000
vt 0.387500 0.500000
vt 0.387500 0.737500
vt 0.625000 0.737500
vt 0.625000 0.750000
vt 0.387500 0.750000
vt 0.387500 0.775000
vt 0.625000 0.775000
vt 0.625000 1.000000
vt 0.387500 1.000000
vt 0.350000 0.737500
vt 0.375000 0.737500
vt 0.375000 0.750000
vt 0.350000 0.750000
vt 0.650000 0.737500
vt 0.875000 0.737500
vt 0.875000 0.750000
vt 0.650000 0.750000
vt 0.125000 0.737500
vt 0.125000 0.750000
vt 0.375000 0.250000
vt 0.375000 0.475000
vt 0.375000 0.775000
vt 0.375000 1.000000
vt 0.375000 0.500000
vt 0.375000 0.238125
vt 0.375000 0.000000
vt 0.387500 0.000000
vt 0.387500 0.012500
vt 0.375000 0.012500
vt 0.375000 0.511875
vt 0.387500 0.511875
vt 0.125000 0.511875
vt 0.350000 0.511875
vt 0.625000 0.511875
vt 0.650000 0.511875
vt 0.875000 0.511875
vt 0.625000 0.000000
vt 0.625000 0.012500
vt 0.350000 0.500000
vt 0.650000 0.500000
vt 0.875000 0.500000
vt 0.125000 0.500000
s 1
f 29/1/1 14/4/1 4/3/1 27/2/1
f 18/5/2 15/8/2 8/7/2 10/6/2
f 25/9/3 16/12/3 6/11/3 22/10/3
f 17/13/4 13/16/4 2/15/4 12/14/4
f 24/17/5 11/20/5 5/19/5 21/18/5
f 23/21/6 12/24/6 2/23/6 20/22/6
f 22/10/7 6/11/7 12/24/7 23/21/7
f 19/25/5 1/26/5 11/20/5 24/17/5
f 16/12/4 17/13/4 12/14/4 6/11/4
f 14/4/2 18/5/2 10/6/2 4/3/2
f 3/27/2 9/28/2 18/5/2 14/4/2
f 5/19/4 11/29/4 17/13/4 16/12/4
f 11/29/4 1/30/4 13/16/4 17/13/4
f 21/18/8 5/19/8 16/12/8 25/9/8
f 9/28/2 7/31/2 15/8/2 18/5/2
f 30/32/9 3/27/9 14/4/9 29/1/9
f 1/33/9 19/36/9 26/35/9 13/34/9
f 28/37/10 21/18/10 25/9/10 34/38/10
f 30/39/5 19/25/5 24/17/5 33/40/5
f 34/38/4 29/1/4 27/43/4 32/42/4 31/41/4
f 33/40/5 24/17/5 21/18/5 28/37/5
f 29/1/11 34/38/11 25/9/11 26/35/11
f 13/34/12 26/35/12 20/45/12 2/44/12
f 15/8/13 34/38/13 31/41/13 8/7/13
f 9/46/5 33/40/5 28/37/5 7/31/5
f 10/47/14 32/42/14 27/43/14 4/48/14
f 8/7/15 31/41/15 32/42/15 10/47/15
f 3/49/5 30/39/5 33/40/5 9/46/5
f 7/31/16 28/37/16 34/38/16 15/8/16
f 19/36/9 30/32/9 29/1/9 26/35/9
f 25/9/2 22/10/2 23/21/2 20/22/2 26/35/2
