# Blender 4.0.1
# www.blender.org
mtllib Display3x3.mtl
o Cube
v -0.500000 -1.500000 1.500000
v -0.500000 1.500000 1.500000
v -0.500000 -1.500000 -1.500000
v -0.500000 1.500000 -1.500000
v 0.500000 -1.419912 1.419912
v 0.500000 1.419912 1.419912
v 0.500000 -1.419912 -1.419912
v 0.500000 1.419912 -1.419912
v 0.500000 1.500000 -1.500000
v 0.500000 -1.500000 -1.500000
v 0.500000 -1.500000 1.500000
v 0.500000 1.500000 1.500000
v 0.424455 1.419912 -1.419912
v 0.424455 -1.419912 -1.419912
v 0.424455 -1.419912 1.419912
v 0.424455 1.419912 1.419912
vn -1.0000 -0.0000 -0.0000
vn -0.0000 -0.0000 -1.0000
vn -0.0000 1.0000 -0.0000
vn -0.0000 -0.0000 1.0000
vn -0.0000 -1.0000 -0.0000
vn 1.0000 -0.0000 -0.0000
vt 0.375000 0.000000
vt 0.625000 0.000000
vt 0.625000 0.250000
vt 0.375000 0.250000
vt 0.625000 0.500000
vt 0.375000 0.500000
vt 0.381674 0.743326
vt 0.381674 0.506674
vt 0.375000 0.750000
vt 0.625000 0.750000
vt 0.625000 1.000000
vt 0.375000 1.000000
vt 0.125000 0.500000
vt 0.125000 0.750000
vt 0.875000 0.500000
vt 0.875000 0.750000
vt 0.618326 0.506674
vt 0.618326 0.743326
s 0
f 1/1/1 2/2/1 4/3/1 3/4/1
f 3/4/2 4/3/2 9/5/2 10/6/2
f 5/7/3 7/8/3 14/8/3 15/7/3
f 11/9/4 12/10/4 2/11/4 1/12/4
f 3/13/5 10/6/5 11/9/5 1/14/5
f 9/5/3 4/15/3 2/16/3 12/10/3
f 8/17/6 7/8/6 10/6/6 9/5/6
f 7/8/6 5/7/6 11/9/6 10/6/6
f 6/18/6 8/17/6 9/5/6 12/10/6
f 5/7/6 6/18/6 12/10/6 11/9/6
f 14/8/6 13/17/6 16/18/6 15/7/6
f 8/17/5 6/18/5 16/18/5 13/17/5
f 7/8/4 8/17/4 13/17/4 14/8/4
f 6/18/2 5/7/2 15/7/2 16/18/2
